<svg width="15" height="14" viewBox="0 0 15 14" fill="none" xmlns="http://www.w3.org/2000/svg">
<g clip-path="url(#clip0_1062_2449)">
<path d="M-25.9367 11.9896H-28.7853L-29.6568 9.88775H-34.4043L-35.1983 11.9896H-38L-33.7197 1.37396H-30.6532L-25.9367 11.9896ZM-32.1474 3.91061L-33.7039 8.03525H-30.4351L-32.1474 3.91061ZM-15.589 1.37396H-13.2853V11.9896H-15.9317V5.35877L-18.7958 8.68941H-19.2003L-22.0642 5.35877V11.9895H-24.7106V1.37396H-22.407L-18.9982 5.3119L-15.589 1.37396ZM-6.57981 1.37396C-2.70415 1.37396 -0.71207 3.78625 -0.71207 6.69694C-0.71207 9.74766 -2.64194 11.9896 -6.87573 11.9896H-11.2653V1.37396H-6.57981ZM-8.61908 10.044H-6.89158C-4.22985 10.044 -3.43589 8.238 -3.43589 6.68121C-3.43589 4.85991 -4.41668 3.31937 -6.92272 3.31937H-8.61914V10.044H-8.61908ZM4.55291 3.89103L1.21606 0.553711H13.3638V12.7015L10.0269 9.36457V3.89103H4.55291ZM4.54899 4.55977L1.11353 7.99499V12.8037H5.92175L9.35703 9.36848H4.54899V4.55977Z" fill="white" fill-opacity="0.8"/>
</g>
<defs>
<clipPath id="clip0_1062_2449">
<rect width="14" height="14" fill="white" transform="translate(0.5)"/>
</clipPath>
</defs>
</svg>
