<svg width="12" height="8" viewBox="0 0 12 8" fill="none" xmlns="http://www.w3.org/2000/svg">
  <path fill-rule="evenodd" style="stroke: none;" clip-rule="evenodd" d="M7.72826 0.149747C7.55741 -0.0211071 7.2804 -0.0211071 7.10955 0.149747C6.93869 0.320602 6.93869 0.597611 7.10955 0.768466L9.90342 3.56234H1.04297C0.801344 3.56234 0.605469 3.75821 0.605469 3.99984C0.605469 4.24146 0.801344 4.43734 1.04297 4.43734H9.90362L7.10955 7.23141C6.93869 7.40227 6.93869 7.67928 7.10955 7.85013C7.2804 8.02099 7.55741 8.02099 7.72826 7.85013L11.2691 4.3093C11.3511 4.22725 11.3972 4.11597 11.3972 3.99994C11.3972 3.88391 11.3511 3.77263 11.2691 3.69058L7.72826 0.149747Z" fill="currentColor"/>
</svg>
