<svg width="24" height="24" viewBox="0 0 24 24" fill="none" stroke-width="0" xmlns="http://www.w3.org/2000/svg">
<path d="M11.7143 15.4286C10.7675 15.4286 10 14.6611 10 13.7143C10 12.7675 10.7675 12 11.7143 12M2 16.3431V7.65737C2 6.37725 2 5.73671 2.24913 5.24777C2.46827 4.81768 2.81768 4.46827 3.24777 4.24913C3.73671 4 4.37725 4 5.65737 4H18.9145C20.1946 4 20.8338 4 21.3227 4.24913C21.7528 4.46827 22.1034 4.81768 22.3225 5.24777C22.5714 5.73623 22.5714 6.37599 22.5714 7.65361V16.3469C22.5714 17.6246 22.5714 18.2634 22.3225 18.7519C22.1034 19.182 21.7528 19.532 21.3227 19.7511C20.8343 20 20.1954 20 18.9178 20H5.65361C4.37599 20 3.73623 20 3.24777 19.7511C2.81768 19.532 2.46827 19.182 2.24913 18.7519C2 18.2629 2 17.6232 2 16.3431ZM18 13.7143C18 14.6611 17.2325 15.4286 16.2857 15.4286C15.3389 15.4286 14.5714 14.6611 14.5714 13.7143C14.5714 12.7675 15.3389 12 16.2857 12C17.2325 12 18 12.7675 18 13.7143Z" stroke="currentColor" stroke-width="1.5" stroke-linecap="round" stroke-linejoin="round"/>
</svg>
