<svg width="24" height="24" viewBox="0 0 24 24" fill="none" xmlns="http://www.w3.org/2000/svg">
<path d="M7.51001 19.8C8.83001 20.56 10.36 21 12 21C16.97 21 21 16.97 21 12C21 7.03 16.97 3 12 3C7.03 3 3 7.03 3 12C3 13.64 3.44001 15.17 4.20001 16.49C4.27001 16.62 4.31002 16.69 4.33002 16.75C4.35002 16.81 4.35001 16.86 4.35001 16.92C4.35001 16.98 4.32 17.05 4.28 17.18L3.51001 19.49C3.35001 19.98 3.27001 20.22 3.32001 20.39C3.37001 20.53 3.48 20.64 3.62 20.69C3.78 20.75 4.02001 20.67 4.51001 20.51L6.82001 19.74C6.95001 19.7 7.02002 19.67 7.08002 19.67C7.14002 19.67 7.19 19.67 7.25 19.69C7.31 19.71 7.37 19.74 7.5 19.82L7.51001 19.8Z" stroke="white" stroke-width="1.5" stroke-linecap="round" stroke-linejoin="round"/>
<path d="M8 11.25C8.41 11.25 8.75 11.59 8.75 12C8.75 12.41 8.41 12.75 8 12.75C7.59 12.75 7.25 12.41 7.25 12C7.25 11.59 7.59 11.25 8 11.25ZM12 11.25C12.41 11.25 12.75 11.59 12.75 12C12.75 12.41 12.41 12.75 12 12.75C11.59 12.75 11.25 12.41 11.25 12C11.25 11.59 11.59 11.25 12 11.25ZM16 11.25C16.41 11.25 16.75 11.59 16.75 12C16.75 12.41 16.41 12.75 16 12.75C15.59 12.75 15.25 12.41 15.25 12C15.25 11.59 15.59 11.25 16 11.25Z" fill="white"/>
</svg>
