<svg width="16" height="16" viewBox="0 0 16 16" fill="none" xmlns="http://www.w3.org/2000/svg">
<path fill-rule="evenodd" clip-rule="evenodd" d="M2.14782 2.14782C1.96255 2.3331 1.83594 2.61623 1.83594 3.0026V12.0026C1.83594 12.1433 1.85132 12.2884 1.87861 12.4328C1.89769 12.5154 1.91315 12.5809 1.93224 12.6437C1.95884 12.7235 1.98095 12.789 2.00375 12.8473C2.02442 12.8819 2.04008 12.9177 2.05134 12.9536C2.12263 13.0892 2.20002 13.215 2.28628 13.3298C2.3494 13.4039 2.41351 13.4739 2.48452 13.5514C2.52918 13.6001 2.58291 13.6464 2.66079 13.7063C2.66896 13.7126 2.67692 13.7191 2.68468 13.7259C2.79703 13.8094 2.91969 13.8845 3.05158 13.9539C3.08876 13.9655 3.12581 13.9819 3.16163 14.0037C3.21673 14.0263 3.27822 14.047 3.35726 14.0717C3.42136 14.0914 3.48788 14.1071 3.57237 14.1266C3.71682 14.1539 3.86191 14.1693 4.0026 14.1693C4.22663 14.1693 4.45029 14.1366 4.65177 14.0703C4.72426 14.0439 4.77779 14.024 4.82903 14.0007C4.83603 13.9976 4.8431 13.9945 4.85023 13.9917C5.03553 13.9176 5.2135 13.8124 5.36848 13.6781C5.37516 13.6723 5.38199 13.6667 5.38897 13.6613C5.42924 13.6299 5.4803 13.5845 5.52892 13.5359L5.55305 13.5117C5.93286 13.1199 6.16927 12.584 6.16927 12.0026V3.0026C6.16927 2.61623 6.04266 2.3331 5.85738 2.14782C5.67211 1.96255 5.38898 1.83594 5.0026 1.83594H3.0026C2.61623 1.83594 2.3331 1.96255 2.14782 2.14782ZM1.44072 1.44072C1.83877 1.04266 2.38898 0.835938 3.0026 0.835938H5.0026C5.61623 0.835938 6.16644 1.04266 6.56449 1.44072C6.96255 1.83877 7.16927 2.38898 7.16927 3.0026V12.0026C7.16927 12.8601 6.81995 13.6432 6.26776 14.2111L6.26298 14.2161L6.2363 14.2427C6.16816 14.3108 6.08995 14.382 6.01363 14.4422C5.77412 14.6478 5.50609 14.8051 5.2321 14.916C5.14458 14.9551 5.05982 14.986 4.99266 15.0104L4.98681 15.0125L4.97405 15.0169C4.6571 15.1226 4.323 15.1693 4.0026 15.1693C3.78612 15.1693 3.57421 15.1453 3.37486 15.1069C3.36883 15.1058 3.36283 15.1045 3.35685 15.1031L3.35036 15.1016C3.26757 15.0825 3.16609 15.0591 3.06223 15.0272L3.06013 15.0265C2.9635 14.9963 2.85423 14.9608 2.73987 14.911C2.71695 14.9034 2.69438 14.8942 2.67233 14.8831C2.46477 14.7794 2.25692 14.657 2.06007 14.5074C2.04974 14.4995 2.03972 14.4913 2.03004 14.4826C1.94016 14.4127 1.84194 14.3303 1.74737 14.2271L1.74426 14.2237C1.67267 14.1456 1.59384 14.0596 1.51424 13.9656C1.5086 13.9589 1.50314 13.9521 1.49785 13.9451C1.34824 13.7483 1.22584 13.5404 1.12206 13.3329C1.1111 13.311 1.10187 13.2885 1.09435 13.2657C1.05005 13.1595 1.01389 13.051 0.984211 12.9619L0.981591 12.9541L0.978043 12.943C0.94604 12.839 0.922605 12.7374 0.903473 12.6545L0.902066 12.6484C0.900687 12.6424 0.899417 12.6364 0.898259 12.6304C0.859917 12.431 0.835938 12.2191 0.835938 12.0026V3.0026C0.835938 2.38898 1.04266 1.83877 1.44072 1.44072ZM1.56927 13.6026C1.57749 13.6026 1.57361 13.6028 1.56326 13.6026C1.56526 13.6026 1.56727 13.6026 1.56927 13.6026ZM1.54926 13.1026L1.53142 13.1026C1.53729 13.1026 1.54324 13.1026 1.54926 13.1026ZM1.21572 12.7557C1.21554 12.7559 1.21537 12.7561 1.21519 12.7563C1.21796 12.7534 1.21871 12.7527 1.21572 12.7557ZM3.24949 14.7895C3.2521 14.7869 3.25238 14.7866 3.24949 14.7895V14.7895ZM2.40264 14.442C2.40239 14.4316 2.40261 14.4277 2.40261 14.4359C2.40261 14.438 2.40262 14.44 2.40264 14.442Z" fill="currentColor"/>
<path fill-rule="evenodd" clip-rule="evenodd" d="M10.0867 8.98212C10.1805 8.88851 10.3075 8.83594 10.44 8.83594H13C13.6136 8.83594 14.1638 9.04266 14.5619 9.44072C14.9599 9.83877 15.1667 10.389 15.1667 11.0026V13.0026C15.1667 13.6162 14.9599 14.1664 14.5619 14.5645C14.1638 14.9625 13.6136 15.1693 13 15.1693H4C3.72386 15.1693 3.5 14.9454 3.5 14.6693C3.5 14.3931 3.72386 14.1693 4 14.1693C4.22403 14.1693 4.44771 14.1366 4.64919 14.0703C4.72167 14.0439 4.77519 14.024 4.82642 14.0007C4.83342 13.9976 4.84049 13.9945 4.84763 13.9917C5.03292 13.9176 5.2109 13.8124 5.36587 13.6781C5.37256 13.6723 5.37939 13.6667 5.38637 13.6613C5.42667 13.6299 5.47779 13.5844 5.52645 13.5357L10.0867 8.98212ZM6.30716 14.1693H13C13.3864 14.1693 13.6695 14.0427 13.8548 13.8574C14.0401 13.6721 14.1667 13.389 14.1667 13.0026V11.0026C14.1667 10.6162 14.0401 10.3331 13.8548 10.1478C13.6695 9.96255 13.3864 9.83594 13 9.83594H10.6469L6.30716 14.1693Z" fill="currentColor"/>
<path fill-rule="evenodd" clip-rule="evenodd" d="M1.30695 12.3189C1.56999 12.2384 1.84863 12.3855 1.93056 12.6481C2.14166 13.3247 2.67892 13.8619 3.35551 14.073C3.6181 14.155 3.76519 14.4336 3.68471 14.6966C3.60422 14.9597 3.32639 15.1083 3.06292 15.0293C2.58702 14.8865 2.13397 14.6248 1.7597 14.2439C1.37878 13.8696 1.11711 13.4166 0.974341 12.9407C0.8953 12.6772 1.04392 12.3994 1.30695 12.3189Z" fill="currentColor"/>
<path fill-rule="evenodd" clip-rule="evenodd" d="M9.65292 3.72656C9.38952 3.72656 9.09904 3.83755 8.82647 4.11012L7.16626 5.77033V11.8985L10.086 8.98301L11.8927 7.17634C12.1653 6.90377 12.2763 6.61329 12.2763 6.34989C12.2763 6.08649 12.1653 5.79602 11.8927 5.52345L10.4794 4.11012C10.2068 3.83755 9.91633 3.72656 9.65292 3.72656ZM9.65292 2.72656C10.2162 2.72656 10.7524 2.96891 11.1865 3.40301L12.5998 4.81634C13.0339 5.25044 13.2763 5.78663 13.2763 6.34989C13.2763 6.91315 13.0339 7.44934 12.5998 7.88344L10.7931 9.69011L6.25954 14.217C6.06516 14.4111 5.7506 14.4121 5.55506 14.2191C5.35953 14.0262 5.35627 13.7116 5.54775 13.5147C5.9289 13.1226 6.16626 12.5858 6.16626 12.0032V5.56322C6.16626 5.43062 6.21894 5.30344 6.31271 5.20967L8.11937 3.40301C8.55347 2.96891 9.08966 2.72656 9.65292 2.72656Z" fill="currentColor"/>
<path fill-rule="evenodd" clip-rule="evenodd" d="M4.0026 11.8359C3.91056 11.8359 3.83594 11.9106 3.83594 12.0026C3.83594 12.0947 3.91056 12.1693 4.0026 12.1693C4.09465 12.1693 4.16927 12.0947 4.16927 12.0026C4.16927 11.9106 4.09465 11.8359 4.0026 11.8359ZM2.83594 12.0026C2.83594 11.3583 3.35827 10.8359 4.0026 10.8359C4.64694 10.8359 5.16927 11.3583 5.16927 12.0026C5.16927 12.6469 4.64694 13.1693 4.0026 13.1693C3.35827 13.1693 2.83594 12.6469 2.83594 12.0026Z" fill="currentColor"/>
</svg>
