<svg width="17" height="16" viewBox="0 0 17 16" fill="none" xmlns="http://www.w3.org/2000/svg">
<path d="M11.1036 15H5.90365M1.57031 9.62684V4.7735C1.57031 3.80275 1.57031 3.317 1.75923 2.94622C1.92542 2.62008 2.19039 2.3551 2.51654 2.18892C2.88732 2 3.37306 2 4.34382 2H12.6638C13.6346 2 14.1193 2 14.4901 2.18892C14.8162 2.3551 15.0821 2.62008 15.2482 2.94622C15.437 3.31664 15.437 3.80179 15.437 4.77066V9.62934C15.437 10.5982 15.437 11.0827 15.2482 11.4531C15.0821 11.7792 14.8162 12.0451 14.4901 12.2113C14.1196 12.4 13.6352 12.4 12.6663 12.4H4.34097C3.37211 12.4 2.88695 12.4 2.51654 12.2113C2.19039 12.0451 1.92542 11.7792 1.75923 11.4531C1.57031 11.0823 1.57031 10.5976 1.57031 9.62684Z" stroke="currentColor" stroke-linecap="round" stroke-linejoin="round"/>
</svg>
