<svg width="14" height="14" viewBox="0 0 14 14" fill="none" stroke-width="0" xmlns="http://www.w3.org/2000/svg">
<path fill-rule="evenodd" clip-rule="evenodd" d="M1.6608 3.0625C1.73103 2.55447 1.86505 2.25236 2.05871 2.05871C2.35708 1.76034 2.91289 1.60352 4.08268 1.60352H4.95768C5.35731 1.60352 5.53325 1.66318 5.63583 1.7248C5.74875 1.79264 5.83099 1.89293 6.00768 2.12852L6.70817 3.0625H1.6608ZM1.60436 3.9375C1.6038 3.98481 1.60352 4.0332 1.60352 4.08268V9.91602C1.60352 11.0858 1.76034 11.6416 2.05871 11.94C2.35708 12.2384 2.91289 12.3952 4.08268 12.3952H9.91602C11.0858 12.3952 11.6416 12.2384 11.94 11.94C12.2384 11.6416 12.3952 11.0858 12.3952 9.91602V6.41602C12.3952 5.24622 12.2384 4.69041 11.94 4.39204C11.6416 4.09367 11.0858 3.93685 9.91602 3.93685H8.74935V3.9375H1.60436ZM4.08268 0.728516C2.91914 0.728516 2.01662 0.863361 1.43999 1.43999C0.863361 2.01662 0.728516 2.91914 0.728516 4.08268V9.91602C0.728516 11.0796 0.863361 11.9821 1.43999 12.5587C2.01662 13.1353 2.91914 13.2702 4.08268 13.2702H9.91602C11.0796 13.2702 11.9821 13.1353 12.5587 12.5587C13.1353 11.9821 13.2702 11.0796 13.2702 9.91602V6.41602C13.2702 5.25248 13.1353 4.34995 12.5587 3.77332C11.9821 3.19669 11.0796 3.06185 9.91602 3.06185H8.16602C7.91383 3.06185 7.82669 3.02313 7.79003 3.00097C7.742 2.97194 7.70368 2.92934 7.58188 2.76911L6.70768 1.60352L6.68848 1.57788C6.53698 1.37552 6.35997 1.13907 6.08641 0.974734C5.79086 0.797188 5.43306 0.728516 4.95768 0.728516H4.08268Z" fill="currentColor"/>
</svg>
