<svg width="16" height="16" viewBox="0 0 16 16" fill="none" xmlns="http://www.w3.org/2000/svg">
<path fill-rule="evenodd" clip-rule="evenodd" d="M7.07458 5.39844C6.65846 5.39844 6.28125 5.7597 6.28125 6.25177C6.28125 6.58689 6.35339 6.74017 6.41726 6.82164C6.48561 6.90884 6.60057 6.9863 6.82688 7.06666L9.51495 8.00049C9.81438 8.10661 10.1391 8.26568 10.3789 8.57164C10.6234 8.8835 10.7279 9.28022 10.7279 9.75844C10.7279 10.7597 9.94513 11.6118 8.93458 11.6118H7.26125C6.14247 11.6118 5.28125 10.6714 5.28125 9.55844C5.28125 9.2823 5.50511 9.05844 5.78125 9.05844C6.05739 9.05844 6.28125 9.2823 6.28125 9.55844C6.28125 10.1655 6.74003 10.6118 7.26125 10.6118H8.93458C9.35071 10.6118 9.72792 10.2505 9.72792 9.75844C9.72792 9.42332 9.65577 9.27004 9.59191 9.18857C9.52356 9.10137 9.4086 9.02391 9.1823 8.94355L6.49421 8.00972C6.19479 7.9036 5.87008 7.74452 5.63024 7.43857C5.38577 7.12671 5.28125 6.72999 5.28125 6.25177C5.28125 5.25051 6.06404 4.39844 7.07458 4.39844H8.74792C9.8667 4.39844 10.7279 5.33883 10.7279 6.45177C10.7279 6.72791 10.5041 6.95177 10.2279 6.95177C9.95177 6.95177 9.72792 6.72791 9.72792 6.45177C9.72792 5.84472 9.26913 5.39844 8.74792 5.39844H7.07458Z" fill="currentColor"/>
<path fill-rule="evenodd" clip-rule="evenodd" d="M8 3.5C8.27614 3.5 8.5 3.72386 8.5 4V12C8.5 12.2761 8.27614 12.5 8 12.5C7.72386 12.5 7.5 12.2761 7.5 12V4C7.5 3.72386 7.72386 3.5 8 3.5Z" fill="currentColor"/>
<path fill-rule="evenodd" clip-rule="evenodd" d="M8.0026 1.83594C4.59685 1.83594 1.83594 4.59685 1.83594 8.0026C1.83594 11.4084 4.59685 14.1693 8.0026 14.1693C11.4084 14.1693 14.1693 11.4084 14.1693 8.0026C14.1693 4.59685 11.4084 1.83594 8.0026 1.83594ZM0.835938 8.0026C0.835938 4.04456 4.04456 0.835938 8.0026 0.835938C11.9606 0.835938 15.1693 4.04456 15.1693 8.0026C15.1693 11.9606 11.9606 15.1693 8.0026 15.1693C4.04456 15.1693 0.835938 11.9606 0.835938 8.0026Z" fill="currentColor"/>
</svg>
