<svg width="16" height="16" viewBox="0 0 16 16" fill="none" xmlns="http://www.w3.org/2000/svg">
<path fill-rule="evenodd" clip-rule="evenodd" d="M10.6187 3.45081C10.6132 3.45371 10.5937 3.4653 10.5537 3.49922C10.488 3.55498 10.4059 3.63659 10.2684 3.77405L10.266 3.77652L8.70841 5.33406L10.668 7.29361L12.2314 5.73014C12.3667 5.5949 12.4473 5.51362 12.5026 5.44852C12.5366 5.40847 12.5482 5.3889 12.5511 5.38341C12.561 5.35126 12.561 5.31688 12.5511 5.28479C12.5482 5.2793 12.5366 5.25967 12.5024 5.21946C12.4465 5.1536 12.3647 5.07119 12.2268 4.93335L11.067 3.77349C10.9297 3.63621 10.8477 3.55474 10.7821 3.49908C10.7423 3.46528 10.7228 3.45371 10.7173 3.4508C10.6852 3.44088 10.6508 3.44088 10.6187 3.45081ZM9.96085 8.00072L8.0013 6.04117L3.16797 10.8745V12.8341L5.12753 12.834L9.96085 8.00072ZM10.3075 2.50046C10.5418 2.42433 10.7942 2.42433 11.0285 2.50046C11.1922 2.55365 11.3208 2.64465 11.4292 2.73669C11.5298 2.82206 11.6409 2.93321 11.7617 3.05406L11.7741 3.06638L12.9339 4.22625L12.9463 4.2386C13.0677 4.35997 13.1792 4.47146 13.2648 4.57227C13.357 4.68095 13.4482 4.80968 13.5014 4.97359C13.5776 5.20794 13.5775 5.46034 13.5014 5.69463C13.4482 5.85843 13.3571 5.98707 13.2649 6.09568C13.1794 6.19639 13.0681 6.30774 12.9469 6.42892L12.9299 6.44588L5.68819 13.6876C5.59442 13.7814 5.46725 13.834 5.33464 13.834L2.66797 13.8341C2.53536 13.8341 2.40819 13.7814 2.31442 13.6876C2.22065 13.5938 2.16797 13.4667 2.16797 13.3341V10.6674C2.16797 10.5348 2.22065 10.4076 2.31442 10.3138L9.56264 3.0656L9.57366 3.0546C9.69467 2.93357 9.80592 2.8223 9.90658 2.73686C10.0151 2.64474 10.1437 2.55367 10.3075 2.50046Z" fill="currentColor" />
</svg>
