<svg width="12" height="12" viewBox="0 0 12 12" fill="none" stroke-width="0" xmlns="http://www.w3.org/2000/svg">
<path fill-rule="evenodd" clip-rule="evenodd" d="M7.3125 0.75C7.3125 0.508375 7.50838 0.3125 7.75 0.3125H11.25C11.4916 0.3125 11.6875 0.508375 11.6875 0.75L11.6875 4.25C11.6875 4.49162 11.4916 4.6875 11.25 4.6875C11.0084 4.6875 10.8125 4.49162 10.8125 4.25L10.8125 1.80622L6.89269 5.72603C6.72184 5.89688 6.44483 5.89688 6.27397 5.72603C6.10312 5.55517 6.10312 5.27816 6.27397 5.10731L10.1938 1.1875H7.75C7.50838 1.1875 7.3125 0.991625 7.3125 0.75ZM3.53127 1.47917L4.83333 1.47917C5.07496 1.47917 5.27083 1.67504 5.27083 1.91667C5.27083 2.15829 5.07496 2.35417 4.83333 2.35417H3.55C3.05274 2.35417 2.7061 2.35451 2.43623 2.37656C2.17147 2.39819 2.01936 2.43851 1.90414 2.49722C1.65718 2.62305 1.45639 2.82384 1.33055 3.0708C1.27185 3.18602 1.23152 3.33814 1.20989 3.6029C1.18784 3.87276 1.1875 4.2194 1.1875 4.71667V8.45C1.1875 8.94726 1.18784 9.2939 1.20989 9.56377C1.23152 9.82853 1.27185 9.98065 1.33055 10.0959C1.45639 10.3428 1.65717 10.5436 1.90414 10.6694C2.01936 10.7282 2.17147 10.7685 2.43623 10.7901C2.7061 10.8122 3.05274 10.8125 3.55 10.8125H7.28333C7.7806 10.8125 8.12724 10.8122 8.3971 10.7901C8.66186 10.7685 8.81398 10.7282 8.9292 10.6694C9.17616 10.5436 9.37695 10.3428 9.50278 10.0959C9.56149 9.98065 9.60181 9.82853 9.62344 9.56377C9.64549 9.2939 9.64583 8.94726 9.64583 8.45V7.16667C9.64583 6.92504 9.84171 6.72917 10.0833 6.72917C10.325 6.72917 10.5208 6.92504 10.5208 7.16667V8.46874C10.5208 8.94289 10.5208 9.32533 10.4955 9.63502C10.4695 9.95389 10.4144 10.234 10.2824 10.4931C10.0727 10.9047 9.73804 11.2394 9.32644 11.4491C9.06731 11.5811 8.78723 11.6362 8.46836 11.6622C8.15866 11.6875 7.77622 11.6875 7.30207 11.6875H3.53126C3.05711 11.6875 2.67467 11.6875 2.36498 11.6622C2.04611 11.6362 1.76602 11.5811 1.5069 11.4491C1.09529 11.2394 0.760647 10.9047 0.550923 10.4931C0.418891 10.234 0.363848 9.95389 0.337796 9.63502C0.312492 9.32533 0.312496 8.94288 0.3125 8.46873V4.69794C0.312496 4.22378 0.312492 3.84134 0.337796 3.53164C0.363848 3.21277 0.418891 2.93269 0.550923 2.67356C0.760646 2.26196 1.09529 1.92731 1.5069 1.71759C1.76602 1.58556 2.04611 1.53051 2.36498 1.50446C2.67467 1.47916 3.05712 1.47916 3.53127 1.47917Z" fill="currentColor"/>
</svg>
