<svg width="14" height="14" viewBox="0 0 14 14" fill="none" xmlns="http://www.w3.org/2000/svg">
<path d="M7.14265 2.91884C7.09573 2.91742 7.04865 2.91669 7.00143 2.91669C4.77733 2.91669 2.87575 4.51912 1.83535 5.60217L1.80781 5.63082C1.55829 5.89022 1.35462 6.10196 1.23553 6.48422C1.18526 6.64557 1.16797 6.83619 1.16797 7.00006C1.16797 7.16393 1.18526 7.35454 1.23553 7.5159C1.35459 7.89808 1.55823 8.10978 1.80762 8.36905L1.83535 8.39789C2.25629 8.83608 2.81819 9.35929 3.4854 9.82699L3.90721 9.03024C3.33848 8.62417 2.84173 8.166 2.44632 7.75437C2.16566 7.46221 2.10866 7.39266 2.05938 7.23448C2.04805 7.19811 2.03455 7.11246 2.03455 7.00006C2.03455 6.88765 2.04805 6.802 2.05938 6.76564C2.10867 6.60743 2.1657 6.5378 2.44632 6.24568C3.39837 5.2546 4.93782 3.99371 6.65512 3.83974L7.14265 2.91884Z" fill="currentColor"/>
<path d="M6.20111 8.43753C6.43611 8.58127 6.70953 8.66364 7.00132 8.66364C7.87875 8.66364 8.59005 7.91883 8.59005 7.00005C8.59005 6.36119 8.24614 5.80644 7.7416 5.52771L7.32115 6.32189C7.55954 6.4454 7.72347 6.70268 7.72347 7.00005C7.72347 7.41768 7.40015 7.75623 7.00132 7.75623C6.86199 7.75623 6.73189 7.71492 6.62156 7.64335L6.20111 8.43753Z" fill="currentColor"/>
<path d="M5.44162 9.87212C5.93903 10.0611 6.46302 10.1759 7.00142 10.1759C8.85678 10.1759 10.5405 8.81166 11.5562 7.75437C11.8367 7.46234 11.894 7.3925 11.9432 7.23448C11.9545 7.19811 11.9681 7.11246 11.9681 7.00006C11.9681 6.88765 11.9546 6.802 11.9432 6.76564C11.894 6.60758 11.8367 6.5377 11.5562 6.24568C10.8223 5.48175 9.73972 4.55756 8.49559 4.10351L8.92111 3.29975C10.2997 3.841 11.4423 4.84764 12.1672 5.60217L12.1949 5.63097C12.4441 5.89005 12.648 6.1021 12.7671 6.48422C12.8173 6.64557 12.8346 6.83619 12.8346 7.00006C12.8346 7.16393 12.8173 7.35455 12.7671 7.5159C12.6481 7.89794 12.4441 8.10999 12.195 8.36892L12.1672 8.39789C11.1268 9.48091 9.22553 11.0834 7.00142 11.0834C6.30248 11.0834 5.63538 10.9251 5.01686 10.6744L5.44162 9.87212Z" fill="currentColor"/>
<path fill-rule="evenodd" clip-rule="evenodd" d="M8.956 1.36337C9.16955 1.47642 9.25101 1.74118 9.13796 1.95473L3.88796 11.8714C3.77491 12.0849 3.51015 12.1664 3.2966 12.0534C3.08306 11.9403 3.00159 11.6755 3.11464 11.462L8.36464 1.54533C8.4777 1.33178 8.74246 1.25032 8.956 1.36337Z" fill="currentColor"/>
</svg>
