<svg width="27" height="26" viewBox="0 0 27 26" fill="none" stroke-width="0" xmlns="http://www.w3.org/2000/svg">
<rect x="0.667969" width="26" height="26" rx="6" fill="#3A271F"/>
<g clip-path="url(#clip0_12039_2337)">
<path fill-rule="evenodd" clip-rule="evenodd" d="M10.1751 6.33301L17.1635 6.33301C17.7001 6.333 18.143 6.33299 18.5038 6.36247C18.8786 6.39309 19.223 6.4588 19.5466 6.62366C20.0483 6.87932 20.4563 7.28727 20.712 7.78903C20.8768 8.11259 20.9425 8.45706 20.9731 8.83179C21.0026 9.19259 21.0026 9.63549 21.0026 10.1721V15.8272C21.0026 16.3639 21.0026 16.8068 20.9731 17.1676C20.9425 17.5423 20.8768 17.8868 20.712 18.2103C20.4563 18.7121 20.0483 19.12 19.5466 19.3757C19.223 19.5406 18.8786 19.6063 18.5038 19.6369C18.143 19.6664 17.7001 19.6663 17.1635 19.6663H10.1751C9.63845 19.6663 9.19553 19.6664 8.83472 19.6369C8.45999 19.6063 8.11552 19.5405 7.79196 19.3757C7.2902 19.12 6.88225 18.7121 6.62659 18.2103C6.46173 17.8868 6.39602 17.5423 6.3654 17.1676C6.33592 16.8068 6.33593 16.3639 6.33594 15.8272L6.33594 11.0001C6.33594 11 6.33594 11.0003 6.33594 11.0001C6.33594 11 6.33594 10.9994 6.33594 10.9992L6.33594 10.1721C6.33593 9.6355 6.33592 9.19259 6.3654 8.83179C6.39602 8.45706 6.46173 8.11259 6.62659 7.78903C6.88225 7.28727 7.2902 6.87932 7.79196 6.62366C8.11552 6.4588 8.45999 6.39309 8.83472 6.36247C9.19552 6.33299 9.63843 6.333 10.1751 6.33301ZM7.66927 11.6663V15.7997C7.66927 16.3707 7.66979 16.7589 7.69431 17.059C7.71819 17.3513 7.76147 17.5007 7.8146 17.605C7.94243 17.8559 8.1464 18.0598 8.39728 18.1877C8.50155 18.2408 8.65102 18.2841 8.9433 18.308C9.24336 18.3325 9.63155 18.333 10.2026 18.333H17.1359C17.707 18.333 18.0952 18.3325 18.3952 18.308C18.6875 18.2841 18.837 18.2408 18.9413 18.1877C19.1921 18.0599 19.3961 17.8559 19.5239 17.605C19.5771 17.5007 19.6204 17.3513 19.6442 17.059C19.6688 16.7589 19.6693 16.3707 19.6693 15.7997V11.6663H7.66927ZM19.6693 10.333H7.66927V10.1997C7.66927 9.62862 7.66979 9.24043 7.69431 8.94037C7.71819 8.64809 7.76147 8.49862 7.8146 8.39435C7.94243 8.14347 8.1464 7.9395 8.39728 7.81167C8.50155 7.75854 8.65102 7.71526 8.9433 7.69138C9.24336 7.66686 9.63155 7.66634 10.2026 7.66634L17.1359 7.66634C17.707 7.66634 18.0952 7.66686 18.3952 7.69138C18.6875 7.71526 18.837 7.75854 18.9413 7.81167C19.1921 7.9395 19.3961 8.14347 19.5239 8.39436C19.5771 8.49862 19.6204 8.64809 19.6442 8.94037C19.6688 9.24043 19.6693 9.62862 19.6693 10.1997V10.333ZM12.8073 12.8616C13.0677 13.122 13.0677 13.5441 12.8073 13.8044L11.6121 14.9997L12.8073 16.1949C13.0677 16.4553 13.0677 16.8774 12.8073 17.1377C12.547 17.3981 12.1249 17.3981 11.8645 17.1377L10.1979 15.4711C9.93752 15.2107 9.93752 14.7886 10.1979 14.5283L11.8645 12.8616C12.1249 12.6013 12.547 12.6013 12.8073 12.8616ZM14.5312 12.8616C14.7915 12.6013 15.2137 12.6013 15.474 12.8616L17.1407 14.5283C17.401 14.7886 17.401 15.2107 17.1407 15.4711L15.474 17.1377C15.2137 17.3981 14.7915 17.3981 14.5312 17.1377C14.2709 16.8774 14.2709 16.4553 14.5312 16.1949L15.7265 14.9997L14.5312 13.8044C14.2709 13.5441 14.2709 13.122 14.5312 12.8616Z" fill="#FF885A"/>
</g>
<defs>
<clipPath id="clip0_12039_2337">
<rect width="16" height="16" fill="white" transform="translate(5.66797 5)"/>
</clipPath>
</defs>
</svg>
