<svg width="14" height="14" viewBox="0 0 14 14" fill="none" stroke-width="0" xmlns="http://www.w3.org/2000/svg">
<path fill-rule="evenodd" clip-rule="evenodd" d="M2.42329 2.42329C1.88923 2.95735 1.60352 3.83417 1.60352 5.24935V8.74935C1.60352 10.1645 1.88923 11.0413 2.42329 11.5754C2.95735 12.1095 3.83417 12.3952 5.24935 12.3952H8.74935C10.1645 12.3952 11.0413 12.1095 11.5754 11.5754C12.1095 11.0413 12.3952 10.1645 12.3952 8.74935V5.83268C12.3952 5.59106 12.5911 5.39518 12.8327 5.39518C13.0743 5.39518 13.2702 5.59106 13.2702 5.83268V8.74935C13.2702 10.2508 12.9726 11.4157 12.1941 12.1941C11.4157 12.9726 10.2508 13.2702 8.74935 13.2702H5.24935C3.74786 13.2702 2.58301 12.9726 1.80457 12.1941C1.02613 11.4157 0.728516 10.2508 0.728516 8.74935V5.24935C0.728516 3.74786 1.02613 2.58301 1.80457 1.80457C2.58301 1.02613 3.74786 0.728516 5.24935 0.728516H8.16602C8.40764 0.728516 8.60352 0.924391 8.60352 1.16602C8.60352 1.40764 8.40764 1.60352 8.16602 1.60352H5.24935C3.83417 1.60352 2.95735 1.88923 2.42329 2.42329Z" fill="currentColor" />
<path fill-rule="evenodd" clip-rule="evenodd" d="M7.99859 0.761831C8.16207 0.694114 8.35025 0.731545 8.47537 0.856669L13.142 5.52334C13.2672 5.64846 13.3046 5.83664 13.2369 6.00012C13.1692 6.1636 13.0096 6.2702 12.8327 6.2702H10.4993C9.60011 6.2702 8.8614 6.12597 8.36707 5.63164C7.87274 5.13731 7.72852 4.3986 7.72852 3.49936V1.16603C7.72852 0.989076 7.83511 0.829548 7.99859 0.761831ZM8.60352 2.22225V3.49936C8.60352 4.35012 8.75095 4.77808 8.98579 5.01292C9.22063 5.24776 9.64859 5.3952 10.4993 5.3952H11.7765L8.60352 2.22225Z" fill="currentColor" />
</svg>
