<svg width="14" height="10" viewBox="0 0 14 10" fill="none" xmlns="http://www.w3.org/2000/svg">
<path fill-rule="evenodd" clip-rule="evenodd" d="M5.02617 9.40043C5.22143 9.59569 5.53801 9.59569 5.73327 9.40043C5.92854 9.20517 5.92854 8.88858 5.73327 8.69332L2.5402 5.50025L12.6665 5.50024C12.9426 5.50024 13.1665 5.27639 13.1665 5.00024C13.1665 4.7241 12.9426 4.50024 12.6665 4.50024L2.54012 4.50025L5.73327 1.3071C5.92854 1.11183 5.92854 0.795251 5.73327 0.59999C5.53801 0.404727 5.22143 0.404727 5.02617 0.59999L0.9795 4.64666C0.885732 4.74042 0.833053 4.8676 0.833053 5.00021C0.833053 5.13282 0.885732 5.25999 0.9795 5.35376L5.02617 9.40043Z" fill="currentColor"/>
</svg>
