<svg width="20" height="20" viewBox="0 0 20 20" fill="none" xmlns="http://www.w3.org/2000/svg">
<path fill-rule="evenodd" clip-rule="evenodd" d="M10.0052 0.625C4.71042 0.625 0.421875 4.91354 0.421875 10.2083C0.421875 14.449 3.1651 18.0307 6.97448 19.3005C7.45365 19.3844 7.63333 19.0969 7.63333 18.8453C7.63333 18.6177 7.62136 17.863 7.62136 17.0604C5.21354 17.5036 4.59063 16.4734 4.39896 15.9344C4.29115 15.6589 3.82396 14.8083 3.41667 14.5807C3.08125 14.401 2.60208 13.9578 3.40469 13.9458C4.15938 13.9339 4.69844 14.6406 4.87813 14.9281C5.74063 16.3776 7.11823 15.9703 7.66927 15.7187C7.75313 15.0958 8.00469 14.6766 8.28021 14.437C6.14792 14.1974 3.91979 13.3708 3.91979 9.70521C3.91979 8.66302 4.29115 7.80052 4.90208 7.12969C4.80625 6.8901 4.47083 5.90781 4.99792 4.5901C4.99792 4.5901 5.80052 4.33854 7.63333 5.5724C8.4 5.35677 9.21458 5.24896 10.0292 5.24896C10.8438 5.24896 11.6583 5.35677 12.425 5.5724C14.2578 4.32656 15.0604 4.5901 15.0604 4.5901C15.5875 5.90781 15.2521 6.8901 15.1562 7.12969C15.7672 7.80052 16.1385 8.65104 16.1385 9.70521C16.1385 13.3828 13.8984 14.1974 11.7661 14.437C12.1135 14.7365 12.413 15.3115 12.413 16.2099C12.413 17.4917 12.401 18.5219 12.401 18.8453C12.401 19.0969 12.5807 19.3964 13.0599 19.3005C16.8453 18.0307 19.5885 14.437 19.5885 10.2083C19.5885 4.91354 15.3 0.625 10.0052 0.625Z" fill="currentColor"/>
</svg>
