<svg width="20" height="20" viewBox="0 0 20 20" fill="none" xmlns="http://www.w3.org/2000/svg">
<path d="M13.063 6.38013C12.2266 5.59468 11.1794 5.18741 10.0012 5.18741C7.92119 5.18741 6.15392 6.59104 5.52119 8.48195L5.52 8.48103C5.36 8.96103 5.26545 9.47056 5.26545 10.0015C5.26545 10.5324 5.36 11.0415 5.52 11.5215L5.50977 11.5293H5.52119C6.15392 13.4202 7.92119 14.8238 10.0012 14.8238C11.077 14.8238 11.9856 14.5333 12.6982 14.0537V14.0523C13.5491 13.4851 14.1164 12.6414 14.3055 11.6451H10V8.54688H17.5345C17.6291 9.07051 17.68 9.61597 17.68 10.1832C17.68 12.6195 16.8073 14.6703 15.2947 16.0667L15.2957 16.0675C13.9721 17.2893 12.1612 18.002 10.0012 18.002C6.87392 18.002 4.17574 16.2057 2.85938 13.5948V13.586L2.85818 13.5869C2.31273 12.5106 2 11.296 2 10.0015C2 8.70692 2.31273 7.49238 2.85818 6.41602H2.85962C4.17607 3.7981 6.87411 2.00195 10.0012 2.00195C12.1612 2.00195 13.9648 2.79468 15.3539 4.08923L13.063 6.38013Z" fill="white"/>
</svg>
