<svg width="22" height="20" viewBox="0 0 22 20" fill="none" xmlns="http://www.w3.org/2000/svg">
<path d="M21.6963 14.7024C21.6401 14.4904 21.5491 14.2892 21.4271 14.107C21.4532 14.011 21.4731 13.9135 21.4865 13.815C21.5731 13.1899 21.3565 12.6177 20.948 12.1748C20.7267 11.9329 20.4896 11.7733 20.2385 11.6753C20.4033 10.97 20.4868 10.2481 20.4872 9.52373C20.4872 9.19298 20.4685 8.86892 20.4371 8.54967C20.4207 8.39026 20.4009 8.23116 20.3778 8.07258C20.3058 7.6047 20.1991 7.14281 20.0585 6.69078C19.9664 6.39379 19.8598 6.10146 19.7392 5.81484C19.5583 5.39041 19.3471 4.97951 19.1073 4.58535C18.9499 4.32317 18.7785 4.06963 18.5939 3.82583C18.5034 3.70271 18.4092 3.58251 18.3111 3.46537C18.0205 3.11217 17.7048 2.78051 17.3662 2.47301C17.2538 2.36964 17.1383 2.26984 17.0195 2.17374C16.9027 2.07627 16.7832 1.98192 16.6614 1.89079C16.4161 1.70824 16.1625 1.53696 15.9017 1.37751C14.4601 0.501987 12.7696 0 10.9629 0C5.7023 0 1.43861 4.2638 1.43861 9.52415C1.43847 10.2576 1.52345 10.9886 1.69185 11.7024C1.46591 11.8005 1.24928 11.9533 1.04854 12.1746C0.640177 12.6171 0.423441 13.1874 0.510156 13.8124C0.523232 13.9118 0.543106 14.0101 0.569466 14.1068C0.447468 14.2891 0.356495 14.4904 0.300219 14.7024C0.174697 15.1795 0.216015 15.6097 0.375533 15.9866C0.202207 16.4794 0.245512 17.0041 0.471349 17.4602C0.635574 17.7934 0.870616 18.051 1.16026 18.2815C1.50472 18.5552 1.93589 18.7879 2.45607 19.0111C3.07658 19.2757 3.8339 19.5243 4.17835 19.6156C5.0681 19.846 5.92124 19.992 6.78597 19.999C8.01777 20.0105 9.07865 19.7208 9.83827 18.9795C10.2114 19.0252 10.5869 19.0481 10.9629 19.048C11.36 19.0471 11.7568 19.022 12.1509 18.9731C12.9087 19.7191 13.9736 20.0115 15.21 19.9997C16.0746 19.9929 16.9277 19.8468 17.8151 19.6161C18.1619 19.5249 18.919 19.2762 19.5398 19.0117C20.06 18.788 20.4911 18.5554 20.8379 18.282C21.1254 18.0516 21.3602 17.7939 21.5245 17.4607C21.7527 17.0046 21.7938 16.4799 21.6227 15.9871C21.7807 15.6102 21.8217 15.1791 21.6963 14.7024ZM20.8136 15.9547C20.9884 16.2864 20.9996 16.6612 20.8453 17.0102C20.6114 17.5393 20.0304 17.9559 18.9021 18.4033C18.2005 18.6817 17.5579 18.8595 17.5523 18.8612C16.6242 19.1019 15.7849 19.224 15.0583 19.224C13.8552 19.224 12.96 18.8921 12.3922 18.2365C11.4321 18.4 10.4517 18.4055 9.48974 18.2529C8.92133 18.8977 8.03106 19.224 6.83807 19.224C6.1114 19.224 5.27218 19.1019 4.34415 18.8612C4.33839 18.8595 3.69624 18.6817 2.99436 18.4033C1.86601 17.9559 1.28495 17.5395 1.05116 17.0102C0.896871 16.6612 0.908064 16.2864 1.08285 15.9547C1.09907 15.9239 1.11633 15.8938 1.13484 15.8648C1.03007 15.7075 0.959811 15.5297 0.92865 15.3433C0.897499 15.1569 0.90617 14.9659 0.954089 14.783C1.02354 14.5192 1.16706 14.2998 1.36183 14.1421C1.26804 13.988 1.20648 13.8164 1.18087 13.6377C1.1248 13.2492 1.25367 12.8613 1.54384 12.5451C1.76967 12.2989 2.08902 12.1635 2.44269 12.1635H2.4521C2.1855 11.309 2.05031 10.4189 2.05116 9.52384C2.05116 4.64183 6.009 0.68389 10.8915 0.68389C15.7741 0.68389 19.7319 4.64152 19.7319 9.52384C19.7325 10.4213 19.5964 11.3137 19.3282 12.1702C19.3709 12.166 19.4127 12.1638 19.4537 12.1638C19.8073 12.1638 20.1267 12.2991 20.3526 12.5453C20.6425 12.8613 20.7717 13.2496 20.7156 13.6379C20.6899 13.8166 20.6284 13.9883 20.5346 14.1424C20.7294 14.3 20.8729 14.5194 20.9423 14.7833C20.9901 14.9662 20.9988 15.1571 20.9676 15.3436C20.9365 15.53 20.8663 15.7077 20.7616 15.8651C20.7801 15.8938 20.7976 15.9239 20.8136 15.9547Z" fill="white"/>
<path d="M20.7615 15.8647C20.8662 15.7073 20.9363 15.5296 20.9675 15.3432C20.9987 15.1567 20.99 14.9658 20.9422 14.7829C20.8727 14.5191 20.7292 14.2997 20.5345 14.142C20.6282 13.9879 20.6898 13.8163 20.7154 13.6377C20.7715 13.2492 20.6426 12.8612 20.3525 12.545C20.1266 12.2988 19.8072 12.1634 19.4536 12.1634C19.4125 12.1634 19.3708 12.1655 19.3281 12.1698C19.596 11.3133 19.7319 10.4209 19.731 9.52354C19.731 4.64163 15.7732 0.683594 10.8911 0.683594C6.00896 0.683594 2.05071 4.64121 2.05071 9.52354C2.04986 10.4186 2.18505 11.3087 2.45165 12.1632H2.44223C2.08868 12.1632 1.76933 12.2986 1.54349 12.5448C1.25353 12.8608 1.12445 13.249 1.18052 13.6374C1.20612 13.8161 1.26767 13.9877 1.36148 14.1418C1.16671 14.2995 1.0232 14.5189 0.953846 14.7828C0.905959 14.9657 0.897319 15.1567 0.928511 15.3432C0.959704 15.5296 1.03001 15.7074 1.13481 15.8647C1.11608 15.8937 1.09893 15.9238 1.08282 15.9546C0.908135 16.2863 0.896838 16.6611 1.05113 17.0101C1.28491 17.5391 1.86598 17.956 2.99432 18.4032C3.69589 18.6816 4.33846 18.8594 4.34411 18.8611C5.27214 19.1018 6.11137 19.224 6.83794 19.224C8.03103 19.224 8.9212 18.8977 9.48971 18.2528C10.4516 18.4054 11.4321 18.3999 12.3922 18.2364C12.9599 18.892 13.8552 19.224 15.0583 19.224C15.7849 19.224 16.6242 19.1018 17.5522 18.8611C17.5579 18.8594 18.2002 18.6816 18.902 18.4032C20.0304 17.956 20.6115 17.5391 20.8452 17.0101C20.9995 16.6611 20.9883 16.2863 20.8135 15.9546C20.7975 15.9235 20.78 15.8935 20.7615 15.8647ZM9.08291 17.2434C9.03396 17.3291 8.98155 17.4126 8.9257 17.4939C8.77873 17.7091 8.58542 17.8734 8.36116 17.9957C7.93218 18.2295 7.3894 18.3113 6.83783 18.3113C5.9667 18.3113 5.07361 18.1074 4.57298 17.9775C4.5484 17.9711 1.50458 17.1114 1.88993 16.3796C1.95479 16.2566 2.06159 16.2074 2.19589 16.2074C2.73847 16.2074 3.72645 17.0154 4.15113 17.0154C4.2459 17.0154 4.31284 16.9749 4.34014 16.8765C4.5211 16.2274 1.58983 15.9546 1.83669 15.0148C1.88031 14.8485 1.9984 14.7811 2.16462 14.7811C2.88188 14.781 4.49192 16.0425 4.82863 16.0425C4.85447 16.0425 4.87298 16.0349 4.88302 16.019L4.88742 16.0118C5.04537 15.7508 4.95478 15.5611 3.87194 14.8979L3.76796 14.8346C2.57654 14.1134 1.74014 13.6795 2.21587 13.1617C2.27058 13.1019 2.34809 13.0754 2.44234 13.0754C2.55416 13.0754 2.68941 13.1129 2.83836 13.1755C3.46765 13.4409 4.33982 14.1646 4.70415 14.4803C4.81158 14.5738 4.87487 14.631 4.87487 14.631C4.87487 14.631 5.33616 15.1107 5.61514 15.1107C5.67936 15.1107 5.73376 15.0855 5.77068 15.0228C5.96859 14.6893 3.93355 13.1473 3.8188 12.5111C3.74108 12.0799 3.8734 11.8616 4.11828 11.8616C4.23459 11.8616 4.37664 11.9111 4.53344 12.0106C5.01984 12.3194 5.95896 13.9332 6.30279 14.5609C6.41806 14.7713 6.61482 14.8602 6.79212 14.8602C7.1439 14.8602 7.4189 14.5106 6.82434 14.0662C5.93072 13.3975 6.24432 12.3046 6.67078 12.2373C6.68898 12.2345 6.70739 12.2331 6.7257 12.2329C7.11357 12.2329 7.28469 12.9014 7.28469 12.9014C7.28469 12.9014 7.78605 14.1606 8.64745 15.0212C9.42915 15.8025 9.53825 16.4437 9.08291 17.2434ZM11.8684 17.3909L11.8237 17.3962L11.7474 17.405C11.7074 17.4091 11.6673 17.4131 11.6271 17.4168L11.5877 17.4204L11.5519 17.4234L11.501 17.4275C11.4823 17.4289 11.4636 17.4303 11.4448 17.4315L11.3888 17.4352L11.3764 17.436L11.3323 17.4386L11.3136 17.4395L11.2613 17.4421L11.2005 17.4447L11.1453 17.4465L11.1084 17.4476H11.0898C11.0783 17.4476 11.0669 17.4482 11.0554 17.4483H11.0371C11.0256 17.4483 11.0142 17.4483 11.0027 17.4489L10.9559 17.4495H10.8904C10.8391 17.4495 10.7879 17.4489 10.7368 17.448L10.6954 17.4471C10.6836 17.4471 10.6718 17.4464 10.6601 17.4461L10.6163 17.4448L10.5617 17.4427L10.5126 17.4406L10.4999 17.4401L10.4531 17.4375C10.4401 17.4368 10.4272 17.4362 10.4143 17.4353L10.3841 17.4336C10.3461 17.4312 10.3081 17.4284 10.2702 17.4255L10.2304 17.4224L10.1802 17.4181L10.1215 17.4126C10.0888 17.4096 10.056 17.4063 10.0233 17.4026H10.0217C10.4998 16.3362 10.258 15.3403 9.29201 14.375C8.65854 13.7424 8.23699 12.8079 8.14965 12.6028C7.97266 11.9956 7.50415 11.3206 6.72622 11.3206C6.66043 11.3207 6.59484 11.3259 6.52988 11.3362C6.18898 11.3898 5.89108 11.586 5.67853 11.8812C5.44892 11.5955 5.2256 11.3684 5.02371 11.2401C4.71932 11.0472 4.41566 10.9493 4.11964 10.9493C3.75039 10.9493 3.42016 11.1009 3.19004 11.376L3.18428 11.3831L3.17131 11.3286L3.17079 11.3263C3.12702 11.139 3.09026 10.9501 3.06054 10.7601C3.06054 10.7588 3.06054 10.7575 3.05991 10.7563L3.05342 10.7133C3.04992 10.6901 3.0465 10.6667 3.04317 10.6435C3.04045 10.6242 3.03773 10.6048 3.03522 10.5856C3.03271 10.5663 3.02999 10.547 3.02769 10.5276C3.02518 10.5082 3.02288 10.4888 3.02058 10.4695C3.01837 10.451 3.01625 10.4326 3.0142 10.4142L3.01358 10.4095C3.00415 10.3246 2.99606 10.2395 2.9893 10.1544L2.98564 10.1051C2.9846 10.0916 2.98365 10.078 2.98282 10.0643C2.98282 10.0612 2.9824 10.058 2.98219 10.055L2.97875 10.0004C2.97749 9.98065 2.97654 9.96088 2.9755 9.94111C2.97445 9.92145 2.9734 9.90168 2.97257 9.8818L2.97047 9.83002L2.96985 9.81433L2.96828 9.76643L2.96714 9.72584C2.96714 9.70963 2.9664 9.69331 2.96608 9.6771L2.96524 9.62595C2.96504 9.60889 2.96524 9.59195 2.96483 9.5749C2.9643 9.55774 2.96483 9.54069 2.96483 9.52354C2.96483 5.14571 6.51409 1.59645 10.8923 1.59645C15.2706 1.59645 18.8197 5.1455 18.8197 9.52354V9.62595C18.8197 9.64299 18.8193 9.66015 18.8189 9.6771C18.8189 9.69132 18.8184 9.70523 18.8179 9.71946C18.8179 9.73212 18.8174 9.74467 18.8169 9.75691C18.8169 9.77291 18.816 9.78881 18.8154 9.80482V9.80618C18.8141 9.8409 18.8126 9.87563 18.8111 9.91036L18.8105 9.92186L18.8078 9.97375L18.8053 10.0149C18.7994 10.1122 18.7918 10.2096 18.7825 10.3068V10.3082C18.7808 10.3264 18.7789 10.3447 18.7769 10.3629C18.7723 10.4052 18.7676 10.4476 18.7629 10.49L18.7576 10.5325L18.751 10.5825C18.7487 10.6008 18.7462 10.619 18.7436 10.6372C18.7407 10.6576 18.7377 10.6779 18.7348 10.6982L18.7275 10.7461L18.7189 10.8005C18.716 10.8186 18.713 10.8366 18.7096 10.8547C18.706 10.8727 18.7033 10.8907 18.7002 10.9088C18.6939 10.9448 18.6874 10.9807 18.6804 11.0165C18.6665 11.088 18.6519 11.1592 18.6366 11.2303C18.6327 11.248 18.6287 11.2658 18.6246 11.2835C18.4015 11.0666 18.1061 10.9485 17.7802 10.9485C17.4845 10.9485 17.1805 11.0463 16.8762 11.2393C16.6742 11.3676 16.4511 11.5948 16.2213 11.8804C16.0084 11.5851 15.7105 11.389 15.37 11.3354C15.3051 11.3252 15.2394 11.32 15.1736 11.3199C14.3955 11.3199 13.9273 11.9949 13.7502 12.6021C13.6624 12.8072 13.2409 13.7415 12.6067 14.3752C11.6414 15.3373 11.3978 16.3289 11.8684 17.3909ZM20.0525 15.2562L20.0493 15.2655C20.0471 15.2714 20.0449 15.2774 20.0425 15.2833C20.0388 15.2921 20.0348 15.3008 20.0306 15.3095C20.0204 15.3302 20.0089 15.3503 19.9963 15.3696C19.9788 15.3956 19.9597 15.4205 19.9389 15.4439C19.934 15.4494 19.9294 15.4547 19.924 15.46C19.9167 15.4681 19.9088 15.4759 19.9011 15.4838C19.7602 15.6234 19.5456 15.7457 19.3029 15.858C19.2754 15.8705 19.2475 15.8829 19.2193 15.8954L19.1913 15.9078C19.1725 15.9161 19.1539 15.9244 19.1343 15.9324C19.1151 15.9406 19.0959 15.9486 19.0766 15.9566L19.0183 15.9807C18.8817 16.0369 18.7419 16.0904 18.6054 16.1433L18.5471 16.1659L18.4894 16.1885C18.4511 16.2034 18.4132 16.2184 18.3759 16.2334L18.3203 16.2557L18.2658 16.2781L18.239 16.2893C18.2212 16.2969 18.2036 16.3042 18.1862 16.3117C17.7848 16.4839 17.4961 16.6591 17.5567 16.8766C17.5584 16.8827 17.5603 16.8886 17.5624 16.8942C17.5678 16.9103 17.5753 16.9256 17.5845 16.9398C17.5899 16.9484 17.5962 16.9565 17.6032 16.9638C17.6745 17.0379 17.8043 17.0261 17.968 16.9674C17.9813 16.9625 17.9949 16.9574 18.0086 16.952C18.018 16.9484 18.0274 16.9447 18.0368 16.9409L18.0509 16.9349C18.0883 16.919 18.128 16.9014 18.1686 16.882C18.1787 16.8773 18.189 16.8727 18.1992 16.8673C18.3993 16.7694 18.6262 16.6375 18.8513 16.5176C18.8858 16.4988 18.9205 16.481 18.9549 16.4632C19.0111 16.434 19.0679 16.4059 19.1253 16.379C19.3384 16.2788 19.5388 16.2076 19.6999 16.2076C19.7755 16.2076 19.8423 16.2231 19.8979 16.2587L19.9072 16.2648C19.9353 16.2847 19.9598 16.3091 19.9798 16.3371C19.9844 16.3437 19.9892 16.3505 19.9933 16.3575C19.9976 16.3647 20.0018 16.3722 20.0058 16.3797C20.0854 16.5307 20.0188 16.6873 19.8629 16.8408C19.7132 16.9881 19.4804 17.1325 19.2156 17.2663C19.1961 17.2762 19.1763 17.2862 19.1564 17.2958C18.3687 17.6826 17.3373 17.9739 17.3229 17.9776C17.048 18.0488 16.6549 18.1425 16.2121 18.2124L16.1465 18.2226L16.1358 18.2242C16.0354 18.2392 15.9347 18.2525 15.8337 18.264L15.8244 18.2649C15.6409 18.2859 15.4526 18.301 15.264 18.3074H15.2611C15.1934 18.3099 15.1257 18.3111 15.0579 18.3111H14.9799C14.8765 18.3096 14.7733 18.305 14.6702 18.2971C14.6678 18.2971 14.6653 18.2971 14.6628 18.2965C14.626 18.2937 14.5891 18.2903 14.5524 18.2862C14.4892 18.2794 14.4261 18.271 14.3632 18.2612C14.3388 18.2571 14.3126 18.2528 14.2874 18.2484C14.2759 18.2463 14.2645 18.2442 14.2531 18.2419L14.2504 18.2414C14.2141 18.2345 14.178 18.2269 14.142 18.2186C14.1212 18.2139 14.1003 18.2092 14.0797 18.2037L14.0673 18.2004C14.0571 18.1979 14.047 18.1952 14.037 18.1925L14.0314 18.191L13.9991 18.1817C13.9874 18.1783 13.9758 18.1749 13.9641 18.1714L13.9599 18.1702L13.9295 18.1609C13.9179 18.1573 13.9065 18.1535 13.8951 18.1499C13.8857 18.1467 13.8764 18.1435 13.867 18.1405L13.8464 18.1333C13.8265 18.1264 13.8069 18.119 13.7872 18.1115L13.7686 18.1043L13.7532 18.0981C13.7236 18.0862 13.6941 18.0737 13.6649 18.0607L13.6455 18.0514L13.6422 18.0499C13.6353 18.0466 13.6285 18.0434 13.6216 18.0405C13.6081 18.034 13.5947 18.0273 13.5814 18.0205L13.5775 18.0185L13.5582 18.0084C13.524 17.9906 13.4904 17.9715 13.4576 17.9512L13.4396 17.9403C13.4303 17.9346 13.4218 17.9289 13.4129 17.9231L13.3895 17.9075C13.381 17.9019 13.3726 17.8961 13.3643 17.8902L13.3492 17.8795C13.3333 17.8681 13.3177 17.8565 13.3024 17.8444C13.2942 17.8382 13.2861 17.8317 13.2781 17.8257C13.2602 17.8114 13.2427 17.7966 13.2255 17.7815L13.2247 17.7808C13.2079 17.7663 13.1915 17.7512 13.1755 17.7359L13.1746 17.7348C13.1663 17.7269 13.1581 17.7189 13.15 17.7107C13.1419 17.7024 13.1337 17.6942 13.1259 17.686C13.1179 17.6776 13.11 17.6691 13.1023 17.6605C13.0947 17.6523 13.0874 17.644 13.0801 17.6357L13.0776 17.6328C13.0398 17.589 13.0045 17.5431 12.9717 17.4953L12.9587 17.4761C12.9502 17.4635 12.9417 17.4507 12.9333 17.438L12.9086 17.4C12.8965 17.3815 12.8847 17.3628 12.8732 17.3439C12.8649 17.3305 12.8568 17.3171 12.8487 17.3037C12.8419 17.2921 12.8351 17.2807 12.8286 17.2694C12.825 17.2633 12.8215 17.257 12.8181 17.2507C12.8146 17.2442 12.8105 17.2376 12.8069 17.2311L12.801 17.2207C12.799 17.2173 12.7984 17.2162 12.7973 17.2139C12.7902 17.2015 12.7833 17.1888 12.7766 17.1759C12.7736 17.1704 12.7706 17.1647 12.7673 17.1592L12.7579 17.1412L12.7486 17.1233L12.7306 17.087C12.7277 17.0811 12.7249 17.0751 12.722 17.0691C12.7159 17.0563 12.71 17.0436 12.7041 17.031C12.7018 17.0258 12.6994 17.0207 12.6973 17.0156C12.6893 16.9981 12.6817 16.9804 12.6744 16.9625C12.6695 16.9507 12.665 16.939 12.6602 16.9273C12.6467 16.8928 12.6341 16.8579 12.6224 16.8227C12.619 16.8122 12.6155 16.8019 12.6125 16.7914C12.605 16.7677 12.5982 16.7437 12.5921 16.7196C12.5847 16.6914 12.5781 16.663 12.5726 16.6344C12.569 16.6176 12.5659 16.6006 12.5632 16.5836C12.5604 16.5667 12.558 16.5499 12.556 16.5332C12.5517 16.4998 12.5487 16.4663 12.5469 16.4327C12.5469 16.4272 12.5464 16.4215 12.5463 16.416C12.5458 16.4049 12.5455 16.3938 12.5454 16.3827C12.5395 15.9359 12.7658 15.5061 13.2493 15.0227C14.1106 14.1621 14.6121 12.9028 14.6121 12.9028C14.6121 12.9028 14.6256 12.85 14.6537 12.7741C14.6631 12.7488 14.673 12.7237 14.6833 12.699C14.6951 12.6709 14.7078 12.6432 14.7214 12.616L14.7254 12.6081C14.7428 12.5733 14.7618 12.5395 14.7824 12.5066C14.7871 12.499 14.7917 12.4913 14.7971 12.4838C14.8124 12.461 14.8286 12.4389 14.8457 12.4175C14.8588 12.401 14.8729 12.3851 14.8876 12.3701C14.9376 12.3186 14.9946 12.2766 15.0592 12.2541L15.0673 12.2515C15.0728 12.2497 15.0781 12.248 15.0836 12.2464C15.0901 12.2448 15.0966 12.2432 15.1031 12.2418L15.106 12.2413C15.1197 12.2386 15.1334 12.2367 15.1473 12.2358H15.1486C15.1558 12.2358 15.163 12.235 15.1705 12.235C15.189 12.2351 15.2074 12.2366 15.2257 12.2394C15.3033 12.2517 15.3773 12.2979 15.4409 12.3692L15.4494 12.3793C15.4701 12.4036 15.489 12.4295 15.5057 12.4567C15.5183 12.4769 15.5301 12.4981 15.5413 12.5204C15.5458 12.5298 15.5501 12.5384 15.5543 12.5476C15.5564 12.5523 15.5585 12.5569 15.5605 12.5617C15.5647 12.571 15.5686 12.5804 15.5724 12.5903C15.5943 12.6463 15.6113 12.7042 15.6232 12.7632C15.6358 12.8269 15.6432 12.8915 15.6452 12.9565C15.646 12.985 15.646 13.0139 15.6452 13.0432C15.6447 13.0543 15.6442 13.0655 15.6434 13.0767C15.6348 13.201 15.6077 13.3234 15.5629 13.4399C15.5584 13.4514 15.5535 13.4631 15.5489 13.4748C15.5264 13.5286 15.5003 13.5806 15.4708 13.6309C15.4539 13.6595 15.4357 13.688 15.4163 13.7162L15.4043 13.7332C15.3582 13.7976 15.3068 13.8581 15.2505 13.9139C15.195 13.9695 15.1356 14.0208 15.0728 14.0678C15.0097 14.1143 14.9506 14.166 14.896 14.2222C14.7388 14.3872 14.7022 14.5327 14.7375 14.6431C14.7417 14.6555 14.7466 14.6678 14.7523 14.6796C14.7653 14.7052 14.7823 14.7288 14.8026 14.7493L14.8081 14.7548C14.8139 14.7604 14.8199 14.7657 14.8261 14.7708L14.8324 14.7759C14.8477 14.7877 14.8638 14.7981 14.8806 14.8072C14.8854 14.8098 14.8899 14.8124 14.8955 14.815C14.9186 14.8265 14.9427 14.8357 14.9676 14.8427L14.9745 14.8445L14.9838 14.847L14.992 14.849L15.0007 14.8508L15.0094 14.8526L15.0176 14.854C15.0238 14.8551 15.0301 14.8561 15.0363 14.8569L15.0423 14.8577L15.0531 14.8589L15.0598 14.8595L15.0709 14.8604H15.0773L15.0888 14.8609H15.1251L15.1354 14.8604L15.1473 14.8596L15.1619 14.8583L15.1755 14.8566C15.1785 14.8566 15.1816 14.8557 15.1848 14.8552C15.2327 14.8482 15.2793 14.8347 15.3235 14.8151C15.3329 14.8111 15.3422 14.8067 15.3508 14.8021C15.3692 14.7929 15.3871 14.7825 15.4042 14.7711C15.4282 14.7554 15.4508 14.7378 15.472 14.7185L15.4868 14.7045C15.4891 14.7022 15.4915 14.7 15.4937 14.6976C15.5081 14.6832 15.5217 14.6679 15.5344 14.6519C15.5568 14.6236 15.5766 14.5936 15.5939 14.562C15.7986 14.1899 16.0131 13.8231 16.2373 13.4623L16.268 13.4131L16.2991 13.3637C16.3147 13.3388 16.3303 13.3141 16.3459 13.2897L16.3617 13.2652L16.3932 13.2161C16.4354 13.1507 16.4778 13.0861 16.5205 13.0221L16.5524 12.9744C16.6164 12.8796 16.6803 12.7873 16.7435 12.6996L16.7751 12.6563C16.8438 12.5613 16.9154 12.4685 16.9898 12.3779L17.0194 12.3426C17.0242 12.3366 17.0287 12.3309 17.0341 12.3251L17.063 12.2915C17.0678 12.286 17.0724 12.2805 17.0775 12.2752L17.1055 12.2435L17.1196 12.2282C17.1332 12.2135 17.147 12.199 17.161 12.1845C17.1705 12.1752 17.1791 12.1658 17.1882 12.1571C17.2413 12.1028 17.2997 12.0542 17.3628 12.012L17.3774 12.0027L17.3921 11.9933C17.4015 11.9874 17.411 11.9818 17.4208 11.9765C17.668 11.8362 17.8729 11.8258 17.9906 11.9436C18.0621 12.0151 18.1015 12.1334 18.0994 12.2979C18.0994 12.3052 18.0994 12.3124 18.0988 12.32V12.3281C18.0988 12.3356 18.0982 12.3432 18.0976 12.3508C18.0976 12.3601 18.0965 12.3696 18.0956 12.3789C18.0946 12.3883 18.0942 12.3954 18.0933 12.4037C18.0933 12.4061 18.0927 12.4085 18.0924 12.4109C18.0917 12.4182 18.0907 12.4256 18.0898 12.433C18.0898 12.4353 18.0898 12.4374 18.0889 12.4397C18.0878 12.4497 18.0864 12.4596 18.0846 12.4695C18.0834 12.4786 18.082 12.4877 18.0802 12.4968C18.0794 12.502 18.0784 12.5071 18.0776 12.5123C18.0748 12.5272 18.0713 12.5419 18.067 12.5564C18.0589 12.5834 18.0491 12.6098 18.0375 12.6356C18.0325 12.6468 18.0271 12.6579 18.0217 12.6689C18.0104 12.6916 17.9976 12.7149 17.9836 12.7389C17.9766 12.7507 17.9694 12.763 17.9617 12.7752L17.9499 12.7938C17.938 12.8126 17.9256 12.8315 17.9126 12.8506C17.8996 12.8698 17.8857 12.8893 17.8708 12.9091C17.8514 12.9355 17.831 12.9623 17.8095 12.9895L17.7931 13.0101C17.747 13.0676 17.6997 13.1241 17.6514 13.1796L17.613 13.223L17.5935 13.245C17.5668 13.2748 17.54 13.3044 17.513 13.3338L17.4923 13.3562C17.4786 13.371 17.4643 13.3861 17.4506 13.401C17.4366 13.4162 17.4223 13.4313 17.4081 13.4463L17.365 13.4917L17.3214 13.5372C17.3069 13.5524 17.2922 13.5678 17.2775 13.5829L17.1887 13.6745C16.7645 14.1095 16.3175 14.5431 16.1663 14.8134C16.1562 14.8311 16.1471 14.8492 16.1389 14.8677C16.1174 14.9168 16.1084 14.9589 16.1145 14.9929C16.1165 15.0041 16.1205 15.0148 16.1262 15.0246C16.1348 15.0393 16.1451 15.0529 16.1571 15.0651C16.1626 15.0705 16.1684 15.0756 16.1746 15.0802C16.2057 15.1024 16.2434 15.1138 16.2815 15.1127H16.2935L16.3057 15.1118L16.318 15.1104L16.3282 15.1089C16.3296 15.1088 16.3309 15.1085 16.3323 15.1082L16.3416 15.1064L16.3441 15.1057L16.3543 15.1036L16.358 15.1026L16.369 15.0998L16.3821 15.0959C16.3906 15.0933 16.3992 15.0904 16.408 15.0871C16.4269 15.0804 16.4455 15.0727 16.4636 15.064C16.4682 15.0618 16.4729 15.0597 16.4774 15.0573L16.4913 15.0504C16.5095 15.0412 16.5276 15.0313 16.5458 15.0205C16.5603 15.0119 16.5747 15.0031 16.5892 14.9938L16.6032 14.9845C16.6078 14.9816 16.6125 14.9786 16.6171 14.9751L16.631 14.9658L16.6383 14.9607L16.6584 14.9466C16.6771 14.9337 16.6946 14.9204 16.7124 14.9069L16.714 14.9057L16.742 14.884C16.7804 14.8537 16.8169 14.8231 16.8498 14.7943L16.8718 14.775L16.8739 14.7731L16.8853 14.763C16.9123 14.7388 16.9364 14.7162 16.9564 14.6975L16.9646 14.6895L16.9844 14.6708L16.9962 14.6593L17.0003 14.6551L17.0014 14.654C17.0115 14.6439 17.0115 14.6439 17.0215 14.6338L17.0223 14.6329L17.0261 14.6296C17.0273 14.6283 17.0288 14.6271 17.0306 14.6255L17.0321 14.6242L17.036 14.6206L17.0573 14.6019L17.0692 14.5911C17.0751 14.5861 17.0814 14.5803 17.0879 14.5742L17.1023 14.5616C17.1048 14.5595 17.1073 14.5571 17.1099 14.5548L17.1248 14.5417L17.1469 14.5225L17.1585 14.5123C17.204 14.4727 17.2595 14.4249 17.323 14.371L17.349 14.3491L17.3921 14.313L17.436 14.2761C17.4936 14.2284 17.5555 14.1777 17.621 14.125L17.664 14.0905C17.7006 14.0614 17.7382 14.0316 17.7763 14.0017C17.7916 13.9896 17.8072 13.9776 17.8231 13.9657C17.8621 13.9356 17.9013 13.9055 17.9406 13.8759C18.0304 13.8082 18.123 13.7403 18.2166 13.6741L18.2569 13.6461C18.2849 13.6267 18.3129 13.6073 18.3411 13.5884L18.3665 13.5711C18.4168 13.5372 18.4675 13.5041 18.5187 13.4717L18.5441 13.4556L18.5693 13.44C18.5945 13.4244 18.6197 13.4089 18.6446 13.3939L18.6696 13.3791L18.7197 13.3499C18.7361 13.3404 18.7525 13.3311 18.7688 13.3219L18.7786 13.3163L18.8175 13.2951C18.8336 13.2863 18.8498 13.2778 18.8658 13.2696L18.8899 13.2572L18.9131 13.2454C18.9663 13.2187 19.0203 13.194 19.0754 13.1714C19.0829 13.1683 19.0903 13.1653 19.0978 13.162C19.1125 13.1559 19.1271 13.1502 19.1417 13.1452C19.1562 13.1403 19.1706 13.1351 19.1847 13.1301C19.1975 13.1258 19.21 13.1219 19.2221 13.1181L19.2262 13.1168C19.2327 13.1149 19.2392 13.113 19.2457 13.1113L19.2475 13.1108C19.2607 13.107 19.2739 13.1036 19.2872 13.1004H19.2882C19.3078 13.0957 19.3268 13.0917 19.3454 13.0886C19.3518 13.0876 19.3581 13.0865 19.3642 13.0857C19.3823 13.0829 19.4005 13.0811 19.4187 13.0798C19.4302 13.079 19.4418 13.0787 19.4533 13.0787H19.4621C19.4738 13.0787 19.4851 13.0794 19.4963 13.0805C19.5014 13.0805 19.5065 13.0815 19.5116 13.0822H19.5137C19.5187 13.0827 19.5238 13.0836 19.5287 13.0846C19.5336 13.0857 19.5387 13.0864 19.5435 13.0876H19.5451C19.5499 13.0886 19.5544 13.09 19.5595 13.0913C19.5994 13.1021 19.6361 13.1224 19.6666 13.1504L19.6693 13.1531L19.6746 13.1584L19.6799 13.1639C19.7218 13.2081 19.7565 13.2586 19.7827 13.3136L19.7868 13.3229C19.7957 13.3438 19.8027 13.3655 19.8076 13.3877C19.8212 13.4495 19.8175 13.5139 19.7969 13.5737C19.788 13.5998 19.7771 13.6251 19.7643 13.6494L19.7557 13.6649C19.7231 13.7196 19.6846 13.7705 19.6407 13.8167L19.6313 13.8267C19.6107 13.8485 19.5893 13.8698 19.5672 13.8902C19.5602 13.8968 19.553 13.9033 19.5457 13.9099L19.5346 13.92C19.5116 13.9404 19.488 13.9602 19.4642 13.9797C19.46 13.9831 19.4557 13.9864 19.4516 13.99C19.435 14.0033 19.4178 14.0169 19.4001 14.0305C19.3388 14.0774 19.2763 14.1226 19.2127 14.1662C19.1753 14.1918 19.1366 14.2177 19.0966 14.2439C19.0221 14.2928 18.9471 14.3406 18.8714 14.3874C18.8495 14.4009 18.8276 14.4146 18.8052 14.4282C18.5994 14.5548 18.3713 14.6902 18.128 14.8373L18.065 14.8756C17.9961 14.9177 17.931 14.9578 17.8698 14.996L17.839 15.0155L17.7806 15.0529C17.7575 15.0676 17.735 15.082 17.7131 15.0962C17.6966 15.1068 17.6805 15.1173 17.6647 15.1276L17.6335 15.1481C17.6184 15.1581 17.6033 15.168 17.5882 15.1781L17.5736 15.1874C17.5581 15.1978 17.543 15.2079 17.5284 15.218L17.5044 15.2343L17.4763 15.2539L17.4504 15.272C17.4094 15.3007 17.3689 15.3301 17.3287 15.36L17.3147 15.3707C17.2989 15.3826 17.2836 15.3946 17.2689 15.4062L17.2496 15.4215C17.2172 15.4476 17.1878 15.4726 17.1612 15.4964L17.1483 15.5084C17.1409 15.5152 17.1335 15.522 17.1266 15.5287C17.1217 15.5333 17.1172 15.538 17.1123 15.5426L17.1055 15.5493C17.0905 15.5642 17.076 15.5796 17.0619 15.5954L17.055 15.6033C17.0396 15.6211 17.0262 15.6382 17.0144 15.6548L17.0092 15.6623C16.9956 15.6822 16.9835 15.7032 16.9733 15.7251L16.9697 15.7327L16.9675 15.7381L16.9657 15.7427L16.9633 15.7491C16.9626 15.7513 16.9611 15.7551 16.9603 15.7585C16.956 15.7709 16.9529 15.7838 16.9508 15.7969L16.9497 15.8039L16.9489 15.8102L16.9484 15.8164V15.8493C16.9484 15.852 16.9484 15.8548 16.949 15.8576C16.9491 15.8593 16.9493 15.861 16.9495 15.8627C16.9495 15.8654 16.9503 15.8681 16.9506 15.8709L16.9526 15.8824V15.8829C16.9533 15.8866 16.954 15.8903 16.955 15.8939C16.9559 15.8976 16.9569 15.9017 16.958 15.9055C16.9614 15.9174 16.9654 15.9291 16.9701 15.9405C16.9701 15.9413 16.9709 15.9423 16.9712 15.9431C16.9724 15.9459 16.9736 15.9488 16.975 15.9517C16.9801 15.9636 16.9858 15.9752 16.9921 15.9866L16.9987 15.9984L17.0056 16.0104L17.0128 16.0223C17.0141 16.0243 17.0154 16.026 17.017 16.0278L17.0194 16.0303L17.0219 16.0326L17.0247 16.0348C17.0266 16.0362 17.0286 16.0373 17.0307 16.0385C17.0328 16.0394 17.0351 16.0405 17.0374 16.0413C17.0399 16.0421 17.0424 16.0429 17.0449 16.0435C17.1053 16.0571 17.2293 16.0071 17.3941 15.9201L17.4237 15.9044L17.4738 15.8771L17.4984 15.8635C17.5157 15.8541 17.5336 15.8436 17.5517 15.8333L17.5849 15.8145C17.8028 15.6891 18.0631 15.5279 18.3322 15.3706C18.3573 15.3559 18.3826 15.3412 18.4079 15.3266L18.4587 15.2941C18.4842 15.2795 18.5095 15.2651 18.5349 15.2508C18.643 15.1893 18.7527 15.1302 18.8634 15.0736L18.9131 15.0484C18.9462 15.0321 18.9789 15.0162 19.0112 15.0007C19.0739 14.971 19.1372 14.9429 19.2011 14.9162L19.2361 14.902L19.2404 14.9003C19.426 14.8268 19.5943 14.7813 19.7305 14.7813C19.76 14.7811 19.7894 14.7835 19.8185 14.7885H19.8193C19.8287 14.7902 19.8372 14.792 19.8458 14.7942H19.8473C19.8599 14.7973 19.8722 14.8011 19.8842 14.806C19.8937 14.8094 19.9029 14.8135 19.9118 14.8183C19.9508 14.8381 19.9841 14.8673 20.009 14.9032C20.0111 14.9063 20.0131 14.9094 20.015 14.9127C20.0242 14.9267 20.0322 14.9414 20.0386 14.9569C20.0425 14.9658 20.0461 14.975 20.0494 14.9849C20.0528 14.995 20.0557 15.0046 20.0587 15.015C20.0809 15.0942 20.0787 15.1781 20.0525 15.2562Z" fill="#FF9D00"/>
<path fill-rule="evenodd" clip-rule="evenodd" d="M18.8166 9.57501V9.52376C18.8166 5.14573 15.2687 1.59668 10.8903 1.59668C6.51219 1.59668 2.96294 5.14594 2.96294 9.52376L2.96283 9.54092C2.96273 9.55232 2.96262 9.56361 2.96283 9.57501C2.96334 9.59206 2.96351 9.60912 2.96336 9.62617L2.96398 9.66382L2.96419 9.67742L2.96472 9.69604C2.96493 9.70608 2.96524 9.71602 2.96524 9.72606L2.96629 9.76675L2.96796 9.81455L2.96848 9.83024L2.97057 9.87972V9.88202L2.9735 9.93987V9.94133C2.97455 9.9611 2.9756 9.98087 2.97685 10.0005C2.9779 10.0188 2.97905 10.037 2.9803 10.0552L2.98062 10.0585C2.98154 10.0741 2.98258 10.0898 2.98375 10.1053L2.98407 10.1094C2.98511 10.1245 2.98627 10.1397 2.98752 10.1546L2.98773 10.1575L2.98982 10.1837C2.99609 10.2591 3.00341 10.3345 3.01179 10.4097L3.01231 10.4144L3.01859 10.4697L3.0258 10.5278C3.03065 10.5665 3.03582 10.6051 3.04129 10.6437C3.04455 10.6671 3.04794 10.6903 3.05143 10.7135L3.05196 10.7163C3.05977 10.7688 3.0682 10.8214 3.07727 10.8737C3.10328 11.0254 3.13384 11.1765 3.1689 11.3265L3.16942 11.3289L3.17277 11.343C3.17591 11.3564 3.17905 11.3698 3.18239 11.3833L3.18815 11.3763C3.41827 11.1012 3.7484 10.9495 4.11775 10.9495C4.41377 10.9495 4.71754 11.0473 5.02183 11.2403C5.22371 11.3685 5.44693 11.5957 5.67664 11.8814C5.88919 11.5861 6.18709 11.39 6.52788 11.3364C6.59294 11.3262 6.65863 11.3209 6.72432 11.3208C7.50225 11.3208 7.97077 11.9959 8.14775 12.603C8.2351 12.8083 8.65664 13.7425 9.29221 14.3745C10.2582 15.3396 10.4999 16.3357 10.0219 17.4021H10.0235C10.0561 17.4057 10.0889 17.409 10.1217 17.412C10.1413 17.4139 10.1608 17.4158 10.1804 17.4175L10.1873 17.4181C10.2016 17.4195 10.2161 17.4207 10.2305 17.4218L10.2702 17.425C10.3081 17.4279 10.3461 17.4305 10.3843 17.4331L10.4144 17.4348L10.4383 17.4362L10.4533 17.437L10.4999 17.4395L10.5127 17.4401L10.5619 17.4422L10.6164 17.4442L10.6603 17.4455L10.6676 17.4458C10.6768 17.4461 10.6862 17.4466 10.6956 17.4466L10.7055 17.4468C10.7672 17.4482 10.8288 17.449 10.8905 17.449H10.956L11.0029 17.4484C11.0144 17.4478 11.0258 17.4478 11.0373 17.4478H11.0555L11.0713 17.4475C11.0775 17.4473 11.0837 17.4471 11.0899 17.4471H11.1086L11.1453 17.446L11.2006 17.4441L11.2615 17.4415C11.2789 17.4408 11.2963 17.44 11.3138 17.439L11.3325 17.438L11.3602 17.4364L11.3766 17.4355L11.3889 17.4347L11.445 17.431C11.4638 17.4298 11.4825 17.4284 11.5012 17.4269L11.552 17.4229L11.5879 17.4199L11.6271 17.4163C11.6674 17.4126 11.7076 17.4086 11.7475 17.4044C11.7731 17.4016 11.7984 17.3987 11.8238 17.3957L11.8685 17.3904C11.3979 16.3284 11.6415 15.3368 12.6036 14.3754C13.2377 13.7418 13.6593 12.8074 13.7471 12.6023C13.9242 11.9951 14.3923 11.3201 15.1704 11.3201C15.2362 11.3202 15.3019 11.3253 15.3669 11.3357C15.7074 11.3892 16.0054 11.5855 16.2182 11.8807C16.4481 11.595 16.6712 11.3678 16.8731 11.2396C17.1773 11.0466 17.4813 10.9488 17.777 10.9488C18.103 10.9488 18.3985 11.067 18.6216 11.2837C18.6338 11.2291 18.6456 11.1745 18.6569 11.1197C18.6638 11.0855 18.6706 11.0512 18.6773 11.0167C18.6855 10.9745 18.6932 10.932 18.7004 10.8896C18.7022 10.878 18.7042 10.8665 18.7064 10.8549C18.7099 10.8368 18.7129 10.8189 18.7157 10.8007L18.7169 10.7938L18.7243 10.7465L18.7316 10.6984L18.7317 10.6979C18.7347 10.6778 18.7377 10.6576 18.7404 10.6375C18.7426 10.6222 18.7447 10.6069 18.7467 10.5915L18.7479 10.5828L18.7544 10.5328L18.7598 10.4902C18.763 10.4621 18.7661 10.4341 18.7692 10.406C18.7705 10.3948 18.7717 10.3835 18.7728 10.3722L18.7739 10.3631C18.7759 10.3444 18.7777 10.3257 18.7793 10.307L18.7835 10.2635C18.7922 10.1671 18.7992 10.0706 18.8046 9.97397V9.97334L18.8075 9.92209L18.808 9.91058L18.8101 9.86194C18.8109 9.84363 18.8116 9.82512 18.8123 9.8064V9.80504L18.8128 9.79154C18.8133 9.78004 18.8137 9.76853 18.8137 9.75713L18.8139 9.75242C18.8144 9.74175 18.8148 9.73066 18.8148 9.71968L18.8151 9.71027C18.8154 9.69928 18.8157 9.6884 18.8157 9.67742L18.8159 9.66811C18.8162 9.65409 18.8166 9.64018 18.8166 9.62617V9.57501ZM8.92422 17.4941C9.55193 16.5734 9.50748 15.8824 8.64608 15.0216C7.78468 14.1607 7.28332 12.9017 7.28332 12.9017C7.28332 12.9017 7.09619 12.1703 6.66941 12.2376C6.24263 12.3047 5.92957 13.3975 6.82307 14.0664C7.71658 14.7354 6.64535 15.1889 6.30142 14.5612C5.95739 13.9334 5.01848 12.3197 4.53156 12.011C4.04474 11.7023 3.70237 11.8753 3.81712 12.5115C3.87413 12.8273 4.40425 13.3662 4.89955 13.8698C5.40206 14.3808 5.86869 14.8551 5.769 15.023C5.57099 15.3565 4.87361 14.6313 4.87361 14.6313C4.87361 14.6313 2.68993 12.6442 2.21451 13.162C1.77633 13.6393 2.45206 14.0451 3.49348 14.6704C3.58208 14.7236 3.67329 14.7785 3.7667 14.8349C4.95812 15.5563 5.0508 15.7466 4.88176 16.0195C4.81932 16.1203 4.42047 15.8809 3.92988 15.5863C3.09359 15.0842 1.99076 14.4222 1.83512 15.0148C1.70028 15.5276 2.51158 15.8418 3.24735 16.1269C3.86032 16.3643 4.42099 16.5815 4.33856 16.8763C4.2531 17.1818 3.78982 16.927 3.28334 16.6483C2.71482 16.3355 2.09192 15.9927 1.88815 16.3795C1.50279 17.1107 4.5461 17.9714 4.57109 17.9777C5.55436 18.2327 8.05141 18.7731 8.92422 17.4941ZM12.9686 17.4941C12.3407 16.5734 12.3853 15.8824 13.2467 15.0216C14.1081 14.1607 14.6096 12.9017 14.6096 12.9017C14.6096 12.9017 14.7966 12.1703 15.2234 12.2376C15.6501 12.3047 15.9633 13.3975 15.0697 14.0664C14.1761 14.7354 15.2474 15.1889 15.5915 14.5612C15.9354 13.9334 16.8739 12.3197 17.3607 12.011C17.8475 11.7023 18.19 11.8753 18.0752 12.5115C18.0182 12.8273 17.4881 13.3663 16.9927 13.8699C16.4903 14.3808 16.0237 14.8551 16.1234 15.023C16.3213 15.3565 17.0193 14.6309 17.0193 14.6309C17.0193 14.6309 19.2029 12.6437 19.6783 13.1616C20.1165 13.6389 19.4406 14.0448 18.3992 14.6702C18.3106 14.7233 18.2195 14.778 18.1261 14.8346C16.9346 15.5559 16.842 15.7462 17.011 16.019C17.0735 16.1199 17.4723 15.8804 17.9628 15.586C18.7992 15.0839 19.902 14.4218 20.0577 15.0143C20.1925 15.5272 19.3812 15.8415 18.6453 16.1266C18.0324 16.364 17.4718 16.5811 17.5541 16.8759C17.6396 17.1815 18.1027 16.9266 18.6089 16.6479C19.1774 16.335 19.8005 15.9922 20.0043 16.3791C20.3897 17.1108 17.346 17.9706 17.3213 17.977C16.338 18.2327 13.8409 18.7731 12.9686 17.4941Z" fill="#FFD21E"/>
<path fill-rule="evenodd" clip-rule="evenodd" d="M13.4681 7.36629C13.5916 7.41002 13.6836 7.54317 13.771 7.66974C13.8892 7.84098 13.9992 8.00018 14.1681 7.91043C14.3673 7.80457 14.5306 7.64202 14.6374 7.44328C14.7442 7.24459 14.7896 7.01867 14.768 6.79412C14.7519 6.62622 14.6987 6.46397 14.6123 6.3191C14.5259 6.17421 14.4084 6.0503 14.2685 5.95627C14.1284 5.86226 13.9692 5.80048 13.8025 5.77538C13.6356 5.75029 13.4654 5.76252 13.3038 5.81117C13.0878 5.87622 12.896 6.00383 12.7525 6.17787C12.6091 6.35191 12.5204 6.56458 12.4977 6.78899C12.4751 7.01346 12.5195 7.23958 12.6254 7.43878C12.7036 7.58596 12.8773 7.51661 13.0605 7.44328C13.2043 7.38585 13.3538 7.32602 13.4681 7.36629ZM8.09402 7.3664C7.97049 7.41012 7.87844 7.54328 7.79099 7.66985C7.67279 7.84098 7.56275 8.00029 7.39392 7.91054C7.24507 7.83135 7.11568 7.72006 7.01494 7.58481C6.91421 7.44955 6.84476 7.2937 6.81149 7.12834C6.77823 6.96302 6.78199 6.79239 6.82258 6.62872C6.86327 6.46505 6.93963 6.3124 7.04622 6.18177C7.15302 6.05122 7.28733 5.94595 7.43963 5.87353C7.59193 5.80112 7.75846 5.76338 7.92708 5.763C8.0957 5.76263 8.26233 5.79965 8.41494 5.87139C8.56756 5.94314 8.70239 6.04782 8.80971 6.1779C8.95322 6.35194 9.04193 6.56465 9.06463 6.78912C9.08722 7.01358 9.04276 7.23971 8.9368 7.43889C8.85835 7.58606 8.68471 7.51661 8.50145 7.44328C8.35783 7.38585 8.20825 7.32602 8.09402 7.3664ZM12.6367 12.2567C13.4885 11.5855 13.8013 10.49 13.8013 9.81514C13.8013 9.28167 13.4423 9.44955 12.8678 9.73397L12.8354 9.75008C12.3079 10.0113 11.6058 10.359 10.8351 10.359C10.0643 10.359 9.36222 10.0112 8.83492 9.74997C8.24172 9.45614 7.86965 9.27183 7.86965 9.81524C7.86965 10.5114 8.20249 11.6546 9.1162 12.3188C9.2367 12.074 9.40636 11.8568 9.61473 11.6806C9.82299 11.5045 10.0655 11.3733 10.3269 11.2952C10.4181 11.268 10.512 11.425 10.6082 11.5856C10.701 11.7408 10.7958 11.8993 10.8923 11.8993C10.9951 11.8993 11.0961 11.7431 11.1947 11.5904C11.2978 11.431 11.3982 11.2756 11.4954 11.3067C11.9845 11.4637 12.3936 11.8042 12.6367 12.2567Z" fill="#32343D"/>
<path d="M12.6335 12.2566C12.1898 12.6062 11.6002 12.8406 10.8324 12.8406C10.111 12.8406 9.54665 12.6337 9.11328 12.3187C9.23389 12.0741 9.40366 11.8568 9.61192 11.6808C9.82018 11.5046 10.0627 11.3733 10.3239 11.2951C10.5031 11.2416 10.6929 11.8993 10.8893 11.8993C11.0997 11.8993 11.3023 11.2458 11.4925 11.3066C11.9814 11.4637 12.3904 11.8042 12.6335 12.2566Z" fill="#FF323D"/>
<path fill-rule="evenodd" clip-rule="evenodd" d="M6.05381 8.31454C5.97286 8.36904 5.88196 8.40701 5.78633 8.42626C5.69068 8.4455 5.59217 8.44571 5.49645 8.42688C5.40073 8.40795 5.30967 8.3704 5.2285 8.31632C5.14733 8.26214 5.07765 8.19257 5.02343 8.1114C4.96921 8.03034 4.93155 7.93923 4.91258 7.84362C4.89362 7.74791 4.89372 7.64938 4.9129 7.55366C4.93207 7.45806 4.96995 7.36716 5.02433 7.28609C5.07872 7.20511 5.14857 7.13564 5.22985 7.08169C5.39335 6.97318 5.59319 6.93391 5.78558 6.97247C5.97798 7.01104 6.14725 7.1243 6.2563 7.28745C6.3653 7.45063 6.40526 7.65032 6.36729 7.84279C6.32932 8.03536 6.21656 8.20502 6.05381 8.31454ZM16.6617 8.31454C16.5808 8.36904 16.4899 8.40701 16.3943 8.42626C16.2987 8.4455 16.2001 8.44571 16.1044 8.42688C16.0087 8.40795 15.9176 8.3704 15.8364 8.31632C15.7552 8.26214 15.6856 8.19257 15.6314 8.1114C15.5771 8.03034 15.5395 7.93923 15.5205 7.84362C15.5016 7.74791 15.5017 7.64938 15.5208 7.55366C15.54 7.45806 15.5778 7.36716 15.6322 7.28609C15.6866 7.20511 15.7565 7.13564 15.8378 7.08169C16.0013 6.97318 16.2012 6.93391 16.3935 6.97247C16.5859 7.01104 16.7551 7.1243 16.8642 7.28745C16.9732 7.45063 17.0132 7.65032 16.9752 7.84279C16.9373 8.03536 16.8245 8.20502 16.6617 8.31454Z" fill="#FFAD03"/>
</svg>
