<svg xmlns="http://www.w3.org/2000/svg" width="20" height="20" fill="none" stroke-width="0"><g fill="currentColor" clip-path="url(#a)"><path d="M2.485 11.85q0 .915-.461 1.402T.7 13.738q-.205 0-.37-.011A2.4 2.4 0 0 1 0 13.68L.058 12.5l.152.031q.067.015.245.015.262 0 .388-.142.125-.14.125-.437v-4.3q0-.903.478-1.384.48-.48 1.377-.48a3 3 0 0 1 .711.092L3.43 7.041a2 2 0 0 0-.233-.026 4 4 0 0 0-.286-.009q-.218 0-.323.105-.102.1-.102.318zM9.064 6.068V12H7.711L5.553 8.883h-.035V12H3.897V6.068h1.376l2.123 3.105h.047V6.068zM14.999 6.068V12h-1.354l-2.157-3.117h-.035V12H9.83V6.068h1.377l2.123 3.105h.046V6.068zM19.883 9h-1.481a.4.4 0 0 0-.096-.235.54.54 0 0 0-.219-.15.8.8 0 0 0-.292-.056.8.8 0 0 0-.356.075q-.148.075-.145.215a.24.24 0 0 0 .084.182q.09.084.347.13l.91.163q.688.124 1.024.42.338.293.341.785a1.3 1.3 0 0 1-.286.825 1.8 1.8 0 0 1-.767.54 3 3 0 0 1-1.105.188q-1.026 0-1.607-.418a1.49 1.49 0 0 1-.644-1.1h1.598q.032.21.21.327.18.113.455.113.222 0 .364-.075.146-.075.149-.215-.003-.127-.128-.202-.123-.075-.385-.122l-.794-.14q-.685-.117-1.026-.451-.34-.333-.338-.857-.003-.465.245-.785.25-.325.714-.493.467-.17 1.105-.17.972 0 1.531.399.564.4.592 1.106"/></g><defs><clipPath id="a"><path fill="#fff" d="M0 5.801h20v7.941H0z"/></clipPath></defs></svg>