<svg xmlns="http://www.w3.org/2000/svg" width="15" height="6" fill="none"><g fill="#00C7FD" clip-path="url(#a)"><path d="M1.66.426H.665v.993h.993zM1.635 5.602V2.02H.69v3.578h.944zm6.25.035V4.76c-.138 0-.254-.007-.339-.021a.4.4 0 0 1-.223-.1.4.4 0 0 1-.099-.215 2 2 0 0 1-.021-.346V2.83h.682v-.81h-.682V.627h-.944v3.461q0 .441.074.74.076.292.251.473.177.18.46.258.286.079.718.078zm5.402-.035V.352h-.944v5.25zM5.351 2.374q-.395-.424-1.096-.424-.341 0-.62.137-.28.139-.47.382l-.049.067V2.02h-.93v3.578h.937V3.692v.131-.063q.014-.504.248-.743a.8.8 0 0 1 .597-.254q.41.002.619.247c.134.163.205.393.205.686v1.902h.95v-2.03c.004-.508-.13-.911-.391-1.194m6.505 1.432a2 2 0 0 0-.135-.725 2 2 0 0 0-.378-.59q-.244-.254-.583-.397a1.9 1.9 0 0 0-.75-.14 1.86 1.86 0 0 0-1.319.54 1.84 1.84 0 0 0-.54 1.319q0 .388.137.728.14.34.386.59c.162.167.364.3.597.396q.353.15.767.149c.8 0 1.294-.364 1.591-.704l-.678-.516c-.142.17-.481.4-.905.4q-.4.001-.651-.184a.9.9 0 0 1-.34-.499l-.01-.032h2.81zm-2.804-.33c0-.26.3-.717.947-.72.647 0 .951.456.951.717zm5.31 1.673a.3.3 0 0 0-.074-.11.352.352 0 0 0-.244-.103q-.073.001-.134.03a.3.3 0 0 0-.11.073.351.351 0 0 0-.103.244c0 .05.011.092.029.135a.3.3 0 0 0 .074.11.352.352 0 0 0 .244.103q.073-.002.134-.03a.3.3 0 0 0 .11-.074.351.351 0 0 0 .102-.244.4.4 0 0 0-.028-.134m-.056.248a.3.3 0 0 1-.06.091.293.293 0 0 1-.205.081.3.3 0 0 1-.114-.02.275.275 0 0 1-.173-.266q0-.059.021-.113a.275.275 0 0 1 .265-.173q.06 0 .114.021a.3.3 0 0 1 .091.06.294.294 0 0 1 .081.205.3.3 0 0 1-.02.114m-.198-.082a.1.1 0 0 0 .067-.032.1.1 0 0 0 .028-.077q.001-.059-.035-.089c-.021-.021-.06-.032-.106-.032h-.156v.4h.074v-.163h.053l.1.163h.077zm-.04-.06h-.088v-.113h.089q.015 0 .031.007.016.006.022.018.009.01.007.032a.1.1 0 0 1-.007.031.1.1 0 0 1-.021.018q-.017.006-.032.007"/></g><defs><clipPath id="a"><path fill="#fff" d="M.5.242h13.979v5.512H.5z"/></clipPath></defs></svg>