<svg width="20" height="20" viewBox="0 0 20 20" fill="none" xmlns="http://www.w3.org/2000/svg">
<g clip-path="url(#clip0_13273_4564)">
<path d="M10.311 15.2896C7.05386 15.2896 4.19114 14.1206 2.71094 12.3943C3.28526 13.9473 4.32157 15.2871 5.68036 16.2333C7.03915 17.1796 8.65525 17.6868 10.311 17.6868C11.9668 17.6868 13.5829 17.1796 14.9417 16.2333C16.3005 15.2871 17.3368 13.9473 17.9111 12.3943C16.4346 14.1206 13.5827 15.2896 10.311 15.2896Z" fill="currentColor"/>
<path d="M10.311 4.064C13.5682 4.064 16.4309 5.23297 17.9111 6.95927C17.3368 5.40627 16.3005 4.06648 14.9417 3.12024C13.5829 2.174 11.9668 1.66675 10.311 1.66675C8.65525 1.66675 7.03915 2.174 5.68036 3.12024C4.32157 4.06648 3.28526 5.40627 2.71094 6.95927C4.19114 5.22935 7.03939 4.064 10.311 4.064Z" fill="currentColor"/>
</g>
<defs>
<clipPath id="clip0_13273_4564">
<rect width="16.6667" height="16.6667" fill="white" transform="translate(1.66797 1.66675)"/>
</clipPath>
</defs>
</svg>
