<svg width="12" height="16" viewBox="0 0 12 16" fill="none" xmlns="http://www.w3.org/2000/svg">
<path fill-rule="evenodd" clip-rule="evenodd" d="M8.23133 1.48147C8.33326 1.72816 8.37558 2.02331 8.37558 2.34221V6.64221H9.93558C10.465 6.64221 11.0361 6.80416 11.2663 7.31391C11.4966 7.82388 11.2398 8.35841 10.8904 8.75318C10.8902 8.75336 10.89 8.75354 10.8899 8.75372L5.84422 14.4859C5.63354 14.7251 5.40673 14.9187 5.16747 15.0367C4.92609 15.1557 4.63304 15.2144 4.34234 15.1053C4.05136 14.9961 3.86943 14.7587 3.76649 14.5096C3.66456 14.2629 3.62224 13.9678 3.62224 13.6489V9.34887H2.06224C1.53658 9.34887 0.967336 9.18884 0.736836 8.68028C0.506841 8.17283 0.759692 7.63857 1.10463 7.24114L1.10692 7.2385L6.1536 1.50518C6.36428 1.26602 6.59109 1.07241 6.83035 0.954407C7.07173 0.835358 7.36478 0.776639 7.65548 0.885776C7.94646 0.995016 8.12839 1.23236 8.23133 1.48147ZM6.90422 2.1659C7.06348 1.98516 7.19008 1.892 7.27268 1.85126C7.28175 1.84678 7.28977 1.84317 7.29679 1.84025C7.29998 1.84681 7.30345 1.85447 7.30712 1.86336C7.34206 1.94792 7.37558 2.10111 7.37558 2.34221V7.14221C7.37558 7.41835 7.59943 7.64221 7.87558 7.64221H9.93558C10.1236 7.64221 10.242 7.67181 10.3068 7.70064C10.3311 7.71142 10.345 7.7206 10.3524 7.72652C10.3519 7.73585 10.3496 7.75201 10.3418 7.7767C10.3207 7.8436 10.265 7.95103 10.1413 8.09069L10.1403 8.09184L5.09373 13.825C4.93441 14.0059 4.80776 14.0991 4.72514 14.1398C4.71607 14.1443 4.70805 14.1479 4.70104 14.1508C4.69784 14.1443 4.69438 14.1366 4.6907 14.1277C4.65576 14.0432 4.62224 13.89 4.62224 13.6489V8.84887C4.62224 8.57273 4.39839 8.34887 4.12224 8.34887H2.06224C1.87566 8.34887 1.75839 8.31961 1.69439 8.29121C1.67093 8.2808 1.65734 8.27195 1.65002 8.2662C1.65046 8.25667 1.65272 8.24006 1.6606 8.21454C1.68151 8.14684 1.73671 8.03875 1.8588 7.89783L6.90422 2.1659C6.90427 2.16585 6.90418 2.16595 6.90422 2.1659Z" fill="currentColor"/>
</svg>
