<svg xmlns="http://www.w3.org/2000/svg" width="600" zoomAndPan="magnify" viewBox="0 0 450 450" height="600"
     version="1.0">
    <defs>
        <clipPath id="1edb4a6040">
            <path d="M3 3h444v444H3zm0 0" clip-rule="nonzero"/>
        </clipPath>
        <clipPath id="200fb51bd9">
            <path d="M357.09 508.273-58.293 357.086 92.895-58.294 508.277 92.892zm0 0" clip-rule="nonzero"/>
        </clipPath>
        <clipPath id="ca63dee97e">
            <path d="M149.398 432.68C34.695 390.934-24.445 264.102 17.301 149.398 59.05 34.691 185.884-24.449 300.587 17.301 415.289 59.048 474.434 185.88 432.684 300.583 390.934 415.29 264.105 474.43 149.398 432.68l18.145-49.844C254.72 414.563 351.11 369.617 382.84 282.44c31.726-87.174-13.219-183.565-100.395-215.295C195.27 35.415 98.88 80.363 67.148 167.539c-31.73 87.175 13.22 183.565 100.395 215.296l-18.145 49.844"
                  clip-rule="nonzero"/>
        </clipPath>
        <clipPath id="0ed5480409">
            <path d="M3 3h443v421H3zm0 0" clip-rule="nonzero"/>
        </clipPath>
        <clipPath id="6f981705d2">
            <path d="M340.727 501.535-63.578 354.38 94.16-79.005 498.465 68.152zm0 0" clip-rule="nonzero"/>
        </clipPath>
        <clipPath id="066832f1aa">
            <path d="M121.785 420.434C28.512 371.176-16.957 262.879 13.2 161.8 43.354 60.724 140.73-4.956 245.745 4.946c105.012 9.907 188.395 92.633 199.121 197.567a26.528 26.528 0 0 1-10.855 24.199 26.524 26.524 0 0 1-41.914-18.805c-8.153-79.749-71.524-142.62-151.332-150.147-79.813-7.528-153.817 42.39-176.739 119.207-22.918 76.82 11.64 159.129 82.528 196.562a26.515 26.515 0 0 1 14.117 22.453 26.524 26.524 0 0 1-12.383 23.454 26.533 26.533 0 0 1-26.505 1"
                  clip-rule="nonzero"/>
        </clipPath>
    </defs>
    <g clip-path="url(#0ed5480409)">
        <g clip-path="url(#6f981705d2)">
            <g clip-path="url(#066832f1aa)">
                <path fill="currentColor" d="M357.09 508.273-58.293 357.086 92.895-58.294 508.277 92.892zm0 0"
                      fill-opacity="1" fill-rule="nonzero"/>
            </g>
        </g>
    </g>
</svg>