<svg xmlns="http://www.w3.org/2000/svg" width="91" height="18" fill="none" stroke-width="0"><g fill="currentColor" clip-path="url(#a)"><path d="M21.532 4.81v1.5h2.964v8.118h1.801V6.31h3.353v8.118h1.718v-3.836c0-1.224.332-2.058 1.496-2.058.9 0 1.288.556 1.288 1.585v4.31h1.704V9.854c0-2.002-1.122-2.739-2.383-2.739-1.177 0-1.773.556-2.106 1.085V4.809h-9.836M39.976 7.117c-2.245 0-3.367 1.626-3.367 3.836 0 1.863.984 3.642 3.284 3.642 2.147 0 2.923-1.362 3.186-2.252h-1.732c-.194.46-.485.876-1.4.876-1.066 0-1.606-.931-1.606-2.002h4.807c.028-.209.028-.375.028-.612 0-1.696-.803-3.489-3.2-3.489m-1.593 3.002c.097-1.015.526-1.738 1.58-1.738 1.052 0 1.468.779 1.482 1.738zM47.324 4.67c-2.23 0-3.408 1.154-3.408 2.739 0 1.32.693 2.21 3.173 2.808 1.745.403 2.203.82 2.203 1.654 0 .779-.513 1.306-1.746 1.306s-1.925-.486-2.161-1.514H43.57c.222 1.654 1.413 2.89 3.838 2.89s3.726-1.209 3.726-2.89c0-1.307-.568-2.364-3.325-3.017-1.593-.376-2.05-.681-2.05-1.432s.554-1.168 1.51-1.168c1.288 0 1.726.673 1.815 1.237h1.814c-.139-1.348-1.285-2.613-3.574-2.613"/><path d="M53.946 5.296H52.23v1.988h-1.33v1.32h1.33v4.004c0 1.223.47 1.918 1.76 1.918.387 0 .886-.013 1.246-.139v-1.21c-.166.029-.374.029-.513.029-.61 0-.776-.25-.776-.848V8.605h1.455v-1.32h-1.455zM61.62 9.536c0-1.668-1.012-2.405-2.868-2.419-2.12-.013-2.854 1.057-2.95 2.225h1.648c.097-.529.29-.96 1.232-.96 1.067 0 1.247.584 1.247 1.14v.487h-1.08c-2.092 0-3.38.75-3.38 2.363 0 1.098.72 2.224 2.424 2.224 1.303 0 1.815-.515 2.064-.946.014.265.056.626.111.78h1.649c-.042-.181-.097-1.085-.097-1.752zM59.944 11.3c0 1.057-.18 2.03-1.593 2.03-.762 0-1.15-.473-1.15-1.057 0-.806.553-1.181 1.814-1.181h.928zM67.419 8.09c-.124-.375-.651-.973-1.925-.973-1.76 0-3.103 1.488-3.103 3.753 0 1.988 1.122 3.49 2.95 3.49 1.095 0 1.705-.404 2.079-1.085v.417c0 1.488-.292 2.35-1.69 2.35-.804 0-1.261-.362-1.428-.946h-1.745c.083.862.65 2.238 3.103 2.238s3.45-1.404 3.45-3.697V9.34c0-.695 0-1.501.013-2.058H67.49c-.014.125-.056.57-.07.807m-1.607 4.865c-.97 0-1.648-.834-1.648-2.154 0-1.474.679-2.28 1.69-2.28 1.343 0 1.62.862 1.62 2.21 0 1.35-.36 2.225-1.662 2.225M73.241 7.117c-2.244 0-3.366 1.626-3.366 3.836 0 1.863.984 3.642 3.283 3.642 2.148 0 2.923-1.362 3.186-2.252h-1.731c-.194.46-.485.876-1.4.876-1.066 0-1.606-.931-1.606-2.002h4.807c.028-.209.028-.375.028-.612 0-1.696-.804-3.489-3.2-3.489m-1.593 3.002c.097-1.015.526-1.738 1.58-1.738 1.052 0 1.468.779 1.482 1.738zM78.929 12.344h-1.843v2.085h1.843zM82.78 4.81l-3.311 9.62h1.773l.845-2.447h3.615l.873 2.446h1.898l-3.45-9.62zm-.291 5.672c.61-1.877 1.108-3.42 1.344-4.324h.014c.235.82.692 2.127 1.44 4.324zM90.895 4.81h-1.801v9.62h1.8zM13.368 10.075c-.232 2.57-2.386 4.586-5.009 4.586-2.779 0-5.03-2.26-5.03-5.048a5.04 5.04 0 0 1 4.57-5.026 5.04 5.04 0 0 1 1.63-3.279 8.4 8.4 0 0 0-1.17-.083C3.743 1.225 0 4.98 0 9.612S3.743 18 8.359 18c4.617 0 8.359-3.755 8.359-8.388q-.002-.598-.083-1.173a5.01 5.01 0 0 1-3.268 1.636z"/><path d="M8.357 4.564q-.233.001-.46.022a5 5 0 0 0-.022.462c0 2.788 2.252 5.048 5.03 5.048q.235 0 .46-.022.023-.228.023-.461c0-2.788-2.252-5.049-5.031-5.049M16.637 8.438a5.04 5.04 0 0 0 1.303-3.39C17.94 2.26 15.688 0 12.91 0c-1.3 0-2.486.495-3.379 1.308 3.68.517 6.59 3.437 7.106 7.13"/></g><defs><clipPath id="a"><path fill="currentColor" d="M0 0h90.9v18H0z"/></clipPath></defs></svg>