<svg width="24" height="13" viewBox="0 0 24 13" fill="none" xmlns="http://www.w3.org/2000/svg">
<path d="M13.0745 6.49989C13.0745 10.0897 10.1842 13 6.6187 13C3.05319 13 0.163086 10.0906 0.163086 6.49989C0.163086 2.90918 3.05341 0 6.6187 0C10.184 0 13.0745 2.91006 13.0745 6.49989ZM20.1566 6.49989C20.1566 9.87928 18.7114 12.6186 16.9287 12.6186C15.1461 12.6186 13.7008 9.8784 13.7008 6.49989C13.7008 3.12138 15.1461 0.381212 16.9287 0.381212C18.7114 0.381212 20.1566 3.12138 20.1566 6.49989ZM23.0533 6.49989C23.0533 9.52766 22.545 11.982 21.918 11.982C21.2911 11.982 20.7827 9.52679 20.7827 6.49989C20.7827 3.47299 21.2911 1.01781 21.9182 1.01781C22.5454 1.01781 23.0533 3.47234 23.0533 6.49989Z" fill="currentColor"/>
</svg>
