<svg width="207" height="48" viewBox="0 0 207 48" fill="none" xmlns="http://www.w3.org/2000/svg">
<path fill-rule="evenodd" clip-rule="evenodd" d="M157.692 24.4678C155.371 22.606 153.382 22.4018 149.584 22.0132L149.238 21.978C148.773 21.9393 142.227 21.3969 141.734 21.3511C137.258 20.9368 137.58 18.9106 137.58 18.9106C137.58 16.6709 142.103 16.4924 142.103 16.4924C145.855 16.1156 153.195 16.2236 153.656 19.5293H158.852C158.383 13.0025 150.285 12.0634 145.092 12C141.65 12.0833 137.895 12.2935 134.917 14.2269C131.579 16.4244 131.906 20.8029 133.999 22.7668C134.812 23.477 136.052 24.4467 138.589 24.9186C139.757 25.1322 141.667 25.4163 144.289 25.6041C144.289 25.6041 148.476 25.8588 149.372 25.9304L149.501 25.9398H149.503C150.902 26.0467 153.865 26.2732 154.112 28.4954C154.384 30.9441 150.16 31.6543 145.821 31.6543C143.92 31.6426 141.985 31.5709 139.984 31.011C138.292 30.5262 137.32 29.5354 137.158 27.885H132.019C132.011 34.9095 140.012 35.9965 145.599 35.9965C149.406 35.9026 153.53 35.6408 156.826 33.5313C160.461 31.153 160.079 26.5397 157.689 24.4678H157.692ZM33.6302 12.3451H33.6255V35.6514H57.8804V31.2446H38.3789V26.1852H55.7652V21.7773H38.3789V16.7542H57.8792V12.3463L33.6302 12.3451ZM91.5259 12.3451H96.2793V35.6514H91.5247V12.3463L91.5259 12.3451ZM202.247 12.3451H207V35.6514H202.247V12.3451ZM85.7689 18.7076C85.7689 21.0847 84.7136 22.6929 83.4397 23.5287C84.7089 23.909 87.2296 25.6933 87.2296 29.0612C87.2296 32.9843 84.9439 35.6619 77.9342 35.6619V35.6537H62.7361V12.3463H76.5041V12.3639C80.5618 12.3874 85.7677 13.2913 85.7677 18.7064L85.7689 18.7076ZM77.3478 16.7519H67.4895V21.8782H77.9953C79.2856 21.8665 81.2034 21.4521 81.2034 19.4835C81.2034 17.5161 79.5289 16.7519 77.3478 16.7519ZM67.4895 31.2446H77.9953C80.1952 31.2411 82.314 30.8901 82.314 28.6668C82.314 26.4446 79.9766 26.022 77.9295 26.022V26.0103H67.4895V31.2446ZM101.585 12.3463H106.614V23.6402C106.614 25.0723 106.726 27.8404 107.166 30.1412C107.166 30.1412 109.884 31.1319 114.888 31.1319C119.862 31.1319 122.598 30.1529 122.631 30.1423C122.516 30.7738 122.357 31.3964 122.154 32.0053C121.307 34.42 119.071 35.953 114.896 35.953C110.722 35.953 108.481 34.42 107.639 32.0053C107.436 31.3974 107.276 30.7756 107.162 30.1447C104.229 29.2337 101.585 27.5034 101.585 24.2213V12.3463ZM122.631 30.1423C123.069 27.8392 123.184 25.0688 123.184 23.6367V12.3451H128.213V24.2154C128.213 27.5046 125.565 29.2302 122.631 30.1412V30.1423ZM23.6051 32.2271C23.6051 32.2271 28.3244 31.9431 28.3244 26.5315V12.3627H23.6051V32.2271ZM0 35.6525V21.4838C0 16.0769 4.71349 15.7905 4.71937 15.7905C4.71937 13.8383 6.25645 12.0164 8.5092 12.0164C10.7619 12.0164 12.3496 13.2607 13.3202 15.4759L19.2629 29.1598C20.7671 32.6192 23.6051 32.2271 23.6051 32.2271C23.6051 34.1781 22.068 36 19.8152 36C17.5625 36 15.976 34.7545 15.0042 32.5406L9.06269 18.8566C7.55968 15.3996 4.72407 15.7905 4.71937 15.7905V35.6525H0ZM170.088 35.6525L180.84 12.3463H187.678L198.437 35.6525H192.905L190.769 30.8232H177.755L175.619 35.6525H170.088ZM179.689 26.4141H188.83L188.747 26.2263L184.597 16.7542H183.923L179.773 26.2274L179.689 26.4141Z" fill="#052C3E"/>
</svg>
