<svg width="24" height="24" viewBox="0 0 24 24" fill="none" stroke-width="0" xmlns="http://www.w3.org/2000/svg">
<path fill-rule="evenodd" clip-rule="evenodd" d="M21 4.2226H18V17.4781C18 17.4781 21 17.2885 21 13.6817V4.2226ZM3 10.3183V19.7701H6V6.5146C6 6.5146 7.80257 6.25164 8.75584 8.56444L12.5339 17.6933C13.1519 19.1708 14.1636 20 15.5923 20C17.021 20 18 18.7855 18 17.4842C18 17.4842 16.1974 17.7471 15.2383 15.4356L11.4661 6.30668C10.8481 4.82923 9.83645 4 8.40771 4C6.97897 4 6 5.21327 6 6.5146C5.99416 6.5146 3 6.71029 3 10.3183Z" fill="white"/>
</svg>
