<svg width="16" height="16" viewBox="0 0 16 16" fill="none" xmlns="http://www.w3.org/2000/svg">
<path d="M5.89733 6.1204V5.1773C5.99047 5.17147 6.08362 5.16565 6.17676 5.16565C8.76158 5.08415 10.4557 7.38952 10.4557 7.38952C10.4557 7.38952 8.62768 9.92776 6.66578 9.92776C6.40381 9.92776 6.14766 9.88701 5.90315 9.8055V6.94125C6.91029 7.06351 7.11405 7.50595 7.71368 8.5131L9.05848 7.3837C9.05848 7.3837 8.07462 6.09712 6.42127 6.09712C6.24662 6.09129 6.07198 6.10294 5.89733 6.1204ZM5.89733 3V4.40884L6.17676 4.39137C9.76872 4.26912 12.1148 7.33713 12.1148 7.33713C12.1148 7.33713 9.42524 10.6089 6.62503 10.6089C6.38052 10.6089 6.14184 10.5856 5.90315 10.5449V11.4181C6.10108 11.4414 6.30484 11.4589 6.50278 11.4589C9.11087 11.4589 10.9971 10.1257 12.8251 8.55385C13.1278 8.79836 14.3678 9.38635 14.624 9.6425C12.8891 11.0979 8.84308 12.2681 6.54935 12.2681C6.32813 12.2681 6.11855 12.2564 5.90897 12.2331V13.4615H15.8174V3H5.89733ZM5.89733 9.8055V10.5507C3.48717 10.1199 2.81768 7.61074 2.81768 7.61074C2.81768 7.61074 3.97618 6.32998 5.89733 6.1204V6.93543H5.8915C4.88436 6.81318 4.09262 7.75628 4.09262 7.75628C4.09262 7.75628 4.54088 9.34559 5.89733 9.8055ZM1.61842 7.50595C1.61842 7.50595 3.04472 5.39852 5.90315 5.1773V4.40884C2.73617 4.66499 0 7.34295 0 7.34295C0 7.34295 1.54856 11.8256 5.89733 12.2331V11.4181C2.70707 11.0222 1.61842 7.50595 1.61842 7.50595Z" fill="#76B900"/>
</svg>
