<svg width="16" height="16" viewBox="0 0 16 16" fill="none" xmlns="http://www.w3.org/2000/svg">
<path d="M15.333 2.66797V6.66797H11.333" stroke="currentColor" stroke-linecap="round" stroke-linejoin="round"/>
<path d="M0.666992 13.334V9.33398H4.66699" stroke="currentColor" stroke-linecap="round" stroke-linejoin="round"/>
<path d="M2.34033 6.00233C2.67844 5.04685 3.25308 4.1926 4.01064 3.51927C4.76819 2.84595 5.68397 2.37551 6.67252 2.15183C7.66106 1.92816 8.69016 1.95856 9.66379 2.24018C10.6374 2.5218 11.5238 3.04547 12.2403 3.76233L15.3337 6.669M0.666992 9.33566L3.76033 12.2423C4.47682 12.9592 5.36324 13.4829 6.33687 13.7645C7.31049 14.0461 8.33959 14.0765 9.32813 13.8528C10.3167 13.6292 11.2325 13.1587 11.99 12.4854C12.7476 11.8121 13.3222 10.9578 13.6603 10.0023" stroke="currentColor" stroke-linecap="round" stroke-linejoin="round"/>
</svg>
