<svg width="17" height="16" viewBox="0 0 17 16" fill="none" xmlns="http://www.w3.org/2000/svg">
<g clip-path="url(#clip0_13830_16642)">
<path d="M15.834 2.66602V6.66602H11.834" stroke="currentColor" stroke-linecap="round" stroke-linejoin="round"/>
<path d="M14.1593 10.0007C13.7259 11.2273 12.9056 12.2798 11.822 12.9997C10.7384 13.7195 9.45024 14.0677 8.15155 13.9917C6.85286 13.9157 5.61404 13.4197 4.62177 12.5784C3.62951 11.7371 2.93755 10.5961 2.65018 9.32736C2.36281 8.05859 2.49559 6.73079 3.02851 5.54404C3.56143 4.35729 4.46563 3.3759 5.60484 2.74775C6.74405 2.1196 8.05656 1.87873 9.34457 2.06142C10.6326 2.24412 11.8263 2.84049 12.7459 3.76066L15.8326 6.66733" stroke="currentColor" stroke-linecap="round" stroke-linejoin="round"/>
</g>
<defs>
<clipPath id="clip0_13830_16642">
<rect width="16" height="16" fill="white" transform="translate(0.5)"/>
</clipPath>
</defs>
</svg>
