<svg width="16" height="16" viewBox="0 0 16 16" fill="none" xmlns="http://www.w3.org/2000/svg">
<path fill-rule="evenodd" clip-rule="evenodd" d="M12.9127 1.64645C13.1097 1.45118 13.4291 1.45118 13.6261 1.64645C14.1698 2.18533 14.6011 2.82508 14.8953 3.52917C15.1894 4.23299 15.3416 4.9875 15.3416 5.74989C15.3416 6.51211 15.1898 7.26691 14.8956 7.97088C14.6013 8.67507 14.1697 9.31485 13.6261 9.85367C13.4291 10.0489 13.1097 10.0489 12.9127 9.85367C12.7157 9.6584 12.7157 9.34182 12.9127 9.14656C13.3628 8.70046 13.72 8.17087 13.9635 7.5882C14.2071 7.00532 14.3327 6.38054 14.3327 5.74989C14.3327 5.1194 14.2069 4.49489 13.9632 3.91186C13.7197 3.32909 13.3627 2.79958 12.9127 2.35355C12.7157 2.15829 12.7157 1.84171 12.9127 1.64645ZM5.70269 3.25C4.30969 3.25 3.18045 4.36929 3.18045 5.75C3.18045 7.13071 4.30969 8.25 5.70269 8.25C7.09569 8.25 8.22493 7.13071 8.22493 5.75C8.22493 4.36929 7.09569 3.25 5.70269 3.25ZM2.17155 5.75C2.17155 3.817 3.75249 2.25 5.70269 2.25C7.65288 2.25 9.23383 3.817 9.23383 5.75C9.23383 7.683 7.65288 9.25 5.70269 9.25C3.75249 9.25 2.17155 7.683 2.17155 5.75ZM11.2693 3.27535C11.4663 3.08009 11.7857 3.08009 11.9827 3.27535C12.3106 3.60036 12.5707 3.9862 12.7482 4.41084C12.9256 4.8354 13.0171 5.29075 13.0171 5.75046C13.0171 6.21029 12.9256 6.66459 12.7482 7.08905C12.5708 7.51356 12.3107 7.89982 11.9827 8.22492C11.7857 8.42018 11.4663 8.42018 11.2693 8.22492C11.0723 8.02965 11.0723 7.71307 11.2693 7.51781C11.5034 7.28576 11.6893 7.0098 11.8161 6.70636C11.943 6.40287 12.0082 6.07857 12.0082 5.75046C12.0082 5.42224 11.9429 5.09691 11.8161 4.79352C11.6893 4.4902 11.5035 4.21461 11.2693 3.98246C11.0723 3.7872 11.0723 3.47062 11.2693 3.27535ZM2.21258 11.4627C3.12788 10.8578 4.36329 10.5 5.70269 10.5C7.04209 10.5 8.2775 10.8578 9.1928 11.4627C10.1046 12.0651 10.7472 12.9524 10.7472 14C10.7472 14.2761 10.5213 14.5 10.2427 14.5C9.96413 14.5 9.73828 14.2761 9.73828 14C9.73828 13.3908 9.36456 12.778 8.63316 12.2947C7.90529 11.8137 6.87069 11.5 5.70269 11.5C4.53469 11.5 3.50009 11.8137 2.77222 12.2947C2.04082 12.778 1.6671 13.3908 1.6671 14C1.6671 14.2761 1.44125 14.5 1.16265 14.5C0.884052 14.5 0.658203 14.2761 0.658203 14C0.658203 12.9524 1.30081 12.0651 2.21258 11.4627Z" fill="currentColor"/>
</svg>
