<svg width="14" height="14" viewBox="0 0 14 14" stroke-width="0" fill="none" xmlns="http://www.w3.org/2000/svg">
<path fill-rule="evenodd" clip-rule="evenodd" d="M1.80506 1.80531C2.5835 1.02687 3.74835 0.729248 5.24984 0.729248H8.74984C10.2513 0.729248 11.4162 1.02687 12.1946 1.80531C12.9731 2.58375 13.2707 3.7486 13.2707 5.25008V8.75008C13.2707 10.2516 12.9731 11.4164 12.1946 12.1949C11.4162 12.9733 10.2513 13.2709 8.74984 13.2709H5.24984C3.74835 13.2709 2.5835 12.9733 1.80506 12.1949C1.02662 11.4164 0.729004 10.2516 0.729004 8.75008V5.25008C0.729004 3.7486 1.02662 2.58375 1.80506 1.80531ZM2.42378 2.42402C1.88972 2.95808 1.604 3.8349 1.604 5.25008V8.75008C1.604 10.1653 1.88972 11.0421 2.42378 11.5761C2.95784 12.1102 3.83465 12.3959 5.24984 12.3959H8.74984C10.165 12.3959 11.0418 12.1102 11.5759 11.5761C12.11 11.0421 12.3957 10.1653 12.3957 8.75008V5.25008C12.3957 3.8349 12.11 2.95808 11.5759 2.42402C11.0418 1.88996 10.165 1.60425 8.74984 1.60425H5.24984C3.83465 1.60425 2.95784 1.88996 2.42378 2.42402Z" fill="currentColor"/>
<path fill-rule="evenodd" clip-rule="evenodd" d="M10.8094 3.19064C10.9802 3.3615 10.9802 3.6385 10.8094 3.80936L3.80936 10.8094C3.6385 10.9802 3.3615 10.9802 3.19064 10.8094C3.01979 10.6385 3.01979 10.3615 3.19064 10.1906L10.1906 3.19064C10.3615 3.01979 10.6385 3.01979 10.8094 3.19064Z" fill="currentColor"/>
<path fill-rule="evenodd" clip-rule="evenodd" d="M7.729 3.5C7.729 3.25838 7.92488 3.0625 8.1665 3.0625H10.4998C10.7415 3.0625 10.9373 3.25838 10.9373 3.5V5.83333C10.9373 6.07496 10.7415 6.27083 10.4998 6.27083C10.2582 6.27083 10.0623 6.07496 10.0623 5.83333V3.9375H8.1665C7.92488 3.9375 7.729 3.74162 7.729 3.5Z" fill="currentColor"/>
<path fill-rule="evenodd" clip-rule="evenodd" d="M3.5 7.72925C3.74162 7.72925 3.9375 7.92512 3.9375 8.16675V10.0626H5.83333C6.07496 10.0626 6.27083 10.2585 6.27083 10.5001C6.27083 10.7417 6.07496 10.9376 5.83333 10.9376H3.5C3.25838 10.9376 3.0625 10.7417 3.0625 10.5001V8.16675C3.0625 7.92512 3.25838 7.72925 3.5 7.72925Z" fill="currentColor"/>
</svg>
