<svg width="931" height="224" viewBox="0 0 931 224" fill="none" xmlns="http://www.w3.org/2000/svg">
<g clip-path="url(#clip0_18750_109027)">
<path fill-rule="evenodd" clip-rule="evenodd" d="M0 8.27386C0 3.70433 3.70433 0 8.27386 0H54.1301C58.6974 0 62.4 3.70255 62.4 8.26989V140.588C62.4 163.234 70.6318 179.572 82.4441 190.306C94.3918 201.164 110.517 206.747 126.88 206.747C143.243 206.747 159.368 201.164 171.316 190.306C183.128 179.572 191.36 163.234 191.36 140.588V16.5398H158.08V132.318C158.08 149.185 156.775 160.807 153.026 171.023C149.286 181.213 146 187 138 196C131.453 197.593 125.042 197.876 115 196C132 184 134.633 172.876 137.394 165.355C140.145 157.859 141.44 148.531 141.44 132.318V8.27404L149.76 8.26989C141.44 8.26989 141.44 8.27404 141.44 8.27404C141.44 3.70442 145.144 0 149.714 0H199.73C204.297 0 208 3.70255 208 8.26989V140.588C208 158.675 203.518 174.02 195.896 186.411L210.131 200.646C211.693 202.208 211.693 204.741 210.131 206.303L196.3 220.133C194.738 221.695 192.206 221.695 190.644 220.133L177.343 206.831C162.765 217.874 144.728 223.287 126.88 223.287C106.843 223.287 86.5682 216.465 71.2159 202.513C55.7282 188.438 45.76 167.562 45.76 140.588V16.5398H16.64V140.588C16.64 161.88 22.4805 178.54 31.4568 189.693C38.5268 198.477 48.2394 204.677 63.3592 206.747C69.1192 213.981 75.5991 218.275 88.5589 224C53.9993 222.569 33.8396 215.412 18.4632 200.025C6.63954 185.335 0 164.78 0 140.588V8.27386ZM0 8.27386C0 8.27386 0 8.26989 8.32 8.26989L0 8.27386Z" fill="white"/>
<path d="M292 114.5C292 113.343 292.047 112.198 292.14 111.065C292.236 109.89 292.382 108.729 292.574 107.584C295.866 87.9563 312.936 73 333.5 73C356.42 73 375 91.5802 375 114.5V219H411V104.826C411 92.7387 409.554 82.5572 406.661 74.2813C403.768 65.8966 399.549 59.0907 394.004 53.8639C388.58 48.637 382.011 44.8802 374.297 42.5935C366.703 40.1978 358.205 39 348.804 39C337.112 39 326.504 41.069 316.982 45.2069C307.46 49.2359 299.263 55.0073 292.393 62.5209L292.33 62.5908L292 39H254.5V219H292V114.5Z" fill="white"/>
<path d="M691 219V115C691 112.789 691.171 110.618 691.5 108.5C694.624 88.3903 712.015 73 733 73C756.196 73 775 91.804 775 115V219H813V113.5C813 91.1325 831.132 73 853.5 73C875.868 73 894 91.1325 894 113.5V219H931V104.662C931 92.902 929.562 82.8839 926.688 74.608C923.812 66.2232 919.62 59.4174 914.109 54.1906C908.599 48.9637 901.891 45.1525 893.984 42.7568C886.198 40.2523 877.333 39 867.391 39C855.172 39 844.331 41.069 834.867 45.2069C825.404 49.3448 817.438 55.0617 810.969 62.3575C809.729 63.7611 808.546 65.2103 807.42 66.7052C804.807 61.5678 801.498 57.1785 797.492 53.5372C792.102 48.5281 785.693 44.8802 778.266 42.5935C770.958 40.1978 762.872 39 754.008 39C741.31 39 730.109 41.1234 720.406 45.3702C710.823 49.5082 702.797 55.4428 696.328 63.1742C694.609 65.2003 692.999 67.3225 691.5 69.5409V39H655V219H691Z" fill="white"/>
<path d="M574 144.5C574 149.714 573.061 154.709 571.343 159.325C565.327 175.487 549.758 187 531.5 187C508.028 187 489 167.972 489 144.5V39H453V153.174C453 164.826 454.563 174.844 457.69 183.229C460.817 191.613 465.207 198.419 470.86 203.646C476.633 208.873 483.488 212.739 491.425 215.243C499.363 217.748 508.082 219 517.584 219C530.693 219 541.938 216.985 551.318 212.956C559.174 209.491 565.849 204.919 571.343 199.239V219H610.5V39H574V144.5Z" fill="white"/>
</g>
<defs>
<clipPath id="clip0_18750_109027">
<rect width="931" height="224" fill="white"/>
</clipPath>
</defs>
</svg>
