<svg xmlns="http://www.w3.org/2000/svg" width="24" height="24" fill="none"><circle cx="12" cy="12" r="12" fill="#50AF95"/><g clip-path="url(#a)"><path fill="#fff" fill-rule="evenodd" d="M13.012 12.824c-.056.004-.349.021-1 .021-.519 0-.887-.015-1.016-.021-2.004-.088-3.5-.437-3.5-.855 0-.417 1.496-.766 3.5-.855v1.362c.13.01.506.032 1.024.032.623 0 .934-.026.99-.031v-1.362c2 .089 3.492.438 3.492.854 0 .417-1.492.766-3.492.854zm0-1.85v-1.22h2.79v-1.86H8.206v1.86h2.79v1.22c-2.268.103-3.973.553-3.973 1.09 0 .54 1.705.988 3.973 1.093v3.907h2.017v-3.909c2.262-.104 3.965-.553 3.965-1.09 0-.538-1.701-.987-3.965-1.092" clip-rule="evenodd"/></g><defs><clipPath id="a"><path fill="#fff" d="M7 6.998h10v11H7z"/></clipPath></defs></svg>