<svg width="120" height="121" viewBox="0 0 120 121" fill="none" xmlns="http://www.w3.org/2000/svg">
<path d="M51.4489 19.8059L9.09888 90.5059C8.22572 92.018 7.76372 93.7324 7.75883 95.4785C7.75394 97.2246 8.20634 98.9416 9.07102 100.459C9.93569 101.976 11.1825 103.24 12.6874 104.125C14.1923 105.011 15.9029 105.487 17.6489 105.506H102.349C104.095 105.487 105.805 105.011 107.31 104.125C108.815 103.24 110.062 101.976 110.927 100.459C111.791 98.9416 112.244 97.2246 112.239 95.4785C112.234 93.7324 111.772 92.018 110.899 90.5059L68.5489 19.8059C67.6575 18.3364 66.4025 17.1215 64.9049 16.2783C63.4072 15.4351 61.7176 14.9922 59.9989 14.9922C58.2802 14.9922 56.5905 15.4351 55.0929 16.2783C53.5953 17.1215 52.3402 18.3364 51.4489 19.8059V19.8059Z" stroke="currentColor" stroke-width="6" stroke-linecap="round" stroke-linejoin="round"/>
<path d="M60 45.5V65.5" stroke="currentColor" stroke-width="6" stroke-linecap="round" stroke-linejoin="round"/>
<path d="M60 85.5H60.05" stroke="currentColor" stroke-width="6" stroke-linecap="round" stroke-linejoin="round"/>
</svg>
