<svg width="24" height="24" viewBox="0 0 24 24" fill="none" stroke-width="0" xmlns="http://www.w3.org/2000/svg">
<path d="M6.7625 10.9484C6.7625 11.2571 6.79442 11.5074 6.85029 11.691C6.91414 11.8746 6.99395 12.0748 7.10568 12.2917C7.14559 12.3585 7.16155 12.4252 7.16155 12.4837C7.16155 12.5671 7.11366 12.6505 7.00991 12.734L6.5071 13.0844C6.43527 13.1345 6.36344 13.1595 6.29959 13.1595C6.21978 13.1595 6.13997 13.1178 6.06016 13.0427C5.94843 12.9175 5.85266 12.784 5.77284 12.6505C5.69303 12.5087 5.61322 12.3502 5.52543 12.1583C4.90291 12.9259 4.12076 13.3097 3.179 13.3097C2.50859 13.3097 1.97386 13.1094 1.58279 12.7089C1.19171 12.3084 0.992188 11.7744 0.992188 11.1069C0.992188 10.3977 1.23162 9.82202 1.71846 9.38815C2.20531 8.95428 2.85178 8.73735 3.67382 8.73735C3.94518 8.73735 4.22452 8.76238 4.51982 8.80409C4.81512 8.84581 5.1184 8.91256 5.43764 8.98766V8.37857C5.43764 7.74445 5.30994 7.30223 5.06253 7.04358C4.80714 6.78493 4.37616 6.65977 3.76162 6.65977C3.48228 6.65977 3.19496 6.69315 2.89966 6.76824C2.60436 6.84333 2.31704 6.93511 2.03771 7.05192C1.91001 7.11033 1.81424 7.1437 1.75837 7.16039C1.7025 7.17708 1.6626 7.18542 1.63067 7.18542C1.51894 7.18542 1.46307 7.10199 1.46307 6.92677V6.51793C1.46307 6.38443 1.47903 6.28431 1.51894 6.2259C1.55884 6.16749 1.63067 6.10909 1.74241 6.05068C2.02174 5.9005 2.35695 5.77534 2.74802 5.67522C3.13909 5.56675 3.55411 5.51669 3.99307 5.51669C4.94281 5.51669 5.63717 5.74197 6.08411 6.19252C6.52306 6.64308 6.74653 7.32726 6.74653 8.24507V10.9484H6.7625ZM3.52218 12.2167C3.78556 12.2167 4.05692 12.1666 4.34423 12.0665C4.63155 11.9663 4.88695 11.7828 5.10244 11.5325C5.23013 11.3739 5.32591 11.1987 5.37379 10.9985C5.42168 10.7982 5.4536 10.5563 5.4536 10.2726V9.92215C5.22215 9.86374 4.97474 9.81368 4.71934 9.7803C4.46395 9.74693 4.21654 9.73024 3.96912 9.73024C3.43439 9.73024 3.04332 9.83871 2.77995 10.064C2.51657 10.2893 2.38887 10.6063 2.38887 11.0235C2.38887 11.4157 2.48465 11.7077 2.68417 11.9079C2.87572 12.1165 3.15506 12.2167 3.52218 12.2167ZM9.93098 13.1178C9.78732 13.1178 9.69155 13.0927 9.6277 13.0343C9.56385 12.9843 9.50798 12.8675 9.4601 12.7089L7.58455 6.25927C7.53666 6.0924 7.51272 5.98393 7.51272 5.92553C7.51272 5.79203 7.57656 5.71694 7.70426 5.71694H8.48641C8.63805 5.71694 8.7418 5.74197 8.79767 5.80037C8.86152 5.85043 8.9094 5.96725 8.95729 6.12578L10.2981 11.6493L11.5432 6.12578C11.5831 5.9589 11.6309 5.85043 11.6948 5.80037C11.7586 5.75031 11.8704 5.71694 12.014 5.71694H12.6525C12.8042 5.71694 12.9079 5.74197 12.9718 5.80037C13.0356 5.85043 13.0915 5.96725 13.1234 6.12578L14.3844 11.716L15.7651 6.12578C15.813 5.9589 15.8689 5.85043 15.9248 5.80037C15.9886 5.75031 16.0924 5.71694 16.236 5.71694H16.9783C17.106 5.71694 17.1778 5.78368 17.1778 5.92553C17.1778 5.96725 17.1698 6.00896 17.1618 6.05903C17.1538 6.10909 17.1379 6.17584 17.106 6.26762L15.1825 12.7173C15.1346 12.8842 15.0788 12.9926 15.0149 13.0427C14.9511 13.0927 14.8473 13.1261 14.7116 13.1261H14.0253C13.8736 13.1261 13.7699 13.1011 13.706 13.0427C13.6422 12.9843 13.5863 12.8758 13.5544 12.7089L12.3173 7.32726L11.0882 12.7006C11.0483 12.8675 11.0004 12.9759 10.9366 13.0343C10.8727 13.0927 10.761 13.1178 10.6174 13.1178H9.93098ZM20.1866 13.3431C19.7716 13.3431 19.3566 13.293 18.9576 13.1929C18.5585 13.0927 18.2472 12.9843 18.0397 12.8591C17.912 12.784 17.8243 12.7006 17.7923 12.6255C17.7604 12.5504 17.7444 12.467 17.7444 12.3919V11.9663C17.7444 11.7911 17.8083 11.7077 17.928 11.7077C17.9759 11.7077 18.0238 11.716 18.0717 11.7327C18.1196 11.7494 18.1914 11.7828 18.2712 11.8162C18.5425 11.9413 18.8378 12.0414 19.1491 12.1082C19.4683 12.1749 19.7796 12.2083 20.0989 12.2083C20.6017 12.2083 20.9927 12.1165 21.2641 11.933C21.5354 11.7494 21.6791 11.4824 21.6791 11.1403C21.6791 10.9067 21.6073 10.7148 21.4636 10.5563C21.32 10.3977 21.0486 10.2559 20.6575 10.1224L19.5003 9.74693C18.9177 9.55503 18.4867 9.27134 18.2233 8.89587C17.9599 8.52875 17.8242 8.11991 17.8242 7.68604C17.8242 7.33561 17.8961 7.02689 18.0397 6.75989C18.1834 6.4929 18.3749 6.25927 18.6144 6.07571C18.8538 5.88381 19.1252 5.74197 19.4444 5.64184C19.7636 5.54172 20.0989 5.5 20.45 5.5C20.6256 5.5 20.8092 5.50834 20.9848 5.53337C21.1683 5.55841 21.3359 5.59178 21.5035 5.62516C21.6631 5.66687 21.8148 5.70859 21.9584 5.75865C22.1021 5.80872 22.2138 5.85878 22.2936 5.90884C22.4054 5.97559 22.4852 6.04234 22.5331 6.11743C22.581 6.18418 22.6049 6.27596 22.6049 6.39277V6.78493C22.6049 6.96014 22.5411 7.05192 22.4213 7.05192C22.3575 7.05192 22.2537 7.01855 22.1181 6.9518C21.6631 6.73486 21.1524 6.6264 20.5857 6.6264C20.1308 6.6264 19.7716 6.70149 19.5242 6.86002C19.2768 7.01855 19.1491 7.26051 19.1491 7.60261C19.1491 7.83623 19.2289 8.03648 19.3885 8.19501C19.5482 8.35354 19.8435 8.51207 20.2665 8.65391L21.3998 9.02937C21.9744 9.22128 22.3894 9.48828 22.6368 9.83037C22.8842 10.1725 23.004 10.5646 23.004 10.9985C23.004 11.3573 22.9321 11.6827 22.7965 11.9663C22.6528 12.25 22.4612 12.5003 22.2138 12.7006C21.9664 12.9092 21.6711 13.0594 21.3279 13.1678C20.9688 13.2846 20.5937 13.3431 20.1866 13.3431Z" fill="white"/>
<path fill-rule="evenodd" clip-rule="evenodd" d="M21.6951 17.3956C19.0693 19.4232 15.2544 20.4995 11.9741 20.4995C7.37706 20.4995 3.23489 18.7223 0.106309 15.7686C-0.141104 15.535 0.0823659 15.2179 0.377665 15.4015C3.76164 17.454 7.93573 18.6973 12.2535 18.6973C15.1666 18.6973 18.367 18.0631 21.312 16.7615C21.751 16.5529 22.1261 17.0619 21.6951 17.3956Z" fill="white"/>
<path fill-rule="evenodd" clip-rule="evenodd" d="M22.7893 16.0949C22.4541 15.6444 20.5705 15.878 19.7166 15.9865C19.4612 16.0198 19.4213 15.7862 19.6527 15.611C21.1531 14.5096 23.6193 14.8267 23.9066 15.1938C24.1939 15.5693 23.8268 18.1475 22.4221 19.3823C22.2066 19.5742 21.9991 19.4741 22.0949 19.2238C22.4142 18.3978 23.1245 16.5371 22.7893 16.0949Z" fill="white"/>
</svg>
