<svg width="17" height="6" viewBox="0 0 17 6" fill="none" xmlns="http://www.w3.org/2000/svg">
<g clip-path="url(#clip0_1062_2455)">
<path d="M3.21971 1.69888L2.49638 3.63451H4.02983L3.21971 1.69888ZM6.14195 5.48912H4.81102L4.40596 4.5025H2.17811L1.80198 5.48912H0.5L2.49638 0.506836H3.94304L6.14195 5.48912Z" fill="#29779D"/>
<path d="M7.67527 2.5524H8.34074C8.68793 2.5524 9.0062 2.40774 9.0062 1.98243C9.0062 1.61208 8.77473 1.42112 8.3118 1.42112H7.67527V2.5524ZM8.659 0.506836C9.67166 0.506836 10.2793 1.19545 10.2793 1.93903C10.2793 2.48587 10.0189 2.89671 9.44019 3.16C9.93205 3.41461 10.1057 4.028 10.8 5.48912H9.44019C8.89046 4.42149 8.71687 3.46669 8.02247 3.46669H7.67527V5.48912H6.43115V0.506836H8.659Z" fill="#29779D"/>
<path d="M15.4296 0.506836H16.5001V5.48912H15.256V2.37591L13.925 3.94119H13.7225L12.3916 2.37591V5.48912H11.1475V0.506836H12.218L13.8382 2.35565L15.4296 0.506836Z" fill="#29779D"/>
</g>
<defs>
<clipPath id="clip0_1062_2455">
<rect width="16" height="4.98228" fill="white" transform="translate(0.5 0.508789)"/>
</clipPath>
</defs>
</svg>
