<svg width="12" height="10" viewBox="0 0 8 11" fill="none" xmlns="http://www.w3.org/2000/svg">
<path fill-rule="evenodd" clip-rule="evenodd" d="M0.149625 3.77298C-0.0212292 3.94383 -0.0212292 4.22084 0.149625 4.3917C0.32048 4.56255 0.597489 4.56255 0.768344 4.3917L3.56229 1.59775L3.56229 10.4583C3.56229 10.6999 3.75816 10.8958 3.99979 10.8958C4.24141 10.8958 4.43729 10.6999 4.43729 10.4583L4.43729 1.59769L7.23129 4.3917C7.40215 4.56255 7.67916 4.56255 7.85001 4.3917C8.02086 4.22084 8.02086 3.94383 7.85001 3.77298L4.30918 0.232145C4.22713 0.150098 4.11585 0.104004 3.99982 0.104004C3.88379 0.104004 3.77251 0.150098 3.69046 0.232145L0.149625 3.77298Z" fill="currentColor"/>
</svg>
