<svg width="24" height="24" viewBox="0 0 24 24" fill="none" stroke-width="0" xmlns="http://www.w3.org/2000/svg">
<path fill-rule="evenodd" clip-rule="evenodd" d="M15.1852 3.16887C15.3373 3.2787 15.4513 3.43376 15.5112 3.6122L20.9482 19.8117C20.9936 19.9471 21.0063 20.0914 20.9853 20.2327C20.9643 20.3741 20.9101 20.5083 20.8273 20.6244C20.7444 20.7405 20.6353 20.8351 20.5089 20.9003C20.3825 20.9656 20.2424 20.9996 20.1004 20.9997H18.693L18.6931 20.9999H13.6456C13.4175 21 13.1979 20.913 13.0311 20.7566L9.20222 17.1629L8.94399 17.9282L8.11885 20.3866C8.05887 20.5653 7.94469 20.7205 7.79237 20.8305C7.71392 20.8871 7.6274 20.9303 7.5363 20.9588C7.48688 20.9765 7.43592 20.9901 7.3839 20.9995H7.28917L7.26975 20.9997H2.89497C2.83038 20.9997 2.7662 20.9927 2.70355 20.9789C2.62735 20.9622 2.55338 20.9355 2.4836 20.8992C2.35607 20.833 2.24628 20.7368 2.16352 20.6189C2.08076 20.501 2.02746 20.3647 2.00814 20.2217C2.00268 20.1813 1.99998 20.1408 2 20.1003C1.99995 20.0026 2.01572 19.9053 2.04695 19.8122L7.4837 3.61329C7.49593 3.57682 7.51043 3.54132 7.52704 3.50699C7.59025 3.37462 7.68523 3.25933 7.8042 3.17198C7.95735 3.05953 8.14224 2.99927 8.33187 3.00001H8.40165C8.40053 3 8.3994 3 8.39828 3H14.6632C14.8505 2.99998 15.033 3.05904 15.1852 3.16887ZM12.9549 14.6621L11.5007 10.3292L10.3022 13.8815L10.0402 14.6621H12.9549Z" fill="white"/>
</svg>
