<svg xmlns="http://www.w3.org/2000/svg" width="12" height="12" fill="none" stroke-width="0"><path fill="currentColor" d="M2.062 3.958a1.896 1.896 0 1 0 0-3.792 1.896 1.896 0 0 0 0 3.792M1.916 11.832a1.75 1.75 0 1 0 0-3.5 1.75 1.75 0 0 0 0 3.5M10.082 11.832a1.75 1.75 0 1 0 0-3.5 1.75 1.75 0 0 0 0 3.5"/><path fill="currentColor" d="M10.182 8.32a4.04 4.04 0 0 0-3.815-2.712h-.018l-2.059.006A1.98 1.98 0 0 1 2.371 4.16V3.088a.444.444 0 0 0-.45-.443.44.44 0 0 0-.442.443v6.545c0 .245.198.443.443.443s.449-.198.449-.443V5.77a2.88 2.88 0 0 0 1.913.735h.012l2.06-.006h.01c1.337 0 2.533.846 2.97 2.112a.456.456 0 0 0 .572.28.45.45 0 0 0 .274-.572"/></svg>