<svg width="17" height="16" viewBox="0 0 17 16" fill="none" xmlns="http://www.w3.org/2000/svg">
<path fill-rule="evenodd" clip-rule="evenodd" d="M8.23034 0.789054C8.40756 0.752607 8.59033 0.752607 8.76755 0.789054C8.9724 0.831185 9.15549 0.933736 9.30105 1.01526C9.31461 1.02286 9.32784 1.03027 9.34073 1.03743L14.2741 3.77817C14.2877 3.78575 14.3018 3.79349 14.3162 3.80142C14.4702 3.88629 14.664 3.993 14.8128 4.15446C14.9414 4.29404 15.0387 4.45949 15.0983 4.63972C15.1672 4.84819 15.1664 5.06937 15.1657 5.24529C15.1657 5.26173 15.1656 5.27777 15.1656 5.29338V10.7048C15.1656 10.7204 15.1657 10.7364 15.1657 10.7529C15.1664 10.9288 15.1672 11.15 15.0983 11.3584C15.0387 11.5387 14.9414 11.7041 14.8128 11.8437C14.664 12.0052 14.4702 12.1119 14.3162 12.1967C14.3018 12.2047 14.2877 12.2124 14.2741 12.22L9.34073 14.9607C9.32783 14.9679 9.3146 14.9753 9.30105 14.9829C9.15548 15.0644 8.97239 15.167 8.76755 15.2091C8.59033 15.2456 8.40756 15.2456 8.23034 15.2091C8.02549 15.167 7.8424 15.0644 7.69684 14.9829C7.68328 14.9753 7.67005 14.9679 7.65716 14.9607L2.72383 12.22C2.71019 12.2124 2.69614 12.2047 2.68174 12.1967C2.52765 12.1119 2.33391 12.0052 2.18512 11.8437C2.05649 11.7041 1.95914 11.5387 1.89959 11.3584C1.83071 11.15 1.83152 10.9288 1.83216 10.7529C1.83222 10.7364 1.83228 10.7204 1.83228 10.7048V5.29338C1.83228 5.27778 1.83222 5.26173 1.83216 5.24529C1.83152 5.06938 1.83071 4.84819 1.89959 4.63972C1.95914 4.45949 2.05649 4.29404 2.18512 4.15446C2.3339 3.99301 2.52765 3.88629 2.68174 3.80142C2.69614 3.79349 2.71019 3.78575 2.72383 3.77817L7.65716 1.03743C7.67005 1.03027 7.68328 1.02286 7.69684 1.01527C7.8424 0.933737 8.02549 0.831185 8.23034 0.789054ZM8.49895 2.09841C8.49793 2.09889 8.49687 2.0994 8.49576 2.09993C8.45729 2.11849 8.40572 2.14685 8.30469 2.20297L3.8717 4.66574L8.49892 7.23642L13.1262 4.66573L8.6932 2.20297C8.59217 2.14685 8.5406 2.11849 8.50213 2.09993C8.50103 2.0994 8.49996 2.09889 8.49895 2.09841ZM13.8323 5.79872V10.7048C13.8323 10.8268 13.832 10.8892 13.8293 10.9344C13.8292 10.9357 13.8291 10.937 13.829 10.9382C13.828 10.9389 13.8269 10.9396 13.8258 10.9403C13.7876 10.9646 13.7332 10.9952 13.6265 11.0544L9.16561 13.5327L9.16559 8.39133L13.8323 5.79872ZM7.83226 8.39133L3.16561 5.79875V10.7048C3.16561 10.8268 3.16589 10.8892 3.16861 10.9344C3.16869 10.9357 3.16877 10.937 3.16885 10.9382C3.16988 10.9389 3.17095 10.9396 3.17208 10.9403C3.21028 10.9646 3.26472 10.9952 3.37135 11.0544L7.83227 13.5327L7.83226 8.39133Z" fill="currentColor"/>
</svg>
