<svg width="12" height="12" viewBox="0 0 12 12" fill="none" xmlns="http://www.w3.org/2000/svg">
<path d="M1 11H11M1 11V8.4336L6 3.30081M1 11L3.5 11L8.49999 5.8672M6 3.30081L7.79289 1.46028L7.79397 1.45919C8.04077 1.20584 8.16439 1.07893 8.30689 1.0314C8.43242 0.989533 8.56765 0.989533 8.69318 1.0314C8.83558 1.0789 8.95905 1.20566 9.20551 1.45865L10.2929 2.57491C10.5404 2.82899 10.6642 2.95609 10.7106 3.10259C10.7514 3.23145 10.7513 3.37025 10.7106 3.49912C10.6642 3.64551 10.5406 3.77241 10.2934 4.02614L10.2929 4.02668L8.49999 5.8672M6 3.30081L8.49999 5.8672" stroke="currentColor" stroke-linecap="round" stroke-linejoin="round"/>
</svg>
