<svg width="26" height="26" viewBox="0 0 26 26" fill="none" stroke-width="0" xmlns="http://www.w3.org/2000/svg">
<rect x="0.25" y="0.25" width="25.5" height="25.5" rx="5.75" fill="#3A271F"/>
<rect x="0.25" y="0.25" width="25.5" height="25.5" rx="5.75" stroke="#3A271F"/>
<path fill-rule="evenodd" clip-rule="evenodd" d="M12.7303 5.78905C12.9076 5.75261 13.0903 5.75261 13.2675 5.78905C13.4724 5.83118 13.6555 5.93374 13.801 6.01526C13.8146 6.02286 13.8278 6.03027 13.8407 6.03743L18.7741 8.77817C18.7877 8.78575 18.8018 8.79349 18.8162 8.80142C18.9702 8.88629 19.164 8.993 19.3128 9.15446C19.4414 9.29404 19.5387 9.45949 19.5983 9.63972C19.6672 9.84819 19.6664 10.0694 19.6657 10.2453C19.6657 10.2617 19.6656 10.2778 19.6656 10.2934V15.7048C19.6656 15.7204 19.6657 15.7364 19.6657 15.7529C19.6664 15.9288 19.6672 16.15 19.5983 16.3584C19.5387 16.5387 19.4414 16.7041 19.3128 16.8437C19.164 17.0052 18.9702 17.1119 18.8162 17.1967C18.8018 17.2047 18.7877 17.2124 18.7741 17.22L13.8407 19.9607C13.8278 19.9679 13.8146 19.9753 13.801 19.9829C13.6555 20.0644 13.4724 20.167 13.2675 20.2091C13.0903 20.2456 12.9076 20.2456 12.7303 20.2091C12.5255 20.167 12.3424 20.0644 12.1968 19.9829C12.1833 19.9753 12.1701 19.9679 12.1572 19.9607L7.22383 17.22C7.21019 17.2124 7.19614 17.2047 7.18174 17.1967C7.02765 17.1119 6.83391 17.0052 6.68512 16.8437C6.55649 16.7041 6.45914 16.5387 6.39959 16.3584C6.33071 16.15 6.33152 15.9288 6.33216 15.7529C6.33222 15.7364 6.33228 15.7204 6.33228 15.7048V10.2934C6.33228 10.2778 6.33222 10.2617 6.33216 10.2453C6.33152 10.0694 6.33071 9.84819 6.39959 9.63972C6.45914 9.45949 6.55649 9.29404 6.68512 9.15446C6.8339 8.99301 7.02765 8.88629 7.18174 8.80142C7.19614 8.79349 7.21019 8.78575 7.22383 8.77817L12.1572 6.03743C12.1701 6.03027 12.1833 6.02286 12.1968 6.01527C12.3424 5.93374 12.5255 5.83119 12.7303 5.78905ZM12.9989 7.09841C12.9979 7.09889 12.9969 7.0994 12.9958 7.09993C12.9573 7.11849 12.9057 7.14685 12.8047 7.20297L8.3717 9.66574L12.9989 12.2364L17.6262 9.66573L13.1932 7.20297C13.0922 7.14685 13.0406 7.11849 13.0021 7.09993C13.001 7.0994 13 7.09889 12.9989 7.09841ZM18.3323 10.7987V15.7048C18.3323 15.8268 18.332 15.8892 18.3293 15.9344C18.3292 15.9357 18.3291 15.937 18.329 15.9382C18.328 15.9389 18.3269 15.9396 18.3258 15.9403C18.2876 15.9646 18.2332 15.9952 18.1265 16.0544L13.6656 18.5327L13.6656 13.3913L18.3323 10.7987ZM12.3323 13.3913L7.66561 10.7987V15.7048C7.66561 15.8268 7.66589 15.8892 7.66861 15.9344C7.66869 15.9357 7.66877 15.937 7.66885 15.9382C7.66988 15.9389 7.67095 15.9396 7.67208 15.9403C7.71028 15.9646 7.76472 15.9952 7.87135 16.0544L12.3323 18.5327L12.3323 13.3913Z" fill="#FF885A"/>
</svg>
