<svg width="27" height="26" viewBox="0 0 27 26" fill="none" stroke-width="0" xmlns="http://www.w3.org/2000/svg">
<rect x="0.582031" y="0.25" width="25.5" height="25.5" rx="5.75" fill="#3A271F"/>
<rect x="0.582031" y="0.25" width="25.5" height="25.5" rx="5.75" stroke="#3A271F"/>
<path fill-rule="evenodd" clip-rule="evenodd" d="M13.2019 7.01465L13.2019 7.01465L13.2019 7.01465ZM13.3335 7.07971L18.5094 9.66769L13.3335 12.2557L8.15752 9.66769L13.3335 7.07971ZM13.2019 12.3207C13.2018 12.3208 13.2018 12.3208 13.2019 12.3207L13.2019 12.3207ZM13.4651 12.3207C13.4652 12.3208 13.4652 12.3208 13.4651 12.3207L13.4651 12.3207ZM13.4651 7.01465L13.4651 7.01465L13.4651 7.01465ZM13.1491 5.72418C13.2709 5.70132 13.396 5.70132 13.5179 5.72418C13.6622 5.75125 13.7909 5.81694 13.8531 5.84868C13.8595 5.85195 13.8652 5.85486 13.8701 5.85733L20.2983 9.0714C20.5241 9.18433 20.6668 9.41517 20.6668 9.66769C20.6668 9.9202 20.5241 10.151 20.2983 10.264L13.8701 13.478C13.8652 13.4805 13.8595 13.4834 13.8531 13.4867C13.7909 13.5184 13.6622 13.5841 13.5179 13.6112C13.396 13.6341 13.2709 13.6341 13.1491 13.6112C13.0048 13.5841 12.8761 13.5184 12.8139 13.4867C12.8075 13.4834 12.8018 13.4805 12.7968 13.478L6.36867 10.264C6.14281 10.151 6.00015 9.9202 6.00015 9.66769C6.00015 9.41517 6.14281 9.18433 6.36867 9.0714L12.7968 5.85733C12.8018 5.85486 12.8075 5.85195 12.8139 5.84868C12.8761 5.81694 13.0048 5.75125 13.1491 5.72418ZM6.07053 12.7029C6.23519 12.3736 6.63564 12.2401 6.96496 12.4047L13.3335 15.589L19.702 12.4047C20.0313 12.2401 20.4318 12.3736 20.5964 12.7029C20.7611 13.0322 20.6276 13.4326 20.2983 13.5973L13.8701 16.8114C13.8652 16.8139 13.8595 16.8168 13.8531 16.82C13.7909 16.8518 13.6622 16.9175 13.5179 16.9445C13.396 16.9674 13.2709 16.9674 13.1491 16.9445C13.0048 16.9175 12.8761 16.8518 12.8139 16.82C12.8075 16.8168 12.8018 16.8139 12.7968 16.8114L6.36867 13.5973C6.03935 13.4326 5.90587 13.0322 6.07053 12.7029ZM13.2019 15.6541C13.2018 15.6541 13.2018 15.6541 13.2019 15.654L13.2019 15.6541ZM13.4651 15.654C13.4652 15.6541 13.4652 15.6541 13.4651 15.6541L13.4651 15.654ZM6.07053 16.0362C6.23519 15.7069 6.63564 15.5734 6.96496 15.7381L13.3335 18.9223L19.702 15.7381C20.0313 15.5734 20.4318 15.7069 20.5964 16.0362C20.7611 16.3655 20.6276 16.766 20.2983 16.9306L13.8701 20.1447C13.8652 20.1472 13.8595 20.1501 13.8531 20.1534C13.7909 20.1851 13.6622 20.2508 13.5179 20.2779C13.396 20.3007 13.2709 20.3007 13.1491 20.2779C13.0048 20.2508 12.8761 20.1851 12.8139 20.1534C12.8075 20.1501 12.8018 20.1472 12.7968 20.1447L6.36867 16.9306C6.03935 16.766 5.90587 16.3655 6.07053 16.0362Z" fill="#FF885A"/>
</svg>
