<svg width="20" height="20" viewBox="0 0 20 20" fill="none" stroke-width="0" xmlns="http://www.w3.org/2000/svg">
    <path fill-rule="evenodd" clip-rule="evenodd" d="M9.82506 2.87061C9.51507 2.87061 9.23963 2.92481 9.06381 3.00353L9.06205 3.00432L4.144 5.18826C3.49845 5.47306 3.45422 5.73073 3.45422 5.75811C3.45422 5.78548 3.49845 6.04315 4.144 6.32795L4.14538 6.32856L9.06381 8.51267C9.23963 8.59141 9.51507 8.64561 9.82506 8.64561C10.135 8.64561 10.4105 8.59141 10.5863 8.51268L10.5881 8.51189L15.5047 6.32856L15.5061 6.32795C16.1517 6.04315 16.1959 5.78548 16.1959 5.75811C16.1959 5.73073 16.1517 5.47306 15.5061 5.18826L10.5881 3.00432L10.5863 3.00353C10.4105 2.92481 10.135 2.87061 9.82506 2.87061ZM11.0962 1.86226C10.7139 1.69129 10.2522 1.62061 9.82506 1.62061C9.39789 1.62061 8.93623 1.69129 8.55391 1.86226C8.5536 1.8624 8.55329 1.86254 8.55297 1.86268L3.63945 4.04462C3.63923 4.04471 3.63967 4.04452 3.63945 4.04462C2.86861 4.38485 2.20422 4.95654 2.20422 5.75811C2.20422 6.55964 2.8679 7.13103 3.63871 7.47127C3.63846 7.47116 3.63895 7.47138 3.63871 7.47127L8.55297 9.65353C8.55333 9.65369 8.55368 9.65385 8.55404 9.65401C8.93634 9.82494 9.39794 9.89561 9.82506 9.89561C10.2522 9.89561 10.7138 9.82493 11.0961 9.65398C11.0965 9.65383 11.0968 9.65368 11.0971 9.65353L16.0107 7.4716C16.0104 7.47169 16.0109 7.4715 16.0107 7.4716C16.7815 7.13136 17.4459 6.55967 17.4459 5.75811C17.4459 4.95651 16.7821 4.3851 16.0112 4.04487C16.0111 4.04479 16.0114 4.04496 16.0112 4.04487L11.0971 1.86268C11.0968 1.86254 11.0965 1.8624 11.0962 1.86226Z" fill="currentColor" />
    <path fill-rule="evenodd" clip-rule="evenodd" d="M2.5 8.5415C2.84518 8.5415 3.125 8.82133 3.125 9.1665C3.125 9.36933 3.20524 9.62975 3.36658 9.87773C3.52792 10.1257 3.73339 10.3044 3.91912 10.3864L3.92066 10.3871L9.57782 12.9033C9.57761 12.9032 9.57802 12.9033 9.57782 12.9033C9.85156 13.0241 10.1582 13.0223 10.4181 12.9051L10.421 12.9038L16.0793 10.3871L16.0809 10.3864C16.2666 10.3044 16.4721 10.1257 16.6334 9.87773C16.7948 9.62975 16.875 9.36933 16.875 9.1665C16.875 8.82133 17.1548 8.5415 17.5 8.5415C17.8452 8.5415 18.125 8.82133 18.125 9.1665C18.125 9.66368 17.9427 10.1574 17.6812 10.5594C17.4197 10.9613 17.0421 11.3282 16.5865 11.5296C16.5863 11.5297 16.5867 11.5295 16.5865 11.5296L10.9319 14.0446C10.9314 14.0448 10.9308 14.0451 10.9303 14.0453C10.3407 14.3106 9.66439 14.3084 9.07218 14.0464L3.41421 11.5299C3.41392 11.5298 3.41364 11.5297 3.41335 11.5295C2.95781 11.3281 2.58025 10.9612 2.31883 10.5594C2.05726 10.1574 1.875 9.66368 1.875 9.1665C1.875 8.82133 2.15482 8.5415 2.5 8.5415Z" fill="currentColor" />
    <path fill-rule="evenodd" clip-rule="evenodd" d="M2.5 12.708C2.84518 12.708 3.125 12.9878 3.125 13.333C3.125 13.8587 3.43579 14.3366 3.92128 14.5539C3.92112 14.5538 3.92144 14.554 3.92128 14.5539L9.57782 17.0698C9.57761 17.0697 9.57802 17.0698 9.57782 17.0698C9.85156 17.1906 10.1582 17.1888 10.4181 17.0716L10.421 17.0703L16.0783 14.5541C16.0781 14.5542 16.0784 14.554 16.0783 14.5541C16.5637 14.3368 16.875 13.8586 16.875 13.333C16.875 12.9878 17.1548 12.708 17.5 12.708C17.8452 12.708 18.125 12.9878 18.125 13.333C18.125 14.3572 17.5193 15.2791 16.5884 15.6953L16.5873 15.6957L10.9319 18.2111C10.9314 18.2113 10.9308 18.2116 10.9303 18.2118C10.3407 18.4771 9.66439 18.4749 9.07218 18.2129L3.41159 15.6953C2.48068 15.2791 1.875 14.3572 1.875 13.333C1.875 12.9878 2.15482 12.708 2.5 12.708Z" fill="currentColor" />
    <path d="M10 2L3.5 5L3 6L10 9L17 6L10 2Z" fill="currentColor" />
</svg>
