<svg width="16" height="16" viewBox="0 0 16 16" fill="none" xmlns="http://www.w3.org/2000/svg">
<path fill-rule="evenodd" clip-rule="evenodd" d="M3.77517 3.16669C3.62389 3.16669 3.47173 3.23049 3.35427 3.35579C3.23578 3.48218 3.16406 3.66011 3.16406 3.85187V12.1482C3.16406 12.3399 3.23578 12.5179 3.35427 12.6442C3.47173 12.7695 3.62389 12.8334 3.77517 12.8334H5.9974C6.27354 12.8334 6.4974 13.0572 6.4974 13.3334C6.4974 13.6095 6.27354 13.8334 5.9974 13.8334H3.77517C3.33709 13.8334 2.92401 13.6474 2.62473 13.3282C2.32647 13.01 2.16406 12.5851 2.16406 12.1482V3.85187C2.16406 3.41497 2.32647 2.98999 2.62473 2.67185C2.92401 2.35261 3.33709 2.16669 3.77517 2.16669H5.9974C6.27354 2.16669 6.4974 2.39054 6.4974 2.66669C6.4974 2.94283 6.27354 3.16669 5.9974 3.16669H3.77517ZM13.8307 8.00002C13.8307 8.27616 13.6069 8.50002 13.3307 8.50002L7.03784 8.50002L9.51762 10.9798C9.71289 11.1751 9.71289 11.4916 9.51762 11.6869C9.32236 11.8822 9.00578 11.8822 8.81052 11.6869L5.47718 8.35358C5.28192 8.15832 5.28192 7.84173 5.47718 7.64647L8.81052 4.31314C9.00578 4.11788 9.32236 4.11788 9.51762 4.31314C9.71288 4.5084 9.71288 4.82498 9.51762 5.02024L7.03785 7.50002H13.3307C13.6069 7.50002 13.8307 7.72388 13.8307 8.00002Z" fill="currentColor"/>
</svg>
