<svg width="20" height="20" viewBox="0 0 20 20" fill="none" stroke-width="0" xmlns="http://www.w3.org/2000/svg">
    <path fill-rule="evenodd" clip-rule="evenodd" d="M3.46273 3.46261C2.69979 4.22555 2.29163 5.47815 2.29163 7.49984V8.3165C2.29163 8.66168 2.0118 8.9415 1.66663 8.9415C1.32145 8.9415 1.04163 8.66168 1.04163 8.3165V7.49984C1.04163 5.35486 1.46679 3.69079 2.57885 2.57873C3.69091 1.46667 5.35498 1.0415 7.49996 1.0415H12.5C14.6449 1.0415 16.309 1.46667 17.4211 2.57873C18.5331 3.69079 18.9583 5.35486 18.9583 7.49984V12.4998C18.9583 14.6448 18.5331 16.3089 17.4211 17.4209C16.309 18.533 14.6449 18.9582 12.5 18.9582H11.6666C11.3214 18.9582 11.0416 18.6783 11.0416 18.3332C11.0416 17.988 11.3214 17.7082 11.6666 17.7082H12.5C14.5216 17.7082 15.7742 17.3 16.5372 16.5371C17.3001 15.7741 17.7083 14.5215 17.7083 12.4998V7.49984C17.7083 5.47815 17.3001 4.22555 16.5372 3.46261C15.7742 2.69967 14.5216 2.2915 12.5 2.2915H7.49996C5.47827 2.2915 4.22568 2.69967 3.46273 3.46261Z" fill="currentColor" />
    <path fill-rule="evenodd" clip-rule="evenodd" d="M14.8 9.1665C14.8 9.51168 14.5201 9.7915 14.175 9.7915L10.8333 9.7915C10.5806 9.7915 10.3528 9.63936 10.256 9.40597C10.1592 9.17258 10.2124 8.90385 10.3909 8.725L14.5659 4.54167C14.8098 4.29735 15.2055 4.29695 15.4498 4.54079C15.6941 4.78462 15.6945 5.18035 15.4507 5.42467L12.3401 8.5415L14.175 8.5415C14.5201 8.5415 14.8 8.82133 14.8 9.1665Z" fill="currentColor" />
    <path fill-rule="evenodd" clip-rule="evenodd" d="M10.8333 9.7915C10.4881 9.7915 10.2083 9.51168 10.2083 9.1665L10.2083 5.82484C10.2083 5.47966 10.4881 5.19984 10.8333 5.19984C11.1784 5.19984 11.4583 5.47966 11.4583 5.82484L11.4583 9.1665C11.4583 9.51168 11.1784 9.7915 10.8333 9.7915Z" fill="currentColor" />
    <path fill-rule="evenodd" clip-rule="evenodd" d="M2.71794 11.8843C2.47062 12.1316 2.29163 12.5822 2.29163 13.458V15.708C2.29163 16.5839 2.47062 17.0344 2.71794 17.2817C2.96526 17.529 3.41577 17.708 4.29163 17.708H6.54163C7.41748 17.708 7.86799 17.529 8.11531 17.2817C8.36263 17.0344 8.54163 16.5839 8.54163 15.708V13.458C8.54163 12.5822 8.36263 12.1316 8.11531 11.8843C7.86799 11.637 7.41748 11.458 6.54163 11.458H4.29163C3.41577 11.458 2.96526 11.637 2.71794 11.8843ZM1.83406 11.0004C2.43049 10.404 3.29248 10.208 4.29163 10.208H6.54163C7.54077 10.208 8.40276 10.404 8.99919 11.0004C9.59562 11.5969 9.79163 12.4589 9.79163 13.458V15.708C9.79163 16.7072 9.59562 17.5691 8.99919 18.1656C8.40276 18.762 7.54077 18.958 6.54163 18.958H4.29163C3.29248 18.958 2.43049 18.762 1.83406 18.1656C1.23763 17.5691 1.04163 16.7072 1.04163 15.708V13.458C1.04163 12.4589 1.23763 11.5969 1.83406 11.0004Z" fill="currentColor" />
    <rect x="2" y="11" width="7" height="7" rx="1" fill="currentColor"/>
</svg>
