<svg width="20" height="20" viewBox="0 0 20 20" fill="none" xmlns="http://www.w3.org/2000/svg">
<path d="M7.27861 9.59616C6.79681 8.39441 6.74472 7.06317 7.13115 5.82746C7.51757 4.59175 8.3188 3.52735 9.39941 2.81419C10.48 2.10103 11.7737 1.78285 13.0618 1.91343C14.35 2.04401 15.5535 2.61534 16.469 3.53085C17.3845 4.44636 17.9558 5.64989 18.0864 6.93802C18.217 8.22614 17.8988 9.51984 17.1856 10.6005C16.4725 11.6811 15.4081 12.4823 14.1724 12.8687C12.9367 13.2551 11.6054 13.203 10.4037 12.7212L10.4037 12.7211L9.375 13.7498H7.5V15.6248H5.625V17.4998H2.5V14.3748L7.27875 9.59609L7.27861 9.59616Z" stroke="currentColor" stroke-width="1.25" stroke-linecap="round" stroke-linejoin="round"/>
<path d="M14.0625 6.875C14.5803 6.875 15 6.45527 15 5.9375C15 5.41973 14.5803 5 14.0625 5C13.5447 5 13.125 5.41973 13.125 5.9375C13.125 6.45527 13.5447 6.875 14.0625 6.875Z" fill="currentColor"/>
</svg>
