<svg width="17" height="16" viewBox="0 0 17 16" fill="none" xmlns="http://www.w3.org/2000/svg" stroke-width="0">
<path d="M9.36896 2.83594C10.236 2.83594 10.9157 2.83553 11.4634 2.87891C12.017 2.92277 12.4764 3.01376 12.8983 3.21745L13.0272 3.28255C13.665 3.62073 14.1954 4.13267 14.5558 4.76042L14.6385 4.91536C14.8194 5.2815 14.9231 5.68747 14.9959 6.16797C15.0782 6.71113 15.1262 7.38909 15.188 8.25391L15.352 10.5501L15.3579 10.6823C15.3826 12.0396 14.2871 13.1693 12.9126 13.1693C12.2324 13.1692 11.5851 12.8859 11.1242 12.3913L11.0343 12.2897L10.7843 11.9896C10.6044 11.7737 10.5127 11.6644 10.4399 11.5911L10.3709 11.5273C10.1917 11.3748 9.97958 11.2668 9.75177 11.2116L9.65347 11.1908C9.53691 11.1707 9.40826 11.1693 9.03367 11.1693H7.63719C7.35614 11.1693 7.21335 11.1701 7.1105 11.179L7.0174 11.1908C6.78538 11.2307 6.56639 11.3251 6.37808 11.4648L6.2993 11.5273C6.25432 11.5657 6.21095 11.6092 6.14891 11.679L5.88589 11.9896L5.63589 12.2897C5.17137 12.8471 4.48318 13.1692 3.75763 13.1693C2.33869 13.1693 1.21781 11.9655 1.31883 10.5501L1.48289 8.25391L1.57078 7.0905C1.60081 6.74498 1.6338 6.43962 1.67495 6.16797C1.75815 5.61882 1.88118 5.16667 2.1144 4.76042L2.18862 4.63672C2.5714 4.02459 3.12008 3.53226 3.77196 3.21745L3.93211 3.14583C4.31015 2.99144 4.72249 2.91729 5.20685 2.87891C5.75449 2.83553 6.43423 2.83594 7.30125 2.83594H9.36896ZM7.30125 3.83594C6.41844 3.83594 5.78527 3.83614 5.28628 3.87565C4.85495 3.90982 4.5548 3.97167 4.30906 4.07227L4.20685 4.11784C3.75719 4.33498 3.37399 4.66644 3.09487 5.07747L2.98159 5.25846C2.83513 5.51357 2.73729 5.82888 2.66323 6.31771C2.62575 6.5651 2.59612 6.84675 2.56753 7.17643L2.48029 8.32487L2.31623 10.6211C2.25648 11.4576 2.91899 12.1693 3.75763 12.1693C4.18646 12.1692 4.59313 11.9785 4.86766 11.6491L5.11766 11.349L5.40216 11.0143C5.48704 10.9192 5.5656 10.8382 5.65086 10.7656L5.78237 10.6615C6.09615 10.4287 6.46092 10.2723 6.84748 10.2057L7.0161 10.1836C7.18946 10.168 7.38227 10.1693 7.63719 10.1693H9.03367C9.37342 10.1693 9.60225 10.1678 9.82274 10.2057L9.98745 10.2396C10.3671 10.3316 10.7208 10.5114 11.0194 10.7656L11.1437 10.8815C11.2667 11.0047 11.3893 11.1531 11.5526 11.349L11.8026 11.6491L11.9119 11.7663C12.1795 12.0233 12.5375 12.1692 12.9126 12.1693C13.6987 12.1693 14.3305 11.544 14.3572 10.7767L14.354 10.6211L14.1906 8.32487C14.1277 7.44422 14.082 6.81264 14.007 6.31771C13.9422 5.89005 13.8592 5.59532 13.7414 5.35742L13.6886 5.25846C13.44 4.82548 13.082 4.46721 12.6522 4.2181L12.4634 4.11784C12.1985 3.98995 11.8768 3.91469 11.3839 3.87565C10.885 3.83615 10.2517 3.83594 9.36896 3.83594H7.30125ZM5.16844 8.66927V7.83594H4.33511C4.05901 7.83589 3.83511 7.61205 3.83511 7.33594C3.83511 7.05983 4.05901 6.83599 4.33511 6.83594H5.16844V6.0026C5.16844 5.72649 5.39234 5.50265 5.66844 5.5026C5.94458 5.5026 6.16844 5.72646 6.16844 6.0026V6.83594H7.00177C7.27792 6.83594 7.50177 7.0598 7.50177 7.33594C7.50177 7.61208 7.27792 7.83594 7.00177 7.83594H6.16844V8.66927C6.16844 8.94541 5.94458 9.16927 5.66844 9.16927C5.39234 9.16922 5.16844 8.94538 5.16844 8.66927ZM10.3416 7.5026C10.6178 7.5026 10.8416 7.72646 10.8416 8.0026C10.8416 8.27875 10.6178 8.5026 10.3416 8.5026H10.3351C10.059 8.50256 9.83511 8.27872 9.83511 8.0026C9.83511 7.72649 10.059 7.50265 10.3351 7.5026H10.3416ZM12.3416 6.16927L12.393 6.17188C12.6451 6.19751 12.8416 6.41041 12.8416 6.66927C12.8416 6.92813 12.6451 7.14103 12.393 7.16667L12.3416 7.16927H12.3351C12.059 7.16922 11.8351 6.94538 11.8351 6.66927C11.8351 6.39316 12.059 6.16932 12.3351 6.16927H12.3416Z" fill="currentColor"/>
</svg>
