<svg xmlns="http://www.w3.org/2000/svg" width="24" height="24" fill="none" stroke-width="0">
<path fill="currentColor" fill-rule="evenodd" d="M10.75 4.5a.75.75 0 0 1 .75-.75H17a2.756 2.756 0 0 1 2.75 2.75V16a.75.75 0 0 1-1.5 0V6.5c0-.686-.564-1.25-1.25-1.25h-5.5a.75.75 0 0 1-.75-.75" clip-rule="evenodd"/>
<path fill="currentColor" fill-rule="evenodd" d="M14.576 1.52a.75.75 0 0 1-.096 1.056L12.171 4.5l2.31 1.924a.75.75 0 0 1-.961 1.152l-3-2.5a.75.75 0 0 1 0-1.152l3-2.5a.75.75 0 0 1 1.056.096M19 16.75a2.25 2.25 0 1 0 0 4.5 2.25 2.25 0 0 0 0-4.5M15.25 19a3.75 3.75 0 1 1 7.5 0 3.75 3.75 0 0 1-7.5 0M5 7.25a.75.75 0 0 1 .75.75v9.5c0 .686.564 1.25 1.25 1.25h5.5a.75.75 0 0 1 0 1.5H7a2.756 2.756 0 0 1-2.75-2.75V8A.75.75 0 0 1 5 7.25" clip-rule="evenodd"/>
<path fill="currentColor" fill-rule="evenodd" d="M9.424 16.52a.75.75 0 0 1 1.056-.096l3 2.5a.75.75 0 0 1 0 1.152l-3 2.5a.75.75 0 0 1-.96-1.152l2.309-1.924-2.31-1.924a.75.75 0 0 1-.095-1.056M5 2.75a2.25 2.25 0 1 0 0 4.5 2.25 2.25 0 0 0 0-4.5M1.25 5a3.75 3.75 0 1 1 7.5 0 3.75 3.75 0 0 1-7.5 0" clip-rule="evenodd"/>
<circle cx="19" cy="19" r="3" fill="currentColor"/>
</svg>