<svg width="16" height="16" viewBox="0 0 16 16" fill="none" xmlns="http://www.w3.org/2000/svg">
<g clip-path="url(#clip0_9211_10718)">
<path d="M0.400391 2.39844V6.39844H4.40039" stroke="currentColor" stroke-opacity="0.8" stroke-linecap="round" stroke-linejoin="round"/>
<path d="M2.07372 10.3922C2.50599 11.6191 3.32528 12.6723 4.40816 13.3931C5.49104 14.1139 6.77885 14.4633 8.07753 14.3885C9.37622 14.3138 10.6154 13.819 11.6085 12.9787C12.6015 12.1384 13.2946 10.9982 13.5832 9.72979C13.8718 8.46138 13.7405 7.13352 13.2088 5.94629C12.6772 4.75905 11.7741 3.77675 10.6356 3.14739C9.49715 2.51804 8.18499 2.27573 6.89684 2.45696C5.60869 2.6382 4.41433 3.23317 3.49372 4.15222L0.400391 7.05889" stroke="currentColor" stroke-opacity="0.8" stroke-linecap="round" stroke-linejoin="round"/>
</g>
<defs>
<clipPath id="clip0_9211_10718">
<rect width="16" height="16" fill="currentColor"/>
</clipPath>
</defs>
</svg>
