<svg width="190" height="48" viewBox="0 0 190 48" fill="none" xmlns="http://www.w3.org/2000/svg">
<mask id="mask0_17908_59712" style="mask-type:luminance" maskUnits="userSpaceOnUse" x="0" y="12" width="190" height="24">
<path d="M189.558 12H0V36H189.558V12Z" fill="white"/>
</mask>
<g mask="url(#mask0_17908_59712)">
<path fill-rule="evenodd" clip-rule="evenodd" d="M189.558 23.9943L183.22 12.0067H161.695L159.92 15.3414C156.672 13.3087 151.594 12 145.886 12C142.487 12 139.729 15.86 139.729 20.6219V21.1082L130.535 12.0067H125.515L116.381 29.2829H100.017C109.783 29.2613 117.686 25.4094 117.686 20.6609C117.686 15.9126 109.74 12.0391 99.9351 12.0391C96.5357 12.0391 93.7788 15.8991 93.7788 20.6609C93.7788 21.8524 93.9509 22.9873 94.2628 24.0199H91.6607C91.6607 24.0138 91.6607 24.0091 91.6607 24.0037H88.0954C88.0954 24.0091 88.0954 24.0138 88.0954 24.0192C88.0954 29.7072 85.3014 34.3175 81.855 34.3175C78.4085 34.3175 75.6145 29.7065 75.6145 24.0192C75.6145 18.3319 78.4085 13.7209 81.855 13.7209C84.1316 13.7209 86.1233 15.7341 87.214 18.74H90.6592C89.0623 14.7702 85.7198 12.0377 81.8562 12.0377C73.8604 12.0377 66.9254 14.6712 63.4902 18.5238C61.8598 14.6712 58.5694 12.0384 54.7751 12.0384C46.1244 12.0384 38.7178 15.1205 35.6378 19.4937C34.4754 15.2774 27.0316 12.0249 18.022 12.0249C14.6176 12.0249 11.8582 15.8856 11.8582 20.6475C11.8582 21.839 12.0315 22.9739 12.3435 24.0064H6.31101L0 35.9865H18.0268V29.27L24.9705 35.9865H43.0691L37.5145 30.6104H37.5195C41.2147 33.8561 47.5616 35.9986 54.7713 35.9993C54.7726 35.9993 54.7739 35.9993 54.7751 35.9993C58.5694 35.9993 61.8598 33.3658 63.4902 29.5132C66.9254 33.3651 73.858 35.9986 81.8513 35.9993C81.8525 35.9993 81.855 35.9993 81.8562 35.9993C81.8835 35.9993 81.9107 35.9986 81.938 35.998H99.9413V29.2822L106.876 35.998H124.951L124.918 35.9656H130.184V30.8488H134.709L137.412 35.967H154.744L149.427 30.7047H157.54L154.744 35.9663L180.163 35.9676L168.89 14.6584L189.558 23.9943ZM18.022 27.6906C16.2418 27.6906 14.797 24.5372 14.797 20.6475C14.797 16.7578 16.2405 13.6044 18.022 13.6044C19.8033 13.6044 21.2468 16.7578 21.2468 20.6475C21.2468 24.5372 19.8033 27.6906 18.022 27.6906ZM18.1048 29.27C25.1871 29.2546 31.2901 27.2286 34.1177 24.3088C34.1907 26.087 34.9322 27.7688 36.201 29.2741H36.133L36.1292 29.27H18.1048ZM54.7751 13.7202C57.8922 13.7202 60.4745 17.492 60.94 22.4209H48.6102C49.0756 17.492 51.6579 13.7202 54.7751 13.7202ZM60.139 29.2835C59.0509 32.2976 57.0566 34.3175 54.7751 34.3175C51.3287 34.3175 48.5358 29.7072 48.5347 24.0199H61.1925C61.1925 25.9084 61.9477 27.6947 63.2908 29.2835H60.139ZM99.9363 27.7034C98.1573 27.7034 96.7165 24.5506 96.7165 20.6609C96.7165 16.7713 98.1586 13.6185 99.9363 13.6185C101.714 13.6185 103.156 16.7713 103.156 20.6609C103.156 24.5506 101.714 27.7034 99.9363 27.7034ZM130.184 29.2505V22.2815L133.865 29.2505H130.184ZM154.88 23.9835H142.637L142.666 20.6219C142.666 16.7322 144.109 13.5794 145.886 13.5794C147.663 13.5794 149.106 16.7322 149.106 20.6219H162.895L158.99 27.9715L154.877 23.9835H154.88ZM163.491 19.5018C163.145 18.21 162.212 17.0084 160.825 15.9617L166.068 14.6503L163.491 19.5025V19.5018Z" fill="white"/>
</g>
</svg>
