<svg width="17" height="16" viewBox="0 0 17 16" fill="none" xmlns="http://www.w3.org/2000/svg">
<path fill-rule="evenodd" clip-rule="evenodd" d="M11.5 4.83594C10.8557 4.83594 10.3333 5.35827 10.3333 6.0026C10.3333 6.64694 10.8557 7.16927 11.5 7.16927C12.1443 7.16927 12.6667 6.64694 12.6667 6.0026C12.6667 5.35827 12.1443 4.83594 11.5 4.83594ZM9.33333 6.0026C9.33333 4.80599 10.3034 3.83594 11.5 3.83594C12.5416 3.83594 13.4115 4.57091 13.6194 5.55054C13.6843 5.5198 13.7568 5.5026 13.8333 5.5026H14.5C14.7761 5.5026 15 5.72646 15 6.0026C15 6.27875 14.7761 6.5026 14.5 6.5026H13.8333C13.7568 6.5026 13.6843 6.48541 13.6194 6.45467C13.4115 7.43429 12.5416 8.16927 11.5 8.16927C10.3034 8.16927 9.33333 7.19922 9.33333 6.0026ZM2 6.0026C2 5.72646 2.22386 5.5026 2.5 5.5026H7.16667C7.44281 5.5026 7.66667 5.72646 7.66667 6.0026C7.66667 6.27875 7.44281 6.5026 7.16667 6.5026H2.5C2.22386 6.5026 2 6.27875 2 6.0026ZM5.5 8.83594C4.85567 8.83594 4.33333 9.35827 4.33333 10.0026C4.33333 10.6469 4.85567 11.1693 5.5 11.1693C6.14433 11.1693 6.66667 10.6469 6.66667 10.0026C6.66667 9.35827 6.14433 8.83594 5.5 8.83594ZM3.39131 9.5026C3.61703 8.54704 4.47547 7.83594 5.5 7.83594C6.69662 7.83594 7.66667 8.80599 7.66667 10.0026C7.66667 11.1992 6.69662 12.1693 5.5 12.1693C4.47547 12.1693 3.61703 11.4582 3.39131 10.5026H2.5C2.22386 10.5026 2 10.2787 2 10.0026C2 9.72646 2.22386 9.5026 2.5 9.5026H3.39131ZM9.33333 10.0026C9.33333 9.72646 9.55719 9.5026 9.83333 9.5026H14.5C14.7761 9.5026 15 9.72646 15 10.0026C15 10.2787 14.7761 10.5026 14.5 10.5026H9.83333C9.55719 10.5026 9.33333 10.2787 9.33333 10.0026Z" fill="currentColor"/>
</svg>
