<svg width="12" height="12" viewBox="0 0 12 12" fill="none" xmlns="http://www.w3.org/2000/svg">
  <style>
    path { stroke: none; }
  </style>
<path stroke-width="none" fill-rule="evenodd" clip-rule="evenodd" d="M6.05783 1.03515C6.06829 1.04829 6.10559 1.09613 6.16699 1.22194C6.2603 1.41315 6.36725 1.68992 6.52534 2.10095L6.87107 2.99987C6.87849 3.01915 6.8858 3.03818 6.89302 3.05696C7.05975 3.49085 7.17513 3.79112 7.35845 4.04894C7.5204 4.2767 7.71939 4.47569 7.94715 4.63764C8.20497 4.82097 8.50524 4.93635 8.93913 5.10308C8.95791 5.11029 8.97694 5.1176 8.99623 5.12502L9.89514 5.47076C10.3062 5.62885 10.5829 5.73579 10.7742 5.82911C10.9 5.89051 10.9478 5.9278 10.9609 5.93827C10.9766 5.97768 10.9766 6.02162 10.9609 6.06104C10.9478 6.0715 10.9 6.1088 10.7742 6.1702C10.5829 6.26351 10.3062 6.37046 9.89514 6.52855L8.99623 6.87428C8.97694 6.8817 8.95791 6.88902 8.93913 6.89623C8.50524 7.06296 8.20497 7.17834 7.94715 7.36166C7.71939 7.52361 7.5204 7.72261 7.35845 7.95037C7.17513 8.20819 7.05975 8.50845 6.89302 8.94234C6.8858 8.96112 6.87849 8.98015 6.87107 8.99944L6.52534 9.89835C6.36725 10.3094 6.2603 10.5862 6.16698 10.7774C6.10559 10.9032 6.06829 10.951 6.05783 10.9641C6.01841 10.9798 5.97447 10.9798 5.93505 10.9641C5.92458 10.951 5.88729 10.9032 5.82589 10.7774C5.73258 10.5862 5.62563 10.3094 5.46754 9.89835L5.12181 8.99944C5.11439 8.98015 5.10707 8.96111 5.09986 8.94233C4.93313 8.50845 4.81775 8.20819 4.63443 7.95037C4.47248 7.72261 4.27349 7.52361 4.04573 7.36166C3.7879 7.17834 3.48764 7.06296 3.05375 6.89623C3.03497 6.88901 3.01594 6.8817 2.99665 6.87428L2.09774 6.52855C1.68671 6.37046 1.40994 6.26351 1.21873 6.1702C1.09293 6.1088 1.04508 6.0715 1.03194 6.06104C1.01632 6.02162 1.01633 5.97768 1.03195 5.93826C1.04509 5.9278 1.09293 5.8905 1.21873 5.82911C1.40994 5.73579 1.68671 5.62885 2.09774 5.47076L2.99665 5.12502C3.01594 5.1176 3.03497 5.11029 3.05375 5.10308C3.48764 4.93635 3.78791 4.82097 4.04573 4.63764C4.27349 4.47569 4.47248 4.2767 4.63443 4.04894C4.81775 3.79112 4.93314 3.49085 5.09986 3.05697C5.10708 3.03819 5.11439 3.01916 5.12181 2.99987L5.46755 2.10095C5.62564 1.68992 5.73258 1.41315 5.8259 1.22194C5.8873 1.09613 5.92459 1.04829 5.93505 1.03515C5.97447 1.01953 6.01841 1.01953 6.05783 1.03515ZM6.53668 0.156059C6.19823 -0.0207694 5.79466 -0.0207695 5.4562 0.156058C5.18865 0.295843 5.03513 0.562213 4.92721 0.783351C4.81242 1.01856 4.69006 1.33671 4.5429 1.71936L4.18846 2.64089C3.99126 3.15361 3.92056 3.32725 3.81945 3.46944C3.72228 3.6061 3.60289 3.7255 3.46623 3.82267C3.32404 3.92377 3.1504 3.99447 2.63767 4.19168L1.71624 4.54608C1.33354 4.69325 1.01536 4.81562 0.78014 4.93042C0.559 5.03834 0.292631 5.19186 0.152845 5.45941C-0.023982 5.79787 -0.023982 6.20144 0.152845 6.53989C0.292631 6.80745 0.559 6.96096 0.780138 7.06889C1.01535 7.18368 1.33351 7.30604 1.71618 7.45321L2.63767 7.80763C3.1504 8.00483 3.32404 8.07553 3.46623 8.17664C3.60289 8.27381 3.72228 8.39321 3.81945 8.52986C3.92056 8.67205 3.99126 8.84569 4.18846 9.35842L4.5429 10.28C4.69006 10.6626 4.81242 10.9808 4.92721 11.216C5.03513 11.4371 5.18864 11.7035 5.4562 11.8432C5.79465 12.0201 6.19822 12.0201 6.53668 11.8432C6.80423 11.7035 6.95775 11.4371 7.06567 11.216C7.18046 10.9807 7.30282 10.6626 7.44999 10.2799L7.80442 9.35842C8.00162 8.84569 8.07232 8.67205 8.17343 8.52986C8.2706 8.39321 8.38999 8.27381 8.52665 8.17664C8.66884 8.07553 8.84248 8.00483 9.35521 7.80763L10.2767 7.4532C10.6594 7.30603 10.9775 7.18367 11.2127 7.06889C11.4339 6.96096 11.7003 6.80745 11.84 6.53989C12.0169 6.20144 12.0169 5.79787 11.84 5.45941C11.7003 5.19186 11.4339 5.03834 11.2127 4.93042C10.9775 4.81563 10.6594 4.69327 10.2767 4.54611L9.35521 4.19168C8.84248 3.99447 8.66884 3.92377 8.52665 3.82267C8.38999 3.7255 8.2706 3.6061 8.17343 3.46944C8.07232 3.32725 8.00162 3.15361 7.80442 2.64089L7.44999 1.71937C7.30282 1.33671 7.18046 1.01856 7.06567 0.783351C6.95775 0.562213 6.80424 0.295843 6.53668 0.156059Z" fill="currentColor"/>
</svg>
