<svg xmlns="http://www.w3.org/2000/svg" width="59" height="24" fill="none"><g clip-path="url(#a)"><path fill="#fff" d="M4.825 9.363c0-.622.51-.862 1.356-.862 1.212 0 2.743.367 3.956 1.021V5.774C8.813 5.248 7.505 5.04 6.18 5.04 2.943 5.04.79 6.731.79 9.554c0 4.402 6.06 3.7 6.06 5.599 0 .733-.637.973-1.53.973-1.324 0-3.015-.543-4.355-1.276v3.796c1.484.638 2.983.909 4.355.909 3.317 0 5.598-1.643 5.598-4.498-.016-4.753-6.093-3.908-6.093-5.694M15.607 1.85l-3.891.83-.016 12.776c0 2.36 1.77 4.099 4.13 4.099 1.309 0 2.266-.24 2.792-.526V15.79c-.51.207-3.03.94-3.03-1.42V8.71h3.03V5.31h-3.03zm7.976 4.642-.256-1.18h-3.445v13.956h3.988V9.809c.94-1.228 2.536-1.005 3.03-.83V5.312c-.51-.191-2.376-.542-3.317 1.18m4.29-1.18h4.004v13.956h-4.004zm0-1.213 4.004-.861V0l-4.004.845zm12.33.941c-1.564 0-2.568.734-3.127 1.244l-.207-.989H33.36v18.598l3.987-.845.017-4.514c.574.415 1.42 1.005 2.823 1.005 2.855 0 5.455-2.297 5.455-7.353-.016-4.626-2.648-7.146-5.44-7.146m-.957 10.99c-.941 0-1.5-.335-1.883-.75l-.016-5.917c.415-.463.99-.782 1.899-.782 1.451 0 2.456 1.627 2.456 3.717 0 2.137-.989 3.732-2.456 3.732m18.964-3.685c0-4.083-1.977-7.305-5.758-7.305-3.796 0-6.093 3.222-6.093 7.273 0 4.801 2.712 7.226 6.604 7.226 1.898 0 3.333-.43 4.418-1.037v-3.19c-1.085.543-2.329.877-3.908.877-1.547 0-2.919-.542-3.094-2.424h7.8c0-.207.031-1.037.031-1.42m-7.879-1.515c0-1.802 1.1-2.552 2.105-2.552.973 0 2.01.75 2.01 2.552z"/></g><defs><clipPath id="a"><path fill="#fff" d="M0 0h59v24H0z"/></clipPath></defs></svg>