<svg width="14" height="14" viewBox="0 0 14 14" fill="none" stroke-width="0" xmlns="http://www.w3.org/2000/svg">
<path fill-rule="evenodd" clip-rule="evenodd" d="M7.00065 12.5423C10.0612 12.5423 12.5423 10.0612 12.5423 7.00065C12.5423 3.94007 10.0612 1.45898 7.00065 1.45898C3.94007 1.45898 1.45898 3.94007 1.45898 7.00065C1.45898 10.0612 3.94007 12.5423 7.00065 12.5423ZM7.00065 13.4173C10.5445 13.4173 13.4173 10.5445 13.4173 7.00065C13.4173 3.45682 10.5445 0.583984 7.00065 0.583984C3.45682 0.583984 0.583984 3.45682 0.583984 7.00065C0.583984 10.5445 3.45682 13.4173 7.00065 13.4173Z" fill="currentColor"/>
<path fill-rule="evenodd" clip-rule="evenodd" d="M7 3.64648C7.24162 3.64648 7.4375 3.84236 7.4375 4.08398L7.4375 7.00065C7.4375 7.24228 7.24162 7.43815 7 7.43815C6.75838 7.43815 6.5625 7.24228 6.5625 7.00065L6.5625 4.08398C6.5625 3.84236 6.75838 3.64648 7 3.64648Z" fill="currentColor"/>
<path fill-rule="evenodd" clip-rule="evenodd" d="M10.3535 7C10.3535 7.24162 10.1576 7.4375 9.91602 7.4375H6.99935C6.75772 7.4375 6.56185 7.24162 6.56185 7C6.56185 6.75838 6.75772 6.5625 6.99935 6.5625H9.91602C10.1576 6.5625 10.3535 6.75838 10.3535 7Z" fill="currentColor"/>
</svg>
