<svg xmlns="http://www.w3.org/2000/svg" width="17" height="12" fill="none"><rect width="16.8" height="12" fill="#fff" rx="1.2"/><mask id="a" width="17" height="12" x="0" y="0" maskUnits="userSpaceOnUse" style="mask-type:luminance"><rect width="16.8" height="12" fill="#fff" rx="1.2"/></mask><g mask="url(#a)"><path fill="#D02F44" fill-rule="evenodd" d="M16.8 0H0v.8h16.8zm0 1.6H0v.8h16.8zM0 3.2h16.8V4H0zm16.8 1.6H0v.8h16.8zM0 6.4h16.8v.8H0zM16.8 8H0v.8h16.8zM0 9.6h16.8v.8H0zm16.8 1.6H0v.8h16.8z" clip-rule="evenodd"/><path fill="#46467F" d="M0 0h7.2v5.6H0z"/><g filter="url(#b)"><path fill="url(#c)" fill-rule="evenodd" d="M1.6 1.2a.4.4 0 1 1-.8 0 .4.4 0 0 1 .8 0m1.6 0a.4.4 0 1 1-.8 0 .4.4 0 0 1 .8 0m1.2.4a.4.4 0 1 0 0-.8.4.4 0 0 0 0 .8m2-.4a.4.4 0 1 1-.8 0 .4.4 0 0 1 .8 0M2 2.402a.4.4 0 1 0 0-.8.4.4 0 0 0 0 .8m2-.4a.4.4 0 1 1-.8 0 .4.4 0 0 1 .8 0m1.2.4a.4.4 0 1 0 0-.8.4.4 0 0 0 0 .8m1.2.4a.4.4 0 1 1-.8 0 .4.4 0 0 1 .8 0m-2 .4a.4.4 0 1 0 0-.8.4.4 0 0 0 0 .8m-1.2-.4a.4.4 0 1 1-.8 0 .4.4 0 0 1 .8 0m-2 .4a.4.4 0 1 0 0-.8.4.4 0 0 0 0 .8m1.2.4a.4.4 0 1 1-.8 0 .4.4 0 0 1 .8 0m1.2.4a.4.4 0 1 0 0-.8.4.4 0 0 0 0 .8m2-.4a.4.4 0 1 1-.8 0 .4.4 0 0 1 .8 0M6 4.8a.4.4 0 1 0 0-.8.4.4 0 0 0 0 .8m-1.2-.4a.4.4 0 1 1-.8 0 .4.4 0 0 1 .8 0m-2 .4a.4.4 0 1 0 0-.8.4.4 0 0 0 0 .8m-1.2-.4a.4.4 0 1 1-.8 0 .4.4 0 0 1 .8 0" clip-rule="evenodd"/></g></g><defs><linearGradient id="c" x1=".8" x2=".8" y1=".801" y2="4.801" gradientUnits="userSpaceOnUse"><stop stop-color="#fff"/><stop offset="1" stop-color="#F0F0F0"/></linearGradient><filter id="b" width="5.6" height="4.6" x=".8" y=".801" color-interpolation-filters="sRGB" filterUnits="userSpaceOnUse"><feFlood flood-opacity="0" result="BackgroundImageFix"/><feColorMatrix in="SourceAlpha" result="hardAlpha" values="0 0 0 0 0 0 0 0 0 0 0 0 0 0 0 0 0 0 127 0"/><feOffset dy=".6"/><feColorMatrix values="0 0 0 0 0 0 0 0 0 0 0 0 0 0 0 0 0 0 0.06 0"/><feBlend in2="BackgroundImageFix" result="effect1_dropShadow_1062_2912"/><feBlend in="SourceGraphic" in2="effect1_dropShadow_1062_2912" result="shape"/></filter></defs></svg>