<svg width="20" height="20" viewBox="0 0 20 20" fill="none" xmlns="http://www.w3.org/2000/svg">
<circle cx="10" cy="10" r="10" fill="#E7BB41"/>
<path d="M9.58321 15.8327V14.8842C7.51368 14.765 6.25639 13.6988 6.24988 12.0827H8.12488C8.17097 12.7686 8.74623 13.2923 9.58321 13.3848V10.8327L8.88608 10.6504C7.29753 10.2811 6.44753 9.36419 6.44753 7.99206C6.44753 6.37461 7.60613 5.31393 9.58321 5.1556V4.16602H10.4165V5.1556C12.4319 5.31966 13.5155 6.39883 13.5415 7.91602H11.6665C11.6468 7.28945 11.2543 6.78607 10.4165 6.7181V9.11393L11.2191 9.30352C12.9064 9.67279 13.7499 10.5462 13.7499 11.9785C13.7499 13.654 12.6108 14.7358 10.4165 14.8775V15.8327H9.58321ZM9.58321 8.95768V6.7181C8.86472 6.75768 8.35222 7.19909 8.35222 7.82565C8.35222 8.40638 8.77904 8.78607 9.58321 8.95768ZM10.4165 10.9889V13.3848C11.41 13.3447 11.8848 12.8921 11.8848 12.1928C11.8848 11.5527 11.41 11.1217 10.4165 10.9889Z" fill="#0E1116"/>
</svg>
