<svg xmlns="http://www.w3.org/2000/svg" width="14" height="14" fill="none" stroke-width="0">
<path fill="currentColor" fill-rule="evenodd" d="M5.834 2.334a2.042 2.042 0 1 0 0 4.083 2.042 2.042 0 0 0 0-4.083M2.626 4.375a3.208 3.208 0 1 1 6.416 0 3.208 3.208 0 0 1-6.416 0M4.274 8.46h2.727a.583.583 0 1 1 0 1.166H4.376c-.857 0-1.156.007-1.383.076a1.75 1.75 0 0 0-1.167 1.166c-.069.228-.075.527-.075 1.383a.583.583 0 1 1-1.167 0v-.101c0-.716 0-1.205.126-1.62a2.92 2.92 0 0 1 1.944-1.945c.416-.126.904-.126 1.62-.125m4.94.462a.583.583 0 0 1 .824 0l1.046 1.046 1.046-1.046a.583.583 0 1 1 .825.825l-1.046 1.046 1.046 1.046a.583.583 0 1 1-.825.825l-1.046-1.046-1.046 1.046a.583.583 0 0 1-.825-.825l1.046-1.046-1.046-1.046a.583.583 0 0 1 0-.825" clip-rule="evenodd"/>
</svg>