<svg width="24" height="24" viewBox="0 0 24 24" fill="none" stroke-width="0" xmlns="http://www.w3.org/2000/svg">
<path fill-rule="evenodd" clip-rule="evenodd" d="M3.10553 10.7508C3.10731 10.776 3.10908 10.8011 3.10986 10.8266V10.8296C1.29193 11.3573 0 13.4893 0 15.0413V15.4466C0 17.4611 2.17326 19.5 4.85309 19.5H19.1469C21.8267 19.5 24 17.4611 24 15.4466V15.0388C24 13.1649 22.1189 10.8126 19.6996 10.6057C19.6456 8.93135 18.2765 7.58995 16.594 7.58995C15.9405 7.58995 15.3343 7.79323 14.8338 8.13771C13.8741 5.99537 11.7318 4.5 9.23544 4.5C5.84618 4.5 3.10075 7.25217 3.10075 10.6483C3.10075 10.6831 3.10314 10.717 3.10553 10.7508ZM7.21325 11.5909H6.25781L7.58133 17.2389H8.72627L10.1476 11.5909H9.19214L8.18143 16.1008H8.16685L7.21325 11.5909ZM12.5109 11.5909H10.7264L10.7282 17.2395H11.6296V14.9054H12.4192C13.4767 14.9054 14.0695 14.2487 14.0695 13.236C14.0695 12.2707 13.5951 11.5909 12.5109 11.5909ZM12.2668 14.225H11.6272L11.6241 12.2713H12.2012C12.9228 12.2713 13.1657 12.6426 13.1657 13.2512C13.1657 13.9633 12.7466 14.225 12.2668 14.225ZM18.2988 15.3327V15.214L17.4011 15.2091V15.3065C17.4011 15.8275 17.313 16.6674 16.5629 16.6674C15.8996 16.6674 15.5995 16.2085 15.5995 14.3887C15.5995 12.5689 15.8996 12.1569 16.5629 12.1569C17.2104 12.1332 17.3683 12.7351 17.3683 13.2573V13.3522H18.2684V13.2488C18.2684 12.6633 18.1743 11.4765 16.5708 11.4765C15.1422 11.4765 14.6988 12.3949 14.6988 14.4143C14.6988 16.4318 15.1404 17.3496 16.5617 17.3496C17.8888 17.3496 18.2988 16.3533 18.2988 15.3327Z" fill="white"/>
</svg>
