<svg width="16" height="16" viewBox="0 0 16 16" fill="none" xmlns="http://www.w3.org/2000/svg">
<path fill-rule="evenodd" clip-rule="evenodd" d="M8 2.5C4.96243 2.5 2.5 4.96243 2.5 8C2.5 11.0376 4.96243 13.5 8 13.5C11.0376 13.5 13.5 11.0376 13.5 8C13.5 4.96243 11.0376 2.5 8 2.5ZM1.5 8C1.5 4.41015 4.41015 1.5 8 1.5C11.5899 1.5 14.5 4.41015 14.5 8C14.5 11.5899 11.5899 14.5 8 14.5C4.41015 14.5 1.5 11.5899 1.5 8ZM5.64645 5.64645C5.84171 5.45118 6.15829 5.45118 6.35355 5.64645L7.99996 7.29285L9.64636 5.64645C9.84162 5.45118 10.1582 5.45118 10.3535 5.64645C10.5487 5.84171 10.5487 6.15829 10.3535 6.35355L8.70706 7.99996L10.3535 9.64636C10.5487 9.84162 10.5487 10.1582 10.3535 10.3535C10.1582 10.5487 9.84162 10.5487 9.64636 10.3535L7.99996 8.70706L6.35355 10.3535C6.15829 10.5487 5.84171 10.5487 5.64645 10.3535C5.45118 10.1582 5.45118 9.84162 5.64645 9.64636L7.29285 7.99996L5.64645 6.35355C5.45118 6.15829 5.45118 5.84171 5.64645 5.64645Z" fill="currentColor"/>
</svg>
